<ttFont>
<head>
    <!-- Most of this table will be recalculated by the compiler -->
    <tableVersion value="1.0"/>
    <fontRevision value="5.0"/>
    <checkSumAdjustment value="0xb31b58ec"/>
    <magicNumber value="0x5f0f3cf5"/>
    <flags value="00000000 00001011"/>
    <unitsPerEm value="2048"/>
    <created value="Sun May 15 08:57:39 2005"/>
    <modified value="Thu Apr 14 14:47:39 2011"/>
    <xMin value="-10"/>
    <yMin value="-1036"/>
    <xMax value="8397"/>
    <yMax value="2272"/>
    <macStyle value="00000000 00000000"/>
    <lowestRecPPEM value="8"/>
    <fontDirectionHint value="2"/>
    <indexToLocFormat value="1"/>
    <glyphDataFormat value="0"/>
  </head>
    <TTGlyph name=".notdef" xMin="142" yMin="226" xMax="842" yMax="1588">
      <contour>
        <pt x="142" y="226" on="1"/>
        <pt x="142" y="1588" on="1"/>
        <pt x="842" y="1588" on="1"/>
        <pt x="842" y="226" on="1"/>
      </contour>
      <contour>
        <pt x="284" y="368" on="1"/>
        <pt x="700" y="368" on="1"/>
        <pt x="700" y="1447" on="1"/>
        <pt x="284" y="1447" on="1"/>
      </contour>
    </TTGlyph>
    <TTGlyph name=".null" xMin="142" yMin="226" xMax="842" yMax="1588">
      <contour>
        <pt x="142" y="226" on="1"/>
        <pt x="142" y="1588" on="1"/>
        <pt x="842" y="1588" on="1"/>
        <pt x="842" y="226" on="1"/>
      </contour>
      <contour>
        <pt x="284" y="368" on="1"/>
        <pt x="700" y="368" on="1"/>
        <pt x="700" y="1447" on="1"/>
        <pt x="284" y="1447" on="1"/>
      </contour>
    </TTGlyph>
    <TTGlyph name="afii57381" xMin="142" yMin="226" xMax="842" yMax="1588">
      <contour>
        <pt x="142" y="226" on="1"/>
        <pt x="142" y="1588" on="1"/>
        <pt x="842" y="1588" on="1"/>
        <pt x="842" y="226" on="1"/>
      </contour>
      <contour>
        <pt x="284" y="368" on="1"/>
        <pt x="700" y="368" on="1"/>
        <pt x="700" y="1447" on="1"/>
        <pt x="284" y="1447" on="1"/>
      </contour>
    </TTGlyph>
    <TTGlyph name="afii57388" xMin="142" yMin="226" xMax="842" yMax="1588">
      <contour>
        <pt x="142" y="226" on="1"/>
        <pt x="142" y="1588" on="1"/>
        <pt x="842" y="1588" on="1"/>
        <pt x="842" y="226" on="1"/>
      </contour>
      <contour>
        <pt x="284" y="368" on="1"/>
        <pt x="700" y="368" on="1"/>
        <pt x="700" y="1447" on="1"/>
        <pt x="284" y="1447" on="1"/>
      </contour>
    </TTGlyph>
    <TTGlyph name="afii57396" xMin="142" yMin="226" xMax="842" yMax="1588">
      <contour>
        <pt x="142" y="226" on="1"/>
        <pt x="142" y="1588" on="1"/>
        <pt x="842" y="1588" on="1"/>
        <pt x="842" y="226" on="1"/>
      </contour>
      <contour>
        <pt x="284" y="368" on="1"/>
        <pt x="700" y="368" on="1"/>
        <pt x="700" y="1447" on="1"/>
        <pt x="284" y="1447" on="1"/>
      </contour>
    </TTGlyph>
    <TTGlyph name="afii57397" xMin="142" yMin="226" xMax="842" yMax="1588">
      <contour>
        <pt x="142" y="226" on="1"/>
        <pt x="142" y="1588" on="1"/>
        <pt x="842" y="1588" on="1"/>
        <pt x="842" y="226" on="1"/>
      </contour>
      <contour>
        <pt x="284" y="368" on="1"/>
        <pt x="700" y="368" on="1"/>
        <pt x="700" y="1447" on="1"/>
        <pt x="284" y="1447" on="1"/>
      </contour>
    </TTGlyph>
    <TTGlyph name="afii57398" xMin="142" yMin="226" xMax="842" yMax="1588">
      <contour>
        <pt x="142" y="226" on="1"/>
        <pt x="142" y="1588" on="1"/>
        <pt x="842" y="1588" on="1"/>
        <pt x="842" y="226" on="1"/>
      </contour>
      <contour>
        <pt x="284" y="368" on="1"/>
        <pt x="700" y="368" on="1"/>
        <pt x="700" y="1447" on="1"/>
        <pt x="284" y="1447" on="1"/>
      </contour>
    </TTGlyph>
    <TTGlyph name="afii57403" xMin="142" yMin="226" xMax="842" yMax="1588">
      <contour>
        <pt x="142" y="226" on="1"/>
        <pt x="142" y="1588" on="1"/>
        <pt x="842" y="1588" on="1"/>
        <pt x="842" y="226" on="1"/>
      </contour>
      <contour>
        <pt x="284" y="368" on="1"/>
        <pt x="700" y="368" on="1"/>
        <pt x="700" y="1447" on="1"/>
        <pt x="284" y="1447" on="1"/>
      </contour>
    </TTGlyph>
    <TTGlyph name="afii57407" xMin="142" yMin="226" xMax="842" yMax="1588">
      <contour>
        <pt x="142" y="226" on="1"/>
        <pt x="142" y="1588" on="1"/>
        <pt x="842" y="1588" on="1"/>
        <pt x="842" y="226" on="1"/>
      </contour>
      <contour>
        <pt x="284" y="368" on="1"/>
        <pt x="700" y="368" on="1"/>
        <pt x="700" y="1447" on="1"/>
        <pt x="284" y="1447" on="1"/>
      </contour>
    </TTGlyph>
    <TTGlyph name="afii57440" xMin="142" yMin="226" xMax="842" yMax="1588">
      <contour>
        <pt x="142" y="226" on="1"/>
        <pt x="142" y="1588" on="1"/>
        <pt x="842" y="1588" on="1"/>
        <pt x="842" y="226" on="1"/>
      </contour>
      <contour>
        <pt x="284" y="368" on="1"/>
        <pt x="700" y="368" on="1"/>
        <pt x="700" y="1447" on="1"/>
        <pt x="284" y="1447" on="1"/>
      </contour>
    </TTGlyph>
    <TTGlyph name="afii57451" xMin="142" yMin="226" xMax="842" yMax="1588">
      <contour>
        <pt x="142" y="226" on="1"/>
        <pt x="142" y="1588" on="1"/>
        <pt x="842" y="1588" on="1"/>
        <pt x="842" y="226" on="1"/>
      </contour>
      <contour>
        <pt x="284" y="368" on="1"/>
        <pt x="700" y="368" on="1"/>
        <pt x="700" y="1447" on="1"/>
        <pt x="284" y="1447" on="1"/>
      </contour>
    </TTGlyph>
    <TTGlyph name="afii57452" xMin="142" yMin="226" xMax="842" yMax="1588">
      <contour>
        <pt x="142" y="226" on="1"/>
        <pt x="142" y="1588" on="1"/>
        <pt x="842" y="1588" on="1"/>
        <pt x="842" y="226" on="1"/>
      </contour>
      <contour>
        <pt x="284" y="368" on="1"/>
        <pt x="700" y="368" on="1"/>
        <pt x="700" y="1447" on="1"/>
        <pt x="284" y="1447" on="1"/>
      </contour>
    </TTGlyph>
    <TTGlyph name="afii57453" xMin="142" yMin="226" xMax="842" yMax="1588">
      <contour>
        <pt x="142" y="226" on="1"/>
        <pt x="142" y="1588" on="1"/>
        <pt x="842" y="1588" on="1"/>
        <pt x="842" y="226" on="1"/>
      </contour>
      <contour>
        <pt x="284" y="368" on="1"/>
        <pt x="700" y="368" on="1"/>
        <pt x="700" y="1447" on="1"/>
        <pt x="284" y="1447" on="1"/>
      </contour>
    </TTGlyph>
    <TTGlyph name="afii57454" xMin="142" yMin="226" xMax="842" yMax="1588">
      <contour>
        <pt x="142" y="226" on="1"/>
        <pt x="142" y="1588" on="1"/>
        <pt x="842" y="1588" on="1"/>
        <pt x="842" y="226" on="1"/>
      </contour>
      <contour>
        <pt x="284" y="368" on="1"/>
        <pt x="700" y="368" on="1"/>
        <pt x="700" y="1447" on="1"/>
        <pt x="284" y="1447" on="1"/>
      </contour>
    </TTGlyph>
    <TTGlyph name="afii57455" xMin="142" yMin="226" xMax="842" yMax="1588">
      <contour>
        <pt x="142" y="226" on="1"/>
        <pt x="142" y="1588" on="1"/>
        <pt x="842" y="1588" on="1"/>
        <pt x="842" y="226" on="1"/>
      </contour>
      <contour>
        <pt x="284" y="368" on="1"/>
        <pt x="700" y="368" on="1"/>
        <pt x="700" y="1447" on="1"/>
        <pt x="284" y="1447" on="1"/>
      </contour>
    </TTGlyph>
    <TTGlyph name="afii57456" xMin="142" yMin="226" xMax="842" yMax="1588">
      <contour>
        <pt x="142" y="226" on="1"/>
        <pt x="142" y="1588" on="1"/>
        <pt x="842" y="1588" on="1"/>
        <pt x="842" y="226" on="1"/>
      </contour>
      <contour>
        <pt x="284" y="368" on="1"/>
        <pt x="700" y="368" on="1"/>
        <pt x="700" y="1447" on="1"/>
        <pt x="284" y="1447" on="1"/>
      </contour>
    </TTGlyph>
    <TTGlyph name="afii57457" xMin="142" yMin="226" xMax="842" yMax="1588">
      <contour>
        <pt x="142" y="226" on="1"/>
        <pt x="142" y="1588" on="1"/>
        <pt x="842" y="1588" on="1"/>
        <pt x="842" y="226" on="1"/>
      </contour>
      <contour>
        <pt x="284" y="368" on="1"/>
        <pt x="700" y="368" on="1"/>
        <pt x="700" y="1447" on="1"/>
        <pt x="284" y="1447" on="1"/>
      </contour>
    </TTGlyph>
    <TTGlyph name="afii57458" xMin="142" yMin="226" xMax="842" yMax="1588">
      <contour>
        <pt x="142" y="226" on="1"/>
        <pt x="142" y="1588" on="1"/>
        <pt x="842" y="1588" on="1"/>
        <pt x="842" y="226" on="1"/>
      </contour>
      <contour>
        <pt x="284" y="368" on="1"/>
        <pt x="700" y="368" on="1"/>
        <pt x="700" y="1447" on="1"/>
        <pt x="284" y="1447" on="1"/>
      </contour>
    </TTGlyph>
    <TTGlyph name="afii57505" xMin="142" yMin="226" xMax="842" yMax="1588">
      <contour>
        <pt x="142" y="226" on="1"/>
        <pt x="142" y="1588" on="1"/>
        <pt x="842" y="1588" on="1"/>
        <pt x="842" y="226" on="1"/>
      </contour>
      <contour>
        <pt x="284" y="368" on="1"/>
        <pt x="700" y="368" on="1"/>
        <pt x="700" y="1447" on="1"/>
        <pt x="284" y="1447" on="1"/>
      </contour>
    </TTGlyph>
    <TTGlyph name="afii57506" xMin="142" yMin="226" xMax="842" yMax="1588">
      <contour>
        <pt x="142" y="226" on="1"/>
        <pt x="142" y="1588" on="1"/>
        <pt x="842" y="1588" on="1"/>
        <pt x="842" y="226" on="1"/>
      </contour>
      <contour>
        <pt x="284" y="368" on="1"/>
        <pt x="700" y="368" on="1"/>
        <pt x="700" y="1447" on="1"/>
        <pt x="284" y="1447" on="1"/>
      </contour>
    </TTGlyph>
    <TTGlyph name="afii57507" xMin="142" yMin="226" xMax="842" yMax="1588">
      <contour>
        <pt x="142" y="226" on="1"/>
        <pt x="142" y="1588" on="1"/>
        <pt x="842" y="1588" on="1"/>
        <pt x="842" y="226" on="1"/>
      </contour>
      <contour>
        <pt x="284" y="368" on="1"/>
        <pt x="700" y="368" on="1"/>
        <pt x="700" y="1447" on="1"/>
        <pt x="284" y="1447" on="1"/>
      </contour>
    </TTGlyph>
    <TTGlyph name="afii57508" xMin="142" yMin="226" xMax="842" yMax="1588">
      <contour>
        <pt x="142" y="226" on="1"/>
        <pt x="142" y="1588" on="1"/>
        <pt x="842" y="1588" on="1"/>
        <pt x="842" y="226" on="1"/>
      </contour>
      <contour>
        <pt x="284" y="368" on="1"/>
        <pt x="700" y="368" on="1"/>
        <pt x="700" y="1447" on="1"/>
        <pt x="284" y="1447" on="1"/>
      </contour>
    </TTGlyph>
    <TTGlyph name="afii57509" xMin="142" yMin="226" xMax="842" yMax="1588">
      <contour>
        <pt x="142" y="226" on="1"/>
        <pt x="142" y="1588" on="1"/>
        <pt x="842" y="1588" on="1"/>
        <pt x="842" y="226" on="1"/>
      </contour>
      <contour>
        <pt x="284" y="368" on="1"/>
        <pt x="700" y="368" on="1"/>
        <pt x="700" y="1447" on="1"/>
        <pt x="284" y="1447" on="1"/>
      </contour>
    </TTGlyph>
    <TTGlyph name="afii57511" xMin="142" yMin="226" xMax="842" yMax="1588">
      <contour>
        <pt x="142" y="226" on="1"/>
        <pt x="142" y="1588" on="1"/>
        <pt x="842" y="1588" on="1"/>
        <pt x="842" y="226" on="1"/>
      </contour>
      <contour>
        <pt x="284" y="368" on="1"/>
        <pt x="700" y="368" on="1"/>
        <pt x="700" y="1447" on="1"/>
        <pt x="284" y="1447" on="1"/>
      </contour>
    </TTGlyph>
    <TTGlyph name="afii57512" xMin="142" yMin="226" xMax="842" yMax="1588">
      <contour>
        <pt x="142" y="226" on="1"/>
        <pt x="142" y="1588" on="1"/>
        <pt x="842" y="1588" on="1"/>
        <pt x="842" y="226" on="1"/>
      </contour>
      <contour>
        <pt x="284" y="368" on="1"/>
        <pt x="700" y="368" on="1"/>
        <pt x="700" y="1447" on="1"/>
        <pt x="284" y="1447" on="1"/>
      </contour>
    </TTGlyph>
    <TTGlyph name="afii57513" xMin="142" yMin="226" xMax="842" yMax="1588">
      <contour>
        <pt x="142" y="226" on="1"/>
        <pt x="142" y="1588" on="1"/>
        <pt x="842" y="1588" on="1"/>
        <pt x="842" y="226" on="1"/>
      </contour>
      <contour>
        <pt x="284" y="368" on="1"/>
        <pt x="700" y="368" on="1"/>
        <pt x="700" y="1447" on="1"/>
        <pt x="284" y="1447" on="1"/>
      </contour>
    </TTGlyph>
    <TTGlyph name="afii57514" xMin="142" yMin="226" xMax="842" yMax="1588">
      <contour>
        <pt x="142" y="226" on="1"/>
        <pt x="142" y="1588" on="1"/>
        <pt x="842" y="1588" on="1"/>
        <pt x="842" y="226" on="1"/>
      </contour>
      <contour>
        <pt x="284" y="368" on="1"/>
        <pt x="700" y="368" on="1"/>
        <pt x="700" y="1447" on="1"/>
        <pt x="284" y="1447" on="1"/>
      </contour>
    </TTGlyph>
    <TTGlyph name="afii57519" xMin="142" yMin="226" xMax="842" yMax="1588">
      <contour>
        <pt x="142" y="226" on="1"/>
        <pt x="142" y="1588" on="1"/>
        <pt x="842" y="1588" on="1"/>
        <pt x="842" y="226" on="1"/>
      </contour>
      <contour>
        <pt x="284" y="368" on="1"/>
        <pt x="700" y="368" on="1"/>
        <pt x="700" y="1447" on="1"/>
        <pt x="284" y="1447" on="1"/>
      </contour>
    </TTGlyph>
    <TTGlyph name="afii57534" xMin="142" yMin="226" xMax="842" yMax="1588">
      <contour>
        <pt x="142" y="226" on="1"/>
        <pt x="142" y="1588" on="1"/>
        <pt x="842" y="1588" on="1"/>
        <pt x="842" y="226" on="1"/>
      </contour>
      <contour>
        <pt x="284" y="368" on="1"/>
        <pt x="700" y="368" on="1"/>
        <pt x="700" y="1447" on="1"/>
        <pt x="284" y="1447" on="1"/>
      </contour>
    </TTGlyph>
    <TTGlyph name="afii63167" xMin="142" yMin="226" xMax="842" yMax="1588">
      <contour>
        <pt x="142" y="226" on="1"/>
        <pt x="142" y="1588" on="1"/>
        <pt x="842" y="1588" on="1"/>
        <pt x="842" y="226" on="1"/>
      </contour>
      <contour>
        <pt x="284" y="368" on="1"/>
        <pt x="700" y="368" on="1"/>
        <pt x="700" y="1447" on="1"/>
        <pt x="284" y="1447" on="1"/>
      </contour>
    </TTGlyph>
    <TTGlyph name="alefmaksurainitial" xMin="142" yMin="226" xMax="842" yMax="1588">
      <contour>
        <pt x="142" y="226" on="1"/>
        <pt x="142" y="1588" on="1"/>
        <pt x="842" y="1588" on="1"/>
        <pt x="842" y="226" on="1"/>
      </contour>
      <contour>
        <pt x="284" y="368" on="1"/>
        <pt x="700" y="368" on="1"/>
        <pt x="700" y="1447" on="1"/>
        <pt x="284" y="1447" on="1"/>
      </contour>
    </TTGlyph>
    <TTGlyph name="alefwaslafinalarabic" xMin="142" yMin="226" xMax="842" yMax="1588">
      <contour>
        <pt x="142" y="226" on="1"/>
        <pt x="142" y="1588" on="1"/>
        <pt x="842" y="1588" on="1"/>
        <pt x="842" y="226" on="1"/>
      </contour>
      <contour>
        <pt x="284" y="368" on="1"/>
        <pt x="700" y="368" on="1"/>
        <pt x="700" y="1447" on="1"/>
        <pt x="284" y="1447" on="1"/>
      </contour>
    </TTGlyph>
    <TTGlyph name="ampersand" xMin="142" yMin="226" xMax="842" yMax="1588">
      <contour>
        <pt x="142" y="226" on="1"/>
        <pt x="142" y="1588" on="1"/>
        <pt x="842" y="1588" on="1"/>
        <pt x="842" y="226" on="1"/>
      </contour>
      <contour>
        <pt x="284" y="368" on="1"/>
        <pt x="700" y="368" on="1"/>
        <pt x="700" y="1447" on="1"/>
        <pt x="284" y="1447" on="1"/>
      </contour>
    </TTGlyph>
    <TTGlyph name="asterisk" xMin="142" yMin="226" xMax="842" yMax="1588">
      <contour>
        <pt x="142" y="226" on="1"/>
        <pt x="142" y="1588" on="1"/>
        <pt x="842" y="1588" on="1"/>
        <pt x="842" y="226" on="1"/>
      </contour>
      <contour>
        <pt x="284" y="368" on="1"/>
        <pt x="700" y="368" on="1"/>
        <pt x="700" y="1447" on="1"/>
        <pt x="284" y="1447" on="1"/>
      </contour>
    </TTGlyph>
    <TTGlyph name="behmeemisolatedarabic" xMin="142" yMin="226" xMax="842" yMax="1588">
      <contour>
        <pt x="142" y="226" on="1"/>
        <pt x="142" y="1588" on="1"/>
        <pt x="842" y="1588" on="1"/>
        <pt x="842" y="226" on="1"/>
      </contour>
      <contour>
        <pt x="284" y="368" on="1"/>
        <pt x="700" y="368" on="1"/>
        <pt x="700" y="1447" on="1"/>
        <pt x="284" y="1447" on="1"/>
      </contour>
    </TTGlyph>
    <TTGlyph name="behnoonfinalarabic" xMin="142" yMin="226" xMax="842" yMax="1588">
      <contour>
        <pt x="142" y="226" on="1"/>
        <pt x="142" y="1588" on="1"/>
        <pt x="842" y="1588" on="1"/>
        <pt x="842" y="226" on="1"/>
      </contour>
      <contour>
        <pt x="284" y="368" on="1"/>
        <pt x="700" y="368" on="1"/>
        <pt x="700" y="1447" on="1"/>
        <pt x="284" y="1447" on="1"/>
      </contour>
    </TTGlyph>
    <TTGlyph name="colon" xMin="142" yMin="226" xMax="842" yMax="1588">
      <contour>
        <pt x="142" y="226" on="1"/>
        <pt x="142" y="1588" on="1"/>
        <pt x="842" y="1588" on="1"/>
        <pt x="842" y="226" on="1"/>
      </contour>
      <contour>
        <pt x="284" y="368" on="1"/>
        <pt x="700" y="368" on="1"/>
        <pt x="700" y="1447" on="1"/>
        <pt x="284" y="1447" on="1"/>
      </contour>
    </TTGlyph>
    <TTGlyph name="dagger" xMin="142" yMin="226" xMax="842" yMax="1588">
      <contour>
        <pt x="142" y="226" on="1"/>
        <pt x="142" y="1588" on="1"/>
        <pt x="842" y="1588" on="1"/>
        <pt x="842" y="226" on="1"/>
      </contour>
      <contour>
        <pt x="284" y="368" on="1"/>
        <pt x="700" y="368" on="1"/>
        <pt x="700" y="1447" on="1"/>
        <pt x="284" y="1447" on="1"/>
      </contour>
    </TTGlyph>
    <TTGlyph name="dalringfinal" xMin="142" yMin="226" xMax="842" yMax="1588">
      <contour>
        <pt x="142" y="226" on="1"/>
        <pt x="142" y="1588" on="1"/>
        <pt x="842" y="1588" on="1"/>
        <pt x="842" y="226" on="1"/>
      </contour>
      <contour>
        <pt x="284" y="368" on="1"/>
        <pt x="700" y="368" on="1"/>
        <pt x="700" y="1447" on="1"/>
        <pt x="284" y="1447" on="1"/>
      </contour>
    </TTGlyph>
    <TTGlyph name="ddalfinalarabic" xMin="142" yMin="226" xMax="842" yMax="1588">
      <contour>
        <pt x="142" y="226" on="1"/>
        <pt x="142" y="1588" on="1"/>
        <pt x="842" y="1588" on="1"/>
        <pt x="842" y="226" on="1"/>
      </contour>
      <contour>
        <pt x="284" y="368" on="1"/>
        <pt x="700" y="368" on="1"/>
        <pt x="700" y="1447" on="1"/>
        <pt x="284" y="1447" on="1"/>
      </contour>
    </TTGlyph>
    <TTGlyph name="divide" xMin="142" yMin="226" xMax="842" yMax="1588">
      <contour>
        <pt x="142" y="226" on="1"/>
        <pt x="142" y="1588" on="1"/>
        <pt x="842" y="1588" on="1"/>
        <pt x="842" y="226" on="1"/>
      </contour>
      <contour>
        <pt x="284" y="368" on="1"/>
        <pt x="700" y="368" on="1"/>
        <pt x="700" y="1447" on="1"/>
        <pt x="284" y="1447" on="1"/>
      </contour>
    </TTGlyph>
    <TTGlyph name="dollar" xMin="142" yMin="226" xMax="842" yMax="1588">
      <contour>
        <pt x="142" y="226" on="1"/>
        <pt x="142" y="1588" on="1"/>
        <pt x="842" y="1588" on="1"/>
        <pt x="842" y="226" on="1"/>
      </contour>
      <contour>
        <pt x="284" y="368" on="1"/>
        <pt x="700" y="368" on="1"/>
        <pt x="700" y="1447" on="1"/>
        <pt x="284" y="1447" on="1"/>
      </contour>
    </TTGlyph>
    <TTGlyph name="dotlessyehfinalarabic" xMin="142" yMin="226" xMax="842" yMax="1588">
      <contour>
        <pt x="142" y="226" on="1"/>
        <pt x="142" y="1588" on="1"/>
        <pt x="842" y="1588" on="1"/>
        <pt x="842" y="226" on="1"/>
      </contour>
      <contour>
        <pt x="284" y="368" on="1"/>
        <pt x="700" y="368" on="1"/>
        <pt x="700" y="1447" on="1"/>
        <pt x="284" y="1447" on="1"/>
      </contour>
    </TTGlyph>
    <TTGlyph name="dotlessyehinitialarabic" xMin="142" yMin="226" xMax="842" yMax="1588">
      <contour>
        <pt x="142" y="226" on="1"/>
        <pt x="142" y="1588" on="1"/>
        <pt x="842" y="1588" on="1"/>
        <pt x="842" y="226" on="1"/>
      </contour>
      <contour>
        <pt x="284" y="368" on="1"/>
        <pt x="700" y="368" on="1"/>
        <pt x="700" y="1447" on="1"/>
        <pt x="284" y="1447" on="1"/>
      </contour>
    </TTGlyph>
    <TTGlyph name="dotlessyehmedialarabic" xMin="142" yMin="226" xMax="842" yMax="1588">
      <contour>
        <pt x="142" y="226" on="1"/>
        <pt x="142" y="1588" on="1"/>
        <pt x="842" y="1588" on="1"/>
        <pt x="842" y="226" on="1"/>
      </contour>
      <contour>
        <pt x="284" y="368" on="1"/>
        <pt x="700" y="368" on="1"/>
        <pt x="700" y="1447" on="1"/>
        <pt x="284" y="1447" on="1"/>
      </contour>
    </TTGlyph>
    <TTGlyph name="elefmaksuramedial" xMin="142" yMin="226" xMax="842" yMax="1588">
      <contour>
        <pt x="142" y="226" on="1"/>
        <pt x="142" y="1588" on="1"/>
        <pt x="842" y="1588" on="1"/>
        <pt x="842" y="226" on="1"/>
      </contour>
      <contour>
        <pt x="284" y="368" on="1"/>
        <pt x="700" y="368" on="1"/>
        <pt x="700" y="1447" on="1"/>
        <pt x="284" y="1447" on="1"/>
      </contour>
    </TTGlyph>
    <TTGlyph name="ellipsis" xMin="142" yMin="226" xMax="842" yMax="1588">
      <contour>
        <pt x="142" y="226" on="1"/>
        <pt x="142" y="1588" on="1"/>
        <pt x="842" y="1588" on="1"/>
        <pt x="842" y="226" on="1"/>
      </contour>
      <contour>
        <pt x="284" y="368" on="1"/>
        <pt x="700" y="368" on="1"/>
        <pt x="700" y="1447" on="1"/>
        <pt x="284" y="1447" on="1"/>
      </contour>
    </TTGlyph>
    <TTGlyph name="emdash" xMin="18" yMin="-574" xMax="2066" yMax="1785">
      <contour>
        <pt x="1952" y="1042" on="1"/>
        <pt x="1919" y="1018" on="1"/>
        <pt x="1919" y="1029" on="0"/>
        <pt x="1909" y="1055" on="1"/>
        <pt x="1894" y="1080" on="0"/>
        <pt x="1778" y="1203" on="0"/>
        <pt x="1765" y="1226" on="1"/>
        <pt x="1702" y="1335" on="0"/>
        <pt x="1696" y="1449" on="1"/>
        <pt x="1628" y="1431" on="0"/>
        <pt x="1628" y="1248" on="1"/>
        <pt x="1628" y="1160" on="0"/>
        <pt x="1644" y="1110" on="1"/>
        <pt x="1624" y="1131" on="0"/>
        <pt x="1603" y="1153" on="1"/>
        <pt x="1596" y="1201" on="0"/>
        <pt x="1596" y="1248" on="1"/>
        <pt x="1596" y="1351" on="0"/>
        <pt x="1663" y="1502" on="0"/>
        <pt x="1721" y="1523" on="1"/>
        <pt x="1724" y="1372" on="0"/>
        <pt x="1795" y="1254" on="1"/>
        <pt x="1808" y="1230" on="0"/>
        <pt x="1876" y="1158" on="1"/>
        <pt x="1935" y="1094" on="0"/>
        <pt x="1946" y="1063" on="1"/>
        <pt x="1952" y="1033" on="0"/>
      </contour>
      <contour>
        <pt x="1772" y="576" on="1"/>
        <pt x="1772" y="202" on="0"/>
        <pt x="1344" y="-330" on="0"/>
        <pt x="1042" y="-330" on="1"/>
        <pt x="741" y="-330" on="0"/>
        <pt x="312" y="202" on="0"/>
        <pt x="312" y="576" on="1"/>
        <pt x="312" y="939" on="0"/>
        <pt x="518" y="1202" on="1"/>
        <pt x="691" y="1423" on="0"/>
        <pt x="891" y="1461" on="1"/>
        <pt x="933" y="1469" on="0"/>
        <pt x="968" y="1505" on="1"/>
        <pt x="1008" y="1547" on="0"/>
        <pt x="1008" y="1602" on="1"/>
        <pt x="1008" y="1662" on="0"/>
        <pt x="939" y="1748" on="0"/>
        <pt x="891" y="1748" on="1"/>
        <pt x="843" y="1748" on="0"/>
        <pt x="772" y="1662" on="0"/>
        <pt x="772" y="1602" on="1"/>
        <pt x="772" y="1534" on="0"/>
        <pt x="817" y="1488" on="1"/>
        <pt x="726" y="1475" on="0"/>
        <pt x="616" y="1418" on="1"/>
        <pt x="541" y="1380" on="0"/>
        <pt x="487" y="1315" on="1"/>
        <pt x="450" y="1321" on="1"/>
        <pt x="501" y="1394" on="0"/>
        <pt x="611" y="1457" on="1"/>
        <pt x="665" y="1487" on="0"/>
        <pt x="766" y="1512" on="1"/>
        <pt x="742" y="1556" on="0"/>
        <pt x="742" y="1614" on="1"/>
        <pt x="742" y="1688" on="0"/>
        <pt x="789" y="1738" on="1"/>
        <pt x="833" y="1785" on="0"/>
        <pt x="891" y="1785" on="1"/>
        <pt x="950" y="1785" on="0"/>
        <pt x="995" y="1736" on="1"/>
        <pt x="1042" y="1684" on="0"/>
        <pt x="1042" y="1610" on="1"/>
        <pt x="1042" y="1531" on="0"/>
        <pt x="994" y="1479" on="1"/>
        <pt x="1011" y="1481" on="0"/>
        <pt x="1042" y="1481" on="1"/>
        <pt x="1074" y="1481" on="0"/>
        <pt x="1091" y="1479" on="1"/>
        <pt x="1042" y="1531" on="0"/>
        <pt x="1042" y="1610" on="1"/>
        <pt x="1042" y="1684" on="0"/>
        <pt x="1089" y="1736" on="1"/>
        <pt x="1133" y="1785" on="0"/>
        <pt x="1193" y="1785" on="1"/>
        <pt x="1251" y="1785" on="0"/>
        <pt x="1296" y="1738" on="1"/>
        <pt x="1344" y="1689" on="0"/>
        <pt x="1344" y="1614" on="1"/>
        <pt x="1344" y="1556" on="0"/>
        <pt x="1320" y="1512" on="1"/>
        <pt x="1417" y="1488" on="0"/>
        <pt x="1472" y="1457" on="1"/>
        <pt x="1581" y="1396" on="0"/>
        <pt x="1635" y="1321" on="1"/>
        <pt x="1599" y="1315" on="1"/>
        <pt x="1540" y="1382" on="0"/>
        <pt x="1468" y="1418" on="1"/>
        <pt x="1355" y="1476" on="0"/>
        <pt x="1267" y="1488" on="1"/>
        <pt x="1311" y="1532" on="0"/>
        <pt x="1311" y="1602" on="1"/>
        <pt x="1311" y="1662" on="0"/>
        <pt x="1242" y="1748" on="0"/>
        <pt x="1193" y="1748" on="1"/>
        <pt x="1146" y="1748" on="0"/>
        <pt x="1077" y="1662" on="0"/>
        <pt x="1077" y="1602" on="1"/>
        <pt x="1077" y="1547" on="0"/>
        <pt x="1117" y="1505" on="1"/>
        <pt x="1151" y="1469" on="0"/>
        <pt x="1193" y="1461" on="1"/>
        <pt x="1395" y="1423" on="0"/>
        <pt x="1567" y="1202" on="1"/>
        <pt x="1772" y="940" on="0"/>
      </contour>
      <contour>
        <pt x="483" y="1153" on="1"/>
        <pt x="438" y="1105" on="0"/>
        <pt x="439" y="1110" on="1"/>
        <pt x="456" y="1161" on="0"/>
        <pt x="456" y="1249" on="1"/>
        <pt x="456" y="1431" on="0"/>
        <pt x="389" y="1449" on="1"/>
        <pt x="383" y="1333" on="0"/>
        <pt x="321" y="1226" on="1"/>
        <pt x="308" y="1203" on="0"/>
        <pt x="191" y="1081" on="0"/>
        <pt x="176" y="1055" on="1"/>
        <pt x="165" y="1029" on="0"/>
        <pt x="165" y="1018" on="1"/>
        <pt x="134" y="1042" on="1"/>
        <pt x="134" y="1053" on="0"/>
        <pt x="140" y="1063" on="1"/>
        <pt x="151" y="1094" on="0"/>
        <pt x="210" y="1158" on="1"/>
        <pt x="277" y="1230" on="0"/>
        <pt x="291" y="1254" on="1"/>
        <pt x="359" y="1368" on="0"/>
        <pt x="364" y="1523" on="1"/>
        <pt x="421" y="1502" on="0"/>
        <pt x="491" y="1350" on="0"/>
        <pt x="491" y="1247" on="1"/>
        <pt x="491" y="1200" on="0"/>
      </contour>
      <contour>
        <pt x="2066" y="1105" on="1"/>
        <pt x="2011" y="1004" on="0"/>
        <pt x="2017" y="819" on="1"/>
        <pt x="2019" y="784" on="0"/>
        <pt x="2055" y="637" on="0"/>
        <pt x="2056" y="605" on="1"/>
        <pt x="2057" y="569" on="0"/>
        <pt x="2006" y="496" on="0"/>
        <pt x="1980" y="496" on="1"/>
        <pt x="1941" y="496" on="0"/>
        <pt x="1924" y="520" on="1"/>
        <pt x="1924" y="67" on="0"/>
        <pt x="1408" y="-574" on="0"/>
        <pt x="1042" y="-574" on="1"/>
        <pt x="677" y="-574" on="0"/>
        <pt x="160" y="67" on="0"/>
        <pt x="160" y="520" on="1"/>
        <pt x="144" y="496" on="0"/>
        <pt x="106" y="496" on="1"/>
        <pt x="79" y="496" on="0"/>
        <pt x="27" y="569" on="0"/>
        <pt x="28" y="605" on="1"/>
        <pt x="30" y="637" on="0"/>
        <pt x="66" y="785" on="0"/>
        <pt x="67" y="819" on="1"/>
        <pt x="74" y="1004" on="0"/>
        <pt x="18" y="1105" on="1"/>
        <pt x="179" y="1092" on="0"/>
        <pt x="228" y="945" on="1"/>
        <pt x="224" y="822" on="1"/>
        <pt x="220" y="895" on="0"/>
        <pt x="185" y="962" on="1"/>
        <pt x="140" y="1046" on="0"/>
        <pt x="70" y="1049" on="1"/>
        <pt x="101" y="992" on="0"/>
        <pt x="101" y="819" on="1"/>
        <pt x="101" y="787" on="0"/>
        <pt x="85" y="718" on="1"/>
        <pt x="67" y="646" on="0"/>
        <pt x="65" y="618" on="1"/>
        <pt x="63" y="542" on="0"/>
        <pt x="122" y="542" on="1"/>
        <pt x="153" y="542" on="0"/>
        <pt x="181" y="594" on="1"/>
        <pt x="189" y="609" on="0"/>
        <pt x="198" y="623" on="1"/>
        <pt x="193" y="561" on="0"/>
        <pt x="193" y="520" on="1"/>
        <pt x="193" y="91" on="0"/>
        <pt x="694" y="-521" on="0"/>
        <pt x="1042" y="-521" on="1"/>
        <pt x="1391" y="-521" on="0"/>
        <pt x="1892" y="91" on="0"/>
        <pt x="1892" y="520" on="1"/>
        <pt x="1892" y="561" on="0"/>
        <pt x="1887" y="623" on="1"/>
        <pt x="1897" y="609" on="0"/>
        <pt x="1906" y="595" on="1"/>
        <pt x="1932" y="542" on="0"/>
        <pt x="1962" y="542" on="1"/>
        <pt x="2023" y="542" on="0"/>
        <pt x="2020" y="618" on="1"/>
        <pt x="2019" y="646" on="0"/>
        <pt x="2001" y="718" on="1"/>
        <pt x="1982" y="787" on="0"/>
        <pt x="1982" y="819" on="1"/>
        <pt x="1982" y="990" on="0"/>
        <pt x="2015" y="1049" on="1"/>
        <pt x="1946" y="1046" on="0"/>
        <pt x="1900" y="962" on="1"/>
        <pt x="1864" y="895" on="0"/>
        <pt x="1860" y="822" on="1"/>
        <pt x="1858" y="945" on="1"/>
        <pt x="1907" y="1092" on="0"/>
      </contour>
      <contour>
        <pt x="1735" y="576" on="1"/>
        <pt x="1735" y="930" on="0"/>
        <pt x="1542" y="1173" on="1"/>
        <pt x="1391" y="1362" on="0"/>
        <pt x="1197" y="1418" on="1"/>
        <pt x="1132" y="1437" on="0"/>
        <pt x="1042" y="1437" on="1"/>
        <pt x="953" y="1437" on="0"/>
        <pt x="889" y="1418" on="1"/>
        <pt x="693" y="1362" on="0"/>
        <pt x="543" y="1173" on="1"/>
        <pt x="350" y="931" on="0"/>
        <pt x="350" y="576" on="1"/>
        <pt x="350" y="218" on="0"/>
        <pt x="754" y="-285" on="0"/>
        <pt x="1042" y="-285" on="1"/>
        <pt x="1331" y="-285" on="0"/>
        <pt x="1735" y="218" on="0"/>
      </contour>
      <contour>
        <pt x="1377" y="792" on="1"/>
        <pt x="1377" y="765" on="0"/>
        <pt x="1352" y="698" on="1"/>
        <pt x="1325" y="626" on="0"/>
        <pt x="1308" y="621" on="1"/>
        <pt x="1275" y="616" on="0"/>
        <pt x="1209" y="605" on="1"/>
        <pt x="1193" y="601" on="0"/>
        <pt x="1172" y="570" on="1"/>
        <pt x="1172" y="528" on="0"/>
        <pt x="1180" y="437" on="1"/>
        <pt x="1187" y="342" on="0"/>
        <pt x="1187" y="338" on="1"/>
        <pt x="1187" y="291" on="0"/>
        <pt x="1185" y="200" on="1"/>
        <pt x="1139" y="200" on="1"/>
        <pt x="1133" y="225" on="0"/>
        <pt x="1094" y="428" on="1"/>
        <pt x="1089" y="448" on="0"/>
        <pt x="1037" y="582" on="1"/>
        <pt x="990" y="704" on="0"/>
        <pt x="990" y="746" on="1"/>
        <pt x="990" y="813" on="0"/>
        <pt x="1027" y="844" on="1"/>
        <pt x="1030" y="841" on="0"/>
        <pt x="1085" y="781" on="1"/>
        <pt x="1122" y="741" on="0"/>
        <pt x="1134" y="741" on="1"/>
        <pt x="1165" y="741" on="0"/>
        <pt x="1177" y="768" on="1"/>
        <pt x="1184" y="793" on="0"/>
        <pt x="1191" y="818" on="1"/>
        <pt x="1204" y="826" on="0"/>
        <pt x="1225" y="844" on="1"/>
        <pt x="1263" y="772" on="0"/>
        <pt x="1282" y="772" on="1"/>
        <pt x="1300" y="772" on="0"/>
        <pt x="1339" y="843" on="1"/>
        <pt x="1377" y="817" on="0"/>
      </contour>
      <contour>
        <pt x="957" y="291" on="1"/>
        <pt x="957" y="280" on="0"/>
        <pt x="947" y="227" on="0"/>
        <pt x="947" y="211" on="1"/>
        <pt x="945" y="211" on="0"/>
        <pt x="932" y="198" on="0"/>
        <pt x="920" y="198" on="1"/>
        <pt x="879" y="198" on="0"/>
        <pt x="850" y="342" on="1"/>
        <pt x="837" y="419" on="0"/>
        <pt x="823" y="496" on="1"/>
        <pt x="771" y="516" on="0"/>
        <pt x="718" y="536" on="1"/>
        <pt x="660" y="560" on="0"/>
        <pt x="660" y="639" on="1"/>
        <pt x="660" y="679" on="0"/>
        <pt x="694" y="768" on="1"/>
        <pt x="734" y="874" on="0"/>
        <pt x="776" y="874" on="1"/>
        <pt x="813" y="874" on="0"/>
        <pt x="842" y="835" on="1"/>
        <pt x="871" y="799" on="0"/>
        <pt x="879" y="747" on="1"/>
        <pt x="887" y="649" on="0"/>
        <pt x="910" y="460" on="1"/>
        <pt x="913" y="437" on="0"/>
        <pt x="936" y="366" on="1"/>
        <pt x="957" y="302" on="0"/>
      </contour>
      <contour>
        <pt x="782" y="671" on="1"/>
        <pt x="782" y="709" on="0"/>
        <pt x="773" y="720" on="1"/>
        <pt x="767" y="720" on="0"/>
        <pt x="743" y="690" on="0"/>
        <pt x="743" y="682" on="1"/>
      </contour>
    </TTGlyph>
    <TTGlyph name="endash" xMin="18" yMin="-574" xMax="1042" yMax="1785">
      <contour>
        <pt x="985" y="1042" on="1"/>
        <pt x="969" y="1018" on="1"/>
        <pt x="969" y="1029" on="0"/>
        <pt x="964" y="1055" on="1"/>
        <pt x="956" y="1080" on="0"/>
        <pt x="898" y="1203" on="0"/>
        <pt x="891" y="1226" on="1"/>
        <pt x="860" y="1335" on="0"/>
        <pt x="857" y="1449" on="1"/>
        <pt x="823" y="1431" on="0"/>
        <pt x="823" y="1248" on="1"/>
        <pt x="823" y="1160" on="0"/>
        <pt x="831" y="1110" on="1"/>
        <pt x="821" y="1131" on="0"/>
        <pt x="811" y="1153" on="1"/>
        <pt x="807" y="1201" on="0"/>
        <pt x="807" y="1248" on="1"/>
        <pt x="807" y="1351" on="0"/>
        <pt x="841" y="1502" on="0"/>
        <pt x="870" y="1523" on="1"/>
        <pt x="871" y="1372" on="0"/>
        <pt x="906" y="1254" on="1"/>
        <pt x="913" y="1230" on="0"/>
        <pt x="947" y="1158" on="1"/>
        <pt x="976" y="1094" on="0"/>
        <pt x="982" y="1063" on="1"/>
        <pt x="985" y="1033" on="0"/>
      </contour>
      <contour>
        <pt x="895" y="576" on="1"/>
        <pt x="895" y="202" on="0"/>
        <pt x="681" y="-330" on="0"/>
        <pt x="530" y="-330" on="1"/>
        <pt x="379" y="-330" on="0"/>
        <pt x="165" y="202" on="0"/>
        <pt x="165" y="576" on="1"/>
        <pt x="165" y="939" on="0"/>
        <pt x="268" y="1202" on="1"/>
        <pt x="355" y="1423" on="0"/>
        <pt x="454" y="1461" on="1"/>
        <pt x="476" y="1469" on="0"/>
        <pt x="493" y="1505" on="1"/>
        <pt x="513" y="1547" on="0"/>
        <pt x="513" y="1602" on="1"/>
        <pt x="513" y="1662" on="0"/>
        <pt x="478" y="1748" on="0"/>
        <pt x="454" y="1748" on="1"/>
        <pt x="431" y="1748" on="0"/>
        <pt x="395" y="1662" on="0"/>
        <pt x="395" y="1602" on="1"/>
        <pt x="395" y="1534" on="0"/>
        <pt x="417" y="1488" on="1"/>
        <pt x="372" y="1475" on="0"/>
        <pt x="317" y="1418" on="1"/>
        <pt x="280" y="1380" on="0"/>
        <pt x="252" y="1315" on="1"/>
        <pt x="234" y="1321" on="1"/>
        <pt x="260" y="1394" on="0"/>
        <pt x="315" y="1457" on="1"/>
        <pt x="342" y="1487" on="0"/>
        <pt x="392" y="1512" on="1"/>
        <pt x="380" y="1556" on="0"/>
        <pt x="380" y="1614" on="1"/>
        <pt x="380" y="1688" on="0"/>
        <pt x="404" y="1738" on="1"/>
        <pt x="426" y="1785" on="0"/>
        <pt x="454" y="1785" on="1"/>
        <pt x="484" y="1785" on="0"/>
        <pt x="507" y="1736" on="1"/>
        <pt x="530" y="1684" on="0"/>
        <pt x="530" y="1610" on="1"/>
        <pt x="530" y="1531" on="0"/>
        <pt x="506" y="1479" on="1"/>
        <pt x="515" y="1481" on="0"/>
        <pt x="530" y="1481" on="1"/>
        <pt x="546" y="1481" on="0"/>
        <pt x="555" y="1479" on="1"/>
        <pt x="530" y="1531" on="0"/>
        <pt x="530" y="1610" on="1"/>
        <pt x="530" y="1684" on="0"/>
        <pt x="553" y="1736" on="1"/>
        <pt x="575" y="1785" on="0"/>
        <pt x="606" y="1785" on="1"/>
        <pt x="635" y="1785" on="0"/>
        <pt x="657" y="1738" on="1"/>
        <pt x="681" y="1689" on="0"/>
        <pt x="681" y="1614" on="1"/>
        <pt x="681" y="1556" on="0"/>
        <pt x="669" y="1512" on="1"/>
        <pt x="718" y="1488" on="0"/>
        <pt x="745" y="1457" on="1"/>
        <pt x="800" y="1396" on="0"/>
        <pt x="826" y="1321" on="1"/>
        <pt x="809" y="1315" on="1"/>
        <pt x="779" y="1382" on="0"/>
        <pt x="743" y="1418" on="1"/>
        <pt x="687" y="1476" on="0"/>
        <pt x="643" y="1488" on="1"/>
        <pt x="664" y="1532" on="0"/>
        <pt x="664" y="1602" on="1"/>
        <pt x="664" y="1662" on="0"/>
        <pt x="630" y="1748" on="0"/>
        <pt x="606" y="1748" on="1"/>
        <pt x="582" y="1748" on="0"/>
        <pt x="547" y="1662" on="0"/>
        <pt x="547" y="1602" on="1"/>
        <pt x="547" y="1547" on="0"/>
        <pt x="567" y="1505" on="1"/>
        <pt x="584" y="1469" on="0"/>
        <pt x="606" y="1461" on="1"/>
        <pt x="706" y="1423" on="0"/>
        <pt x="792" y="1202" on="1"/>
        <pt x="895" y="940" on="0"/>
      </contour>
      <contour>
        <pt x="251" y="1153" on="1"/>
        <pt x="228" y="1105" on="0"/>
        <pt x="229" y="1110" on="1"/>
        <pt x="237" y="1161" on="0"/>
        <pt x="237" y="1249" on="1"/>
        <pt x="237" y="1431" on="0"/>
        <pt x="204" y="1449" on="1"/>
        <pt x="201" y="1333" on="0"/>
        <pt x="169" y="1226" on="1"/>
        <pt x="163" y="1203" on="0"/>
        <pt x="105" y="1081" on="0"/>
        <pt x="97" y="1055" on="1"/>
        <pt x="92" y="1029" on="0"/>
        <pt x="92" y="1018" on="1"/>
        <pt x="76" y="1042" on="1"/>
        <pt x="76" y="1053" on="0"/>
        <pt x="79" y="1063" on="1"/>
        <pt x="84" y="1094" on="0"/>
        <pt x="114" y="1158" on="1"/>
        <pt x="148" y="1230" on="0"/>
        <pt x="154" y="1254" on="1"/>
        <pt x="189" y="1368" on="0"/>
        <pt x="191" y="1523" on="1"/>
        <pt x="220" y="1502" on="0"/>
        <pt x="254" y="1350" on="0"/>
        <pt x="254" y="1247" on="1"/>
        <pt x="254" y="1200" on="0"/>
      </contour>
      <contour>
        <pt x="1042" y="1105" on="1"/>
        <pt x="1015" y="1004" on="0"/>
        <pt x="1017" y="819" on="1"/>
        <pt x="1018" y="784" on="0"/>
        <pt x="1036" y="637" on="0"/>
        <pt x="1037" y="605" on="1"/>
        <pt x="1038" y="569" on="0"/>
        <pt x="1012" y="496" on="0"/>
        <pt x="999" y="496" on="1"/>
        <pt x="980" y="496" on="0"/>
        <pt x="971" y="520" on="1"/>
        <pt x="971" y="67" on="0"/>
        <pt x="713" y="-574" on="0"/>
        <pt x="530" y="-574" on="1"/>
        <pt x="347" y="-574" on="0"/>
        <pt x="89" y="67" on="0"/>
        <pt x="89" y="520" on="1"/>
        <pt x="81" y="496" on="0"/>
        <pt x="62" y="496" on="1"/>
        <pt x="49" y="496" on="0"/>
        <pt x="22" y="569" on="0"/>
        <pt x="23" y="605" on="1"/>
        <pt x="24" y="637" on="0"/>
        <pt x="42" y="785" on="0"/>
        <pt x="43" y="819" on="1"/>
        <pt x="46" y="1004" on="0"/>
        <pt x="18" y="1105" on="1"/>
        <pt x="99" y="1092" on="0"/>
        <pt x="123" y="945" on="1"/>
        <pt x="121" y="822" on="1"/>
        <pt x="119" y="895" on="0"/>
        <pt x="101" y="962" on="1"/>
        <pt x="79" y="1046" on="0"/>
        <pt x="44" y="1049" on="1"/>
        <pt x="59" y="992" on="0"/>
        <pt x="59" y="819" on="1"/>
        <pt x="59" y="787" on="0"/>
        <pt x="51" y="718" on="1"/>
        <pt x="43" y="646" on="0"/>
        <pt x="42" y="618" on="1"/>
        <pt x="41" y="542" on="0"/>
        <pt x="70" y="542" on="1"/>
        <pt x="86" y="542" on="0"/>
        <pt x="99" y="594" on="1"/>
        <pt x="103" y="609" on="0"/>
        <pt x="108" y="623" on="1"/>
        <pt x="106" y="561" on="0"/>
        <pt x="106" y="520" on="1"/>
        <pt x="106" y="91" on="0"/>
        <pt x="356" y="-521" on="0"/>
        <pt x="530" y="-521" on="1"/>
        <pt x="704" y="-521" on="0"/>
        <pt x="955" y="91" on="0"/>
        <pt x="955" y="520" on="1"/>
        <pt x="955" y="561" on="0"/>
        <pt x="953" y="623" on="1"/>
        <pt x="957" y="609" on="0"/>
        <pt x="962" y="595" on="1"/>
        <pt x="975" y="542" on="0"/>
        <pt x="990" y="542" on="1"/>
        <pt x="1021" y="542" on="0"/>
        <pt x="1019" y="618" on="1"/>
        <pt x="1018" y="646" on="0"/>
        <pt x="1009" y="718" on="1"/>
        <pt x="1000" y="787" on="0"/>
        <pt x="1000" y="819" on="1"/>
        <pt x="1000" y="990" on="0"/>
        <pt x="1017" y="1049" on="1"/>
        <pt x="982" y="1046" on="0"/>
        <pt x="959" y="962" on="1"/>
        <pt x="941" y="895" on="0"/>
        <pt x="939" y="822" on="1"/>
        <pt x="938" y="945" on="1"/>
        <pt x="962" y="1092" on="0"/>
      </contour>
      <contour>
        <pt x="877" y="576" on="1"/>
        <pt x="877" y="930" on="0"/>
        <pt x="780" y="1173" on="1"/>
        <pt x="705" y="1362" on="0"/>
        <pt x="607" y="1418" on="1"/>
        <pt x="575" y="1437" on="0"/>
        <pt x="530" y="1437" on="1"/>
        <pt x="486" y="1437" on="0"/>
        <pt x="454" y="1418" on="1"/>
        <pt x="356" y="1362" on="0"/>
        <pt x="280" y="1173" on="1"/>
        <pt x="184" y="931" on="0"/>
        <pt x="184" y="576" on="1"/>
        <pt x="184" y="218" on="0"/>
        <pt x="386" y="-285" on="0"/>
        <pt x="530" y="-285" on="1"/>
        <pt x="675" y="-285" on="0"/>
        <pt x="877" y="218" on="0"/>
      </contour>
      <contour>
        <pt x="697" y="792" on="1"/>
        <pt x="697" y="765" on="0"/>
        <pt x="685" y="698" on="1"/>
        <pt x="672" y="626" on="0"/>
        <pt x="663" y="621" on="1"/>
        <pt x="646" y="616" on="0"/>
        <pt x="613" y="605" on="1"/>
        <pt x="606" y="601" on="0"/>
        <pt x="595" y="570" on="1"/>
        <pt x="595" y="528" on="0"/>
        <pt x="599" y="437" on="1"/>
        <pt x="602" y="342" on="0"/>
        <pt x="602" y="338" on="1"/>
        <pt x="602" y="291" on="0"/>
        <pt x="602" y="200" on="1"/>
        <pt x="579" y="200" on="1"/>
        <pt x="575" y="225" on="0"/>
        <pt x="556" y="428" on="1"/>
        <pt x="554" y="448" on="0"/>
        <pt x="528" y="582" on="1"/>
        <pt x="504" y="704" on="0"/>
        <pt x="504" y="746" on="1"/>
        <pt x="504" y="813" on="0"/>
        <pt x="522" y="844" on="1"/>
        <pt x="524" y="841" on="0"/>
        <pt x="551" y="781" on="1"/>
        <pt x="570" y="741" on="0"/>
        <pt x="576" y="741" on="1"/>
        <pt x="592" y="741" on="0"/>
        <pt x="598" y="768" on="1"/>
        <pt x="601" y="793" on="0"/>
        <pt x="604" y="818" on="1"/>
        <pt x="611" y="826" on="0"/>
        <pt x="621" y="844" on="1"/>
        <pt x="641" y="772" on="0"/>
        <pt x="650" y="772" on="1"/>
        <pt x="659" y="772" on="0"/>
        <pt x="679" y="843" on="1"/>
        <pt x="697" y="817" on="0"/>
      </contour>
      <contour>
        <pt x="488" y="291" on="1"/>
        <pt x="488" y="280" on="0"/>
        <pt x="483" y="227" on="0"/>
        <pt x="483" y="211" on="1"/>
        <pt x="481" y="211" on="0"/>
        <pt x="475" y="198" on="0"/>
        <pt x="469" y="198" on="1"/>
        <pt x="448" y="198" on="0"/>
        <pt x="434" y="342" on="1"/>
        <pt x="427" y="419" on="0"/>
        <pt x="421" y="496" on="1"/>
        <pt x="394" y="516" on="0"/>
        <pt x="368" y="536" on="1"/>
        <pt x="339" y="560" on="0"/>
        <pt x="339" y="639" on="1"/>
        <pt x="339" y="679" on="0"/>
        <pt x="356" y="768" on="1"/>
        <pt x="376" y="874" on="0"/>
        <pt x="397" y="874" on="1"/>
        <pt x="415" y="874" on="0"/>
        <pt x="430" y="835" on="1"/>
        <pt x="444" y="799" on="0"/>
        <pt x="449" y="747" on="1"/>
        <pt x="453" y="649" on="0"/>
        <pt x="464" y="460" on="1"/>
        <pt x="466" y="437" on="0"/>
        <pt x="477" y="366" on="1"/>
        <pt x="488" y="302" on="0"/>
      </contour>
      <contour>
        <pt x="400" y="671" on="1"/>
        <pt x="400" y="709" on="0"/>
        <pt x="396" y="720" on="1"/>
        <pt x="392" y="720" on="0"/>
        <pt x="381" y="690" on="0"/>
        <pt x="381" y="682" on="1"/>
      </contour>
    </TTGlyph>
    <TTGlyph name="equal" xMin="142" yMin="226" xMax="842" yMax="1588">
      <contour>
        <pt x="142" y="226" on="1"/>
        <pt x="142" y="1588" on="1"/>
        <pt x="842" y="1588" on="1"/>
        <pt x="842" y="226" on="1"/>
      </contour>
      <contour>
        <pt x="284" y="368" on="1"/>
        <pt x="700" y="368" on="1"/>
        <pt x="700" y="1447" on="1"/>
        <pt x="284" y="1447" on="1"/>
      </contour>
    </TTGlyph>
    <TTGlyph name="exclam" xMin="142" yMin="226" xMax="842" yMax="1588">
      <contour>
        <pt x="142" y="226" on="1"/>
        <pt x="142" y="1588" on="1"/>
        <pt x="842" y="1588" on="1"/>
        <pt x="842" y="226" on="1"/>
      </contour>
      <contour>
        <pt x="284" y="368" on="1"/>
        <pt x="700" y="368" on="1"/>
        <pt x="700" y="1447" on="1"/>
        <pt x="284" y="1447" on="1"/>
      </contour>
    </TTGlyph>
    <TTGlyph name="figuredash" xMin="18" yMin="-574" xMax="2562" yMax="1785">
      <contour>
        <pt x="2420" y="1042" on="1"/>
        <pt x="2380" y="1018" on="1"/>
        <pt x="2380" y="1029" on="0"/>
        <pt x="2367" y="1055" on="1"/>
        <pt x="2348" y="1080" on="0"/>
        <pt x="2204" y="1203" on="0"/>
        <pt x="2188" y="1226" on="1"/>
        <pt x="2110" y="1335" on="0"/>
        <pt x="2103" y="1449" on="1"/>
        <pt x="2018" y="1431" on="0"/>
        <pt x="2018" y="1248" on="1"/>
        <pt x="2018" y="1160" on="0"/>
        <pt x="2038" y="1110" on="1"/>
        <pt x="2013" y="1131" on="0"/>
        <pt x="1987" y="1153" on="1"/>
        <pt x="1978" y="1201" on="0"/>
        <pt x="1978" y="1248" on="1"/>
        <pt x="1978" y="1351" on="0"/>
        <pt x="2062" y="1502" on="0"/>
        <pt x="2134" y="1523" on="1"/>
        <pt x="2137" y="1372" on="0"/>
        <pt x="2225" y="1254" on="1"/>
        <pt x="2242" y="1230" on="0"/>
        <pt x="2326" y="1158" on="1"/>
        <pt x="2399" y="1094" on="0"/>
        <pt x="2413" y="1063" on="1"/>
        <pt x="2420" y="1033" on="0"/>
      </contour>
      <contour>
        <pt x="2197" y="576" on="1"/>
        <pt x="2197" y="202" on="0"/>
        <pt x="1665" y="-330" on="0"/>
        <pt x="1290" y="-330" on="1"/>
        <pt x="916" y="-330" on="0"/>
        <pt x="383" y="202" on="0"/>
        <pt x="383" y="576" on="1"/>
        <pt x="383" y="939" on="0"/>
        <pt x="639" y="1202" on="1"/>
        <pt x="854" y="1423" on="0"/>
        <pt x="1102" y="1461" on="1"/>
        <pt x="1155" y="1469" on="0"/>
        <pt x="1198" y="1505" on="1"/>
        <pt x="1248" y="1547" on="0"/>
        <pt x="1248" y="1602" on="1"/>
        <pt x="1248" y="1662" on="0"/>
        <pt x="1162" y="1748" on="0"/>
        <pt x="1102" y="1748" on="1"/>
        <pt x="1043" y="1748" on="0"/>
        <pt x="954" y="1662" on="0"/>
        <pt x="954" y="1602" on="1"/>
        <pt x="954" y="1534" on="0"/>
        <pt x="1010" y="1488" on="1"/>
        <pt x="898" y="1475" on="0"/>
        <pt x="761" y="1418" on="1"/>
        <pt x="668" y="1380" on="0"/>
        <pt x="600" y="1315" on="1"/>
        <pt x="555" y="1321" on="1"/>
        <pt x="618" y="1394" on="0"/>
        <pt x="755" y="1457" on="1"/>
        <pt x="822" y="1487" on="0"/>
        <pt x="947" y="1512" on="1"/>
        <pt x="917" y="1556" on="0"/>
        <pt x="917" y="1614" on="1"/>
        <pt x="917" y="1688" on="0"/>
        <pt x="976" y="1738" on="1"/>
        <pt x="1031" y="1785" on="0"/>
        <pt x="1102" y="1785" on="1"/>
        <pt x="1176" y="1785" on="0"/>
        <pt x="1232" y="1736" on="1"/>
        <pt x="1290" y="1684" on="0"/>
        <pt x="1290" y="1610" on="1"/>
        <pt x="1290" y="1531" on="0"/>
        <pt x="1230" y="1479" on="1"/>
        <pt x="1252" y="1481" on="0"/>
        <pt x="1290" y="1481" on="1"/>
        <pt x="1330" y="1481" on="0"/>
        <pt x="1351" y="1479" on="1"/>
        <pt x="1290" y="1531" on="0"/>
        <pt x="1290" y="1610" on="1"/>
        <pt x="1290" y="1684" on="0"/>
        <pt x="1348" y="1736" on="1"/>
        <pt x="1403" y="1785" on="0"/>
        <pt x="1478" y="1785" on="1"/>
        <pt x="1550" y="1785" on="0"/>
        <pt x="1605" y="1738" on="1"/>
        <pt x="1665" y="1689" on="0"/>
        <pt x="1665" y="1614" on="1"/>
        <pt x="1665" y="1556" on="0"/>
        <pt x="1635" y="1512" on="1"/>
        <pt x="1756" y="1488" on="0"/>
        <pt x="1824" y="1457" on="1"/>
        <pt x="1960" y="1396" on="0"/>
        <pt x="2026" y="1321" on="1"/>
        <pt x="1982" y="1315" on="1"/>
        <pt x="1908" y="1382" on="0"/>
        <pt x="1819" y="1418" on="1"/>
        <pt x="1679" y="1476" on="0"/>
        <pt x="1570" y="1488" on="1"/>
        <pt x="1624" y="1532" on="0"/>
        <pt x="1624" y="1602" on="1"/>
        <pt x="1624" y="1662" on="0"/>
        <pt x="1538" y="1748" on="0"/>
        <pt x="1478" y="1748" on="1"/>
        <pt x="1419" y="1748" on="0"/>
        <pt x="1333" y="1662" on="0"/>
        <pt x="1333" y="1602" on="1"/>
        <pt x="1333" y="1547" on="0"/>
        <pt x="1383" y="1505" on="1"/>
        <pt x="1425" y="1469" on="0"/>
        <pt x="1478" y="1461" on="1"/>
        <pt x="1728" y="1423" on="0"/>
        <pt x="1942" y="1202" on="1"/>
        <pt x="2197" y="940" on="0"/>
      </contour>
      <contour>
        <pt x="596" y="1153" on="1"/>
        <pt x="540" y="1105" on="0"/>
        <pt x="541" y="1110" on="1"/>
        <pt x="562" y="1161" on="0"/>
        <pt x="562" y="1249" on="1"/>
        <pt x="562" y="1431" on="0"/>
        <pt x="479" y="1449" on="1"/>
        <pt x="472" y="1333" on="0"/>
        <pt x="394" y="1226" on="1"/>
        <pt x="378" y="1203" on="0"/>
        <pt x="233" y="1081" on="0"/>
        <pt x="214" y="1055" on="1"/>
        <pt x="201" y="1029" on="0"/>
        <pt x="201" y="1018" on="1"/>
        <pt x="162" y="1042" on="1"/>
        <pt x="162" y="1053" on="0"/>
        <pt x="170" y="1063" on="1"/>
        <pt x="183" y="1094" on="0"/>
        <pt x="256" y="1158" on="1"/>
        <pt x="340" y="1230" on="0"/>
        <pt x="357" y="1254" on="1"/>
        <pt x="442" y="1368" on="0"/>
        <pt x="448" y="1523" on="1"/>
        <pt x="519" y="1502" on="0"/>
        <pt x="605" y="1350" on="0"/>
        <pt x="605" y="1247" on="1"/>
        <pt x="605" y="1200" on="0"/>
      </contour>
      <contour>
        <pt x="2562" y="1105" on="1"/>
        <pt x="2494" y="1004" on="0"/>
        <pt x="2501" y="819" on="1"/>
        <pt x="2503" y="784" on="0"/>
        <pt x="2548" y="637" on="0"/>
        <pt x="2549" y="605" on="1"/>
        <pt x="2551" y="569" on="0"/>
        <pt x="2488" y="496" on="0"/>
        <pt x="2455" y="496" on="1"/>
        <pt x="2407" y="496" on="0"/>
        <pt x="2385" y="520" on="1"/>
        <pt x="2385" y="67" on="0"/>
        <pt x="1745" y="-574" on="0"/>
        <pt x="1290" y="-574" on="1"/>
        <pt x="836" y="-574" on="0"/>
        <pt x="195" y="67" on="0"/>
        <pt x="195" y="520" on="1"/>
        <pt x="174" y="496" on="0"/>
        <pt x="127" y="496" on="1"/>
        <pt x="94" y="496" on="0"/>
        <pt x="29" y="569" on="0"/>
        <pt x="31" y="605" on="1"/>
        <pt x="33" y="637" on="0"/>
        <pt x="78" y="785" on="0"/>
        <pt x="79" y="819" on="1"/>
        <pt x="87" y="1004" on="0"/>
        <pt x="18" y="1105" on="1"/>
        <pt x="218" y="1092" on="0"/>
        <pt x="279" y="945" on="1"/>
        <pt x="274" y="822" on="1"/>
        <pt x="269" y="895" on="0"/>
        <pt x="225" y="962" on="1"/>
        <pt x="170" y="1046" on="0"/>
        <pt x="83" y="1049" on="1"/>
        <pt x="121" y="992" on="0"/>
        <pt x="121" y="819" on="1"/>
        <pt x="121" y="787" on="0"/>
        <pt x="101" y="718" on="1"/>
        <pt x="79" y="646" on="0"/>
        <pt x="77" y="618" on="1"/>
        <pt x="74" y="542" on="0"/>
        <pt x="147" y="542" on="1"/>
        <pt x="186" y="542" on="0"/>
        <pt x="220" y="594" on="1"/>
        <pt x="230" y="609" on="0"/>
        <pt x="242" y="623" on="1"/>
        <pt x="236" y="561" on="0"/>
        <pt x="236" y="520" on="1"/>
        <pt x="236" y="91" on="0"/>
        <pt x="858" y="-521" on="0"/>
        <pt x="1290" y="-521" on="1"/>
        <pt x="1723" y="-521" on="0"/>
        <pt x="2346" y="91" on="0"/>
        <pt x="2346" y="520" on="1"/>
        <pt x="2346" y="561" on="0"/>
        <pt x="2340" y="623" on="1"/>
        <pt x="2352" y="609" on="0"/>
        <pt x="2363" y="595" on="1"/>
        <pt x="2396" y="542" on="0"/>
        <pt x="2433" y="542" on="1"/>
        <pt x="2509" y="542" on="0"/>
        <pt x="2505" y="618" on="1"/>
        <pt x="2503" y="646" on="0"/>
        <pt x="2481" y="718" on="1"/>
        <pt x="2458" y="787" on="0"/>
        <pt x="2458" y="819" on="1"/>
        <pt x="2458" y="990" on="0"/>
        <pt x="2499" y="1049" on="1"/>
        <pt x="2413" y="1046" on="0"/>
        <pt x="2356" y="962" on="1"/>
        <pt x="2311" y="895" on="0"/>
        <pt x="2306" y="822" on="1"/>
        <pt x="2304" y="945" on="1"/>
        <pt x="2364" y="1092" on="0"/>
      </contour>
      <contour>
        <pt x="2151" y="576" on="1"/>
        <pt x="2151" y="930" on="0"/>
        <pt x="1911" y="1173" on="1"/>
        <pt x="1724" y="1362" on="0"/>
        <pt x="1482" y="1418" on="1"/>
        <pt x="1402" y="1437" on="0"/>
        <pt x="1290" y="1437" on="1"/>
        <pt x="1180" y="1437" on="0"/>
        <pt x="1100" y="1418" on="1"/>
        <pt x="857" y="1362" on="0"/>
        <pt x="670" y="1173" on="1"/>
        <pt x="431" y="931" on="0"/>
        <pt x="431" y="576" on="1"/>
        <pt x="431" y="218" on="0"/>
        <pt x="932" y="-285" on="0"/>
        <pt x="1290" y="-285" on="1"/>
        <pt x="1649" y="-285" on="0"/>
        <pt x="2151" y="218" on="0"/>
      </contour>
      <contour>
        <pt x="1706" y="792" on="1"/>
        <pt x="1706" y="765" on="0"/>
        <pt x="1675" y="698" on="1"/>
        <pt x="1642" y="626" on="0"/>
        <pt x="1620" y="621" on="1"/>
        <pt x="1579" y="616" on="0"/>
        <pt x="1497" y="605" on="1"/>
        <pt x="1478" y="601" on="0"/>
        <pt x="1452" y="570" on="1"/>
        <pt x="1451" y="528" on="0"/>
        <pt x="1461" y="437" on="1"/>
        <pt x="1470" y="342" on="0"/>
        <pt x="1470" y="338" on="1"/>
        <pt x="1470" y="291" on="0"/>
        <pt x="1468" y="200" on="1"/>
        <pt x="1411" y="200" on="1"/>
        <pt x="1403" y="225" on="0"/>
        <pt x="1354" y="428" on="1"/>
        <pt x="1349" y="448" on="0"/>
        <pt x="1284" y="582" on="1"/>
        <pt x="1226" y="704" on="0"/>
        <pt x="1226" y="746" on="1"/>
        <pt x="1226" y="813" on="0"/>
        <pt x="1271" y="844" on="1"/>
        <pt x="1275" y="841" on="0"/>
        <pt x="1343" y="781" on="1"/>
        <pt x="1389" y="741" on="0"/>
        <pt x="1404" y="741" on="1"/>
        <pt x="1443" y="741" on="0"/>
        <pt x="1458" y="768" on="1"/>
        <pt x="1466" y="793" on="0"/>
        <pt x="1475" y="818" on="1"/>
        <pt x="1491" y="826" on="0"/>
        <pt x="1517" y="844" on="1"/>
        <pt x="1565" y="772" on="0"/>
        <pt x="1588" y="772" on="1"/>
        <pt x="1611" y="772" on="0"/>
        <pt x="1659" y="843" on="1"/>
        <pt x="1706" y="817" on="0"/>
      </contour>
      <contour>
        <pt x="1185" y="291" on="1"/>
        <pt x="1185" y="280" on="0"/>
        <pt x="1172" y="227" on="0"/>
        <pt x="1172" y="211" on="1"/>
        <pt x="1169" y="211" on="0"/>
        <pt x="1153" y="198" on="0"/>
        <pt x="1138" y="198" on="1"/>
        <pt x="1087" y="198" on="0"/>
        <pt x="1051" y="342" on="1"/>
        <pt x="1035" y="419" on="0"/>
        <pt x="1018" y="496" on="1"/>
        <pt x="953" y="516" on="0"/>
        <pt x="887" y="536" on="1"/>
        <pt x="816" y="560" on="0"/>
        <pt x="816" y="639" on="1"/>
        <pt x="816" y="679" on="0"/>
        <pt x="858" y="768" on="1"/>
        <pt x="908" y="874" on="0"/>
        <pt x="959" y="874" on="1"/>
        <pt x="1005" y="874" on="0"/>
        <pt x="1042" y="835" on="1"/>
        <pt x="1077" y="799" on="0"/>
        <pt x="1088" y="747" on="1"/>
        <pt x="1098" y="649" on="0"/>
        <pt x="1126" y="460" on="1"/>
        <pt x="1130" y="437" on="0"/>
        <pt x="1158" y="366" on="1"/>
        <pt x="1185" y="302" on="0"/>
      </contour>
      <contour>
        <pt x="967" y="671" on="1"/>
        <pt x="967" y="709" on="0"/>
        <pt x="956" y="720" on="1"/>
        <pt x="948" y="720" on="0"/>
        <pt x="919" y="690" on="0"/>
        <pt x="919" y="682" on="1"/>
      </contour>
    </TTGlyph>
    <TTGlyph name="gaffinalarabic" xMin="142" yMin="226" xMax="842" yMax="1588">
      <contour>
        <pt x="142" y="226" on="1"/>
        <pt x="142" y="1588" on="1"/>
        <pt x="842" y="1588" on="1"/>
        <pt x="842" y="226" on="1"/>
      </contour>
      <contour>
        <pt x="284" y="368" on="1"/>
        <pt x="700" y="368" on="1"/>
        <pt x="700" y="1447" on="1"/>
        <pt x="284" y="1447" on="1"/>
      </contour>
    </TTGlyph>
    <TTGlyph name="gafinitialarabic" xMin="142" yMin="226" xMax="842" yMax="1588">
      <contour>
        <pt x="142" y="226" on="1"/>
        <pt x="142" y="1588" on="1"/>
        <pt x="842" y="1588" on="1"/>
        <pt x="842" y="226" on="1"/>
      </contour>
      <contour>
        <pt x="284" y="368" on="1"/>
        <pt x="700" y="368" on="1"/>
        <pt x="700" y="1447" on="1"/>
        <pt x="284" y="1447" on="1"/>
      </contour>
    </TTGlyph>
    <TTGlyph name="gafmedialarabic" xMin="142" yMin="226" xMax="842" yMax="1588">
      <contour>
        <pt x="142" y="226" on="1"/>
        <pt x="142" y="1588" on="1"/>
        <pt x="842" y="1588" on="1"/>
        <pt x="842" y="226" on="1"/>
      </contour>
      <contour>
        <pt x="284" y="368" on="1"/>
        <pt x="700" y="368" on="1"/>
        <pt x="700" y="1447" on="1"/>
        <pt x="284" y="1447" on="1"/>
      </contour>
    </TTGlyph>
    <TTGlyph name="glyph41" xMin="142" yMin="226" xMax="842" yMax="1588">
      <contour>
        <pt x="142" y="226" on="1"/>
        <pt x="142" y="1588" on="1"/>
        <pt x="842" y="1588" on="1"/>
        <pt x="842" y="226" on="1"/>
      </contour>
      <contour>
        <pt x="284" y="368" on="1"/>
        <pt x="700" y="368" on="1"/>
        <pt x="700" y="1447" on="1"/>
        <pt x="284" y="1447" on="1"/>
      </contour>
    </TTGlyph>
    <TTGlyph name="glyph42" xMin="142" yMin="226" xMax="842" yMax="1588">
      <contour>
        <pt x="142" y="226" on="1"/>
        <pt x="142" y="1588" on="1"/>
        <pt x="842" y="1588" on="1"/>
        <pt x="842" y="226" on="1"/>
      </contour>
      <contour>
        <pt x="284" y="368" on="1"/>
        <pt x="700" y="368" on="1"/>
        <pt x="700" y="1447" on="1"/>
        <pt x="284" y="1447" on="1"/>
      </contour>
    </TTGlyph>
    <TTGlyph name="glyph43" xMin="142" yMin="226" xMax="842" yMax="1588">
      <contour>
        <pt x="142" y="226" on="1"/>
        <pt x="142" y="1588" on="1"/>
        <pt x="842" y="1588" on="1"/>
        <pt x="842" y="226" on="1"/>
      </contour>
      <contour>
        <pt x="284" y="368" on="1"/>
        <pt x="700" y="368" on="1"/>
        <pt x="700" y="1447" on="1"/>
        <pt x="284" y="1447" on="1"/>
      </contour>
    </TTGlyph>
    <TTGlyph name="glyph44" xMin="142" yMin="226" xMax="842" yMax="1588">
      <contour>
        <pt x="142" y="226" on="1"/>
        <pt x="142" y="1588" on="1"/>
        <pt x="842" y="1588" on="1"/>
        <pt x="842" y="226" on="1"/>
      </contour>
      <contour>
        <pt x="284" y="368" on="1"/>
        <pt x="700" y="368" on="1"/>
        <pt x="700" y="1447" on="1"/>
        <pt x="284" y="1447" on="1"/>
      </contour>
    </TTGlyph>
    <TTGlyph name="glyph45" xMin="142" yMin="226" xMax="842" yMax="1588">
      <contour>
        <pt x="142" y="226" on="1"/>
        <pt x="142" y="1588" on="1"/>
        <pt x="842" y="1588" on="1"/>
        <pt x="842" y="226" on="1"/>
      </contour>
      <contour>
        <pt x="284" y="368" on="1"/>
        <pt x="700" y="368" on="1"/>
        <pt x="700" y="1447" on="1"/>
        <pt x="284" y="1447" on="1"/>
      </contour>
    </TTGlyph>
    <TTGlyph name="glyph46" xMin="142" yMin="226" xMax="842" yMax="1588">
      <contour>
        <pt x="142" y="226" on="1"/>
        <pt x="142" y="1588" on="1"/>
        <pt x="842" y="1588" on="1"/>
        <pt x="842" y="226" on="1"/>
      </contour>
      <contour>
        <pt x="284" y="368" on="1"/>
        <pt x="700" y="368" on="1"/>
        <pt x="700" y="1447" on="1"/>
        <pt x="284" y="1447" on="1"/>
      </contour>
    </TTGlyph>
    <TTGlyph name="glyph47" xMin="142" yMin="226" xMax="842" yMax="1588">
      <contour>
        <pt x="142" y="226" on="1"/>
        <pt x="142" y="1588" on="1"/>
        <pt x="842" y="1588" on="1"/>
        <pt x="842" y="226" on="1"/>
      </contour>
      <contour>
        <pt x="284" y="368" on="1"/>
        <pt x="700" y="368" on="1"/>
        <pt x="700" y="1447" on="1"/>
        <pt x="284" y="1447" on="1"/>
      </contour>
    </TTGlyph>
    <TTGlyph name="glyph48" xMin="142" yMin="226" xMax="842" yMax="1588">
      <contour>
        <pt x="142" y="226" on="1"/>
        <pt x="142" y="1588" on="1"/>
        <pt x="842" y="1588" on="1"/>
        <pt x="842" y="226" on="1"/>
      </contour>
      <contour>
        <pt x="284" y="368" on="1"/>
        <pt x="700" y="368" on="1"/>
        <pt x="700" y="1447" on="1"/>
        <pt x="284" y="1447" on="1"/>
      </contour>
    </TTGlyph>
    <TTGlyph name="glyph50" xMin="142" yMin="226" xMax="842" yMax="1588">
      <contour>
        <pt x="142" y="226" on="1"/>
        <pt x="142" y="1588" on="1"/>
        <pt x="842" y="1588" on="1"/>
        <pt x="842" y="226" on="1"/>
      </contour>
      <contour>
        <pt x="284" y="368" on="1"/>
        <pt x="700" y="368" on="1"/>
        <pt x="700" y="1447" on="1"/>
        <pt x="284" y="1447" on="1"/>
      </contour>
    </TTGlyph>
    <TTGlyph name="glyph51" xMin="142" yMin="226" xMax="842" yMax="1588">
      <contour>
        <pt x="142" y="226" on="1"/>
        <pt x="142" y="1588" on="1"/>
        <pt x="842" y="1588" on="1"/>
        <pt x="842" y="226" on="1"/>
      </contour>
      <contour>
        <pt x="284" y="368" on="1"/>
        <pt x="700" y="368" on="1"/>
        <pt x="700" y="1447" on="1"/>
        <pt x="284" y="1447" on="1"/>
      </contour>
    </TTGlyph>
    <TTGlyph name="greater" xMin="142" yMin="226" xMax="842" yMax="1588">
      <contour>
        <pt x="142" y="226" on="1"/>
        <pt x="142" y="1588" on="1"/>
        <pt x="842" y="1588" on="1"/>
        <pt x="842" y="226" on="1"/>
      </contour>
      <contour>
        <pt x="284" y="368" on="1"/>
        <pt x="700" y="368" on="1"/>
        <pt x="700" y="1447" on="1"/>
        <pt x="284" y="1447" on="1"/>
      </contour>
    </TTGlyph>
    <TTGlyph name="hahhamzabovefinal" xMin="142" yMin="226" xMax="842" yMax="1588">
      <contour>
        <pt x="142" y="226" on="1"/>
        <pt x="142" y="1588" on="1"/>
        <pt x="842" y="1588" on="1"/>
        <pt x="842" y="226" on="1"/>
      </contour>
      <contour>
        <pt x="284" y="368" on="1"/>
        <pt x="700" y="368" on="1"/>
        <pt x="700" y="1447" on="1"/>
        <pt x="284" y="1447" on="1"/>
      </contour>
    </TTGlyph>
    <TTGlyph name="hahhamzaboveinitial" xMin="142" yMin="226" xMax="842" yMax="1588">
      <contour>
        <pt x="142" y="226" on="1"/>
        <pt x="142" y="1588" on="1"/>
        <pt x="842" y="1588" on="1"/>
        <pt x="842" y="226" on="1"/>
      </contour>
      <contour>
        <pt x="284" y="368" on="1"/>
        <pt x="700" y="368" on="1"/>
        <pt x="700" y="1447" on="1"/>
        <pt x="284" y="1447" on="1"/>
      </contour>
    </TTGlyph>
    <TTGlyph name="hahhamzabovemedial" xMin="142" yMin="226" xMax="842" yMax="1588">
      <contour>
        <pt x="142" y="226" on="1"/>
        <pt x="142" y="1588" on="1"/>
        <pt x="842" y="1588" on="1"/>
        <pt x="842" y="226" on="1"/>
      </contour>
      <contour>
        <pt x="284" y="368" on="1"/>
        <pt x="700" y="368" on="1"/>
        <pt x="700" y="1447" on="1"/>
        <pt x="284" y="1447" on="1"/>
      </contour>
    </TTGlyph>
    <TTGlyph name="hahthreedotsabovefinal" xMin="142" yMin="226" xMax="842" yMax="1588">
      <contour>
        <pt x="142" y="226" on="1"/>
        <pt x="142" y="1588" on="1"/>
        <pt x="842" y="1588" on="1"/>
        <pt x="842" y="226" on="1"/>
      </contour>
      <contour>
        <pt x="284" y="368" on="1"/>
        <pt x="700" y="368" on="1"/>
        <pt x="700" y="1447" on="1"/>
        <pt x="284" y="1447" on="1"/>
      </contour>
    </TTGlyph>
    <TTGlyph name="hahthreedotsaboveinitial" xMin="142" yMin="226" xMax="842" yMax="1588">
      <contour>
        <pt x="142" y="226" on="1"/>
        <pt x="142" y="1588" on="1"/>
        <pt x="842" y="1588" on="1"/>
        <pt x="842" y="226" on="1"/>
      </contour>
      <contour>
        <pt x="284" y="368" on="1"/>
        <pt x="700" y="368" on="1"/>
        <pt x="700" y="1447" on="1"/>
        <pt x="284" y="1447" on="1"/>
      </contour>
    </TTGlyph>
    <TTGlyph name="hahthreedotsabovemedial" xMin="142" yMin="226" xMax="842" yMax="1588">
      <contour>
        <pt x="142" y="226" on="1"/>
        <pt x="142" y="1588" on="1"/>
        <pt x="842" y="1588" on="1"/>
        <pt x="842" y="226" on="1"/>
      </contour>
      <contour>
        <pt x="284" y="368" on="1"/>
        <pt x="700" y="368" on="1"/>
        <pt x="700" y="1447" on="1"/>
        <pt x="284" y="1447" on="1"/>
      </contour>
    </TTGlyph>
    <TTGlyph name="hehdoachashmeefinalarabic" xMin="142" yMin="226" xMax="842" yMax="1588">
      <contour>
        <pt x="142" y="226" on="1"/>
        <pt x="142" y="1588" on="1"/>
        <pt x="842" y="1588" on="1"/>
        <pt x="842" y="226" on="1"/>
      </contour>
      <contour>
        <pt x="284" y="368" on="1"/>
        <pt x="700" y="368" on="1"/>
        <pt x="700" y="1447" on="1"/>
        <pt x="284" y="1447" on="1"/>
      </contour>
    </TTGlyph>
    <TTGlyph name="hehdoachashmeeinitialarabic" xMin="142" yMin="226" xMax="842" yMax="1588">
      <contour>
        <pt x="142" y="226" on="1"/>
        <pt x="142" y="1588" on="1"/>
        <pt x="842" y="1588" on="1"/>
        <pt x="842" y="226" on="1"/>
      </contour>
      <contour>
        <pt x="284" y="368" on="1"/>
        <pt x="700" y="368" on="1"/>
        <pt x="700" y="1447" on="1"/>
        <pt x="284" y="1447" on="1"/>
      </contour>
    </TTGlyph>
    <TTGlyph name="hehdoachashmeemedialarabic" xMin="142" yMin="226" xMax="842" yMax="1588">
      <contour>
        <pt x="142" y="226" on="1"/>
        <pt x="142" y="1588" on="1"/>
        <pt x="842" y="1588" on="1"/>
        <pt x="842" y="226" on="1"/>
      </contour>
      <contour>
        <pt x="284" y="368" on="1"/>
        <pt x="700" y="368" on="1"/>
        <pt x="700" y="1447" on="1"/>
        <pt x="284" y="1447" on="1"/>
      </contour>
    </TTGlyph>
    <TTGlyph name="hehfinalaltonearabic" xMin="142" yMin="226" xMax="842" yMax="1588">
      <contour>
        <pt x="142" y="226" on="1"/>
        <pt x="142" y="1588" on="1"/>
        <pt x="842" y="1588" on="1"/>
        <pt x="842" y="226" on="1"/>
      </contour>
      <contour>
        <pt x="284" y="368" on="1"/>
        <pt x="700" y="368" on="1"/>
        <pt x="700" y="1447" on="1"/>
        <pt x="284" y="1447" on="1"/>
      </contour>
    </TTGlyph>
    <TTGlyph name="hehhamzaabovefinalarabic" xMin="142" yMin="226" xMax="842" yMax="1588">
      <contour>
        <pt x="142" y="226" on="1"/>
        <pt x="142" y="1588" on="1"/>
        <pt x="842" y="1588" on="1"/>
        <pt x="842" y="226" on="1"/>
      </contour>
      <contour>
        <pt x="284" y="368" on="1"/>
        <pt x="700" y="368" on="1"/>
        <pt x="700" y="1447" on="1"/>
        <pt x="284" y="1447" on="1"/>
      </contour>
    </TTGlyph>
    <TTGlyph name="hehinitialaltonearabic" xMin="142" yMin="226" xMax="842" yMax="1588">
      <contour>
        <pt x="142" y="226" on="1"/>
        <pt x="142" y="1588" on="1"/>
        <pt x="842" y="1588" on="1"/>
        <pt x="842" y="226" on="1"/>
      </contour>
      <contour>
        <pt x="284" y="368" on="1"/>
        <pt x="700" y="368" on="1"/>
        <pt x="700" y="1447" on="1"/>
        <pt x="284" y="1447" on="1"/>
      </contour>
    </TTGlyph>
    <TTGlyph name="hehmedialaltonearabic" xMin="142" yMin="226" xMax="842" yMax="1588">
      <contour>
        <pt x="142" y="226" on="1"/>
        <pt x="142" y="1588" on="1"/>
        <pt x="842" y="1588" on="1"/>
        <pt x="842" y="226" on="1"/>
      </contour>
      <contour>
        <pt x="284" y="368" on="1"/>
        <pt x="700" y="368" on="1"/>
        <pt x="700" y="1447" on="1"/>
        <pt x="284" y="1447" on="1"/>
      </contour>
    </TTGlyph>
    <TTGlyph name="hyphen" xMin="18" yMin="-574" xMax="2562" yMax="1785">
      <contour>
        <pt x="2420" y="1042" on="1"/>
        <pt x="2380" y="1018" on="1"/>
        <pt x="2380" y="1029" on="0"/>
        <pt x="2367" y="1055" on="1"/>
        <pt x="2348" y="1080" on="0"/>
        <pt x="2204" y="1203" on="0"/>
        <pt x="2188" y="1226" on="1"/>
        <pt x="2110" y="1335" on="0"/>
        <pt x="2103" y="1449" on="1"/>
        <pt x="2018" y="1431" on="0"/>
        <pt x="2018" y="1248" on="1"/>
        <pt x="2018" y="1160" on="0"/>
        <pt x="2038" y="1110" on="1"/>
        <pt x="2013" y="1131" on="0"/>
        <pt x="1987" y="1153" on="1"/>
        <pt x="1978" y="1201" on="0"/>
        <pt x="1978" y="1248" on="1"/>
        <pt x="1978" y="1351" on="0"/>
        <pt x="2062" y="1502" on="0"/>
        <pt x="2134" y="1523" on="1"/>
        <pt x="2137" y="1372" on="0"/>
        <pt x="2225" y="1254" on="1"/>
        <pt x="2242" y="1230" on="0"/>
        <pt x="2326" y="1158" on="1"/>
        <pt x="2399" y="1094" on="0"/>
        <pt x="2413" y="1063" on="1"/>
        <pt x="2420" y="1033" on="0"/>
      </contour>
      <contour>
        <pt x="2197" y="576" on="1"/>
        <pt x="2197" y="202" on="0"/>
        <pt x="1665" y="-330" on="0"/>
        <pt x="1290" y="-330" on="1"/>
        <pt x="916" y="-330" on="0"/>
        <pt x="383" y="202" on="0"/>
        <pt x="383" y="576" on="1"/>
        <pt x="383" y="939" on="0"/>
        <pt x="639" y="1202" on="1"/>
        <pt x="854" y="1423" on="0"/>
        <pt x="1102" y="1461" on="1"/>
        <pt x="1155" y="1469" on="0"/>
        <pt x="1198" y="1505" on="1"/>
        <pt x="1248" y="1547" on="0"/>
        <pt x="1248" y="1602" on="1"/>
        <pt x="1248" y="1662" on="0"/>
        <pt x="1162" y="1748" on="0"/>
        <pt x="1102" y="1748" on="1"/>
        <pt x="1043" y="1748" on="0"/>
        <pt x="954" y="1662" on="0"/>
        <pt x="954" y="1602" on="1"/>
        <pt x="954" y="1534" on="0"/>
        <pt x="1010" y="1488" on="1"/>
        <pt x="898" y="1475" on="0"/>
        <pt x="761" y="1418" on="1"/>
        <pt x="668" y="1380" on="0"/>
        <pt x="600" y="1315" on="1"/>
        <pt x="555" y="1321" on="1"/>
        <pt x="618" y="1394" on="0"/>
        <pt x="755" y="1457" on="1"/>
        <pt x="822" y="1487" on="0"/>
        <pt x="947" y="1512" on="1"/>
        <pt x="917" y="1556" on="0"/>
        <pt x="917" y="1614" on="1"/>
        <pt x="917" y="1688" on="0"/>
        <pt x="976" y="1738" on="1"/>
        <pt x="1031" y="1785" on="0"/>
        <pt x="1102" y="1785" on="1"/>
        <pt x="1176" y="1785" on="0"/>
        <pt x="1232" y="1736" on="1"/>
        <pt x="1290" y="1684" on="0"/>
        <pt x="1290" y="1610" on="1"/>
        <pt x="1290" y="1531" on="0"/>
        <pt x="1230" y="1479" on="1"/>
        <pt x="1252" y="1481" on="0"/>
        <pt x="1290" y="1481" on="1"/>
        <pt x="1330" y="1481" on="0"/>
        <pt x="1351" y="1479" on="1"/>
        <pt x="1290" y="1531" on="0"/>
        <pt x="1290" y="1610" on="1"/>
        <pt x="1290" y="1684" on="0"/>
        <pt x="1348" y="1736" on="1"/>
        <pt x="1403" y="1785" on="0"/>
        <pt x="1478" y="1785" on="1"/>
        <pt x="1550" y="1785" on="0"/>
        <pt x="1605" y="1738" on="1"/>
        <pt x="1665" y="1689" on="0"/>
        <pt x="1665" y="1614" on="1"/>
        <pt x="1665" y="1556" on="0"/>
        <pt x="1635" y="1512" on="1"/>
        <pt x="1756" y="1488" on="0"/>
        <pt x="1824" y="1457" on="1"/>
        <pt x="1960" y="1396" on="0"/>
        <pt x="2026" y="1321" on="1"/>
        <pt x="1982" y="1315" on="1"/>
        <pt x="1908" y="1382" on="0"/>
        <pt x="1819" y="1418" on="1"/>
        <pt x="1679" y="1476" on="0"/>
        <pt x="1570" y="1488" on="1"/>
        <pt x="1624" y="1532" on="0"/>
        <pt x="1624" y="1602" on="1"/>
        <pt x="1624" y="1662" on="0"/>
        <pt x="1538" y="1748" on="0"/>
        <pt x="1478" y="1748" on="1"/>
        <pt x="1419" y="1748" on="0"/>
        <pt x="1333" y="1662" on="0"/>
        <pt x="1333" y="1602" on="1"/>
        <pt x="1333" y="1547" on="0"/>
        <pt x="1383" y="1505" on="1"/>
        <pt x="1425" y="1469" on="0"/>
        <pt x="1478" y="1461" on="1"/>
        <pt x="1728" y="1423" on="0"/>
        <pt x="1942" y="1202" on="1"/>
        <pt x="2197" y="940" on="0"/>
      </contour>
      <contour>
        <pt x="596" y="1153" on="1"/>
        <pt x="540" y="1105" on="0"/>
        <pt x="541" y="1110" on="1"/>
        <pt x="562" y="1161" on="0"/>
        <pt x="562" y="1249" on="1"/>
        <pt x="562" y="1431" on="0"/>
        <pt x="479" y="1449" on="1"/>
        <pt x="472" y="1333" on="0"/>
        <pt x="394" y="1226" on="1"/>
        <pt x="378" y="1203" on="0"/>
        <pt x="233" y="1081" on="0"/>
        <pt x="214" y="1055" on="1"/>
        <pt x="201" y="1029" on="0"/>
        <pt x="201" y="1018" on="1"/>
        <pt x="162" y="1042" on="1"/>
        <pt x="162" y="1053" on="0"/>
        <pt x="170" y="1063" on="1"/>
        <pt x="183" y="1094" on="0"/>
        <pt x="256" y="1158" on="1"/>
        <pt x="340" y="1230" on="0"/>
        <pt x="357" y="1254" on="1"/>
        <pt x="442" y="1368" on="0"/>
        <pt x="448" y="1523" on="1"/>
        <pt x="519" y="1502" on="0"/>
        <pt x="605" y="1350" on="0"/>
        <pt x="605" y="1247" on="1"/>
        <pt x="605" y="1200" on="0"/>
      </contour>
      <contour>
        <pt x="2562" y="1105" on="1"/>
        <pt x="2494" y="1004" on="0"/>
        <pt x="2501" y="819" on="1"/>
        <pt x="2503" y="784" on="0"/>
        <pt x="2548" y="637" on="0"/>
        <pt x="2549" y="605" on="1"/>
        <pt x="2551" y="569" on="0"/>
        <pt x="2488" y="496" on="0"/>
        <pt x="2455" y="496" on="1"/>
        <pt x="2407" y="496" on="0"/>
        <pt x="2385" y="520" on="1"/>
        <pt x="2385" y="67" on="0"/>
        <pt x="1745" y="-574" on="0"/>
        <pt x="1290" y="-574" on="1"/>
        <pt x="836" y="-574" on="0"/>
        <pt x="195" y="67" on="0"/>
        <pt x="195" y="520" on="1"/>
        <pt x="174" y="496" on="0"/>
        <pt x="127" y="496" on="1"/>
        <pt x="94" y="496" on="0"/>
        <pt x="29" y="569" on="0"/>
        <pt x="31" y="605" on="1"/>
        <pt x="33" y="637" on="0"/>
        <pt x="78" y="785" on="0"/>
        <pt x="79" y="819" on="1"/>
        <pt x="87" y="1004" on="0"/>
        <pt x="18" y="1105" on="1"/>
        <pt x="218" y="1092" on="0"/>
        <pt x="279" y="945" on="1"/>
        <pt x="274" y="822" on="1"/>
        <pt x="269" y="895" on="0"/>
        <pt x="225" y="962" on="1"/>
        <pt x="170" y="1046" on="0"/>
        <pt x="83" y="1049" on="1"/>
        <pt x="121" y="992" on="0"/>
        <pt x="121" y="819" on="1"/>
        <pt x="121" y="787" on="0"/>
        <pt x="101" y="718" on="1"/>
        <pt x="79" y="646" on="0"/>
        <pt x="77" y="618" on="1"/>
        <pt x="74" y="542" on="0"/>
        <pt x="147" y="542" on="1"/>
        <pt x="186" y="542" on="0"/>
        <pt x="220" y="594" on="1"/>
        <pt x="230" y="609" on="0"/>
        <pt x="242" y="623" on="1"/>
        <pt x="236" y="561" on="0"/>
        <pt x="236" y="520" on="1"/>
        <pt x="236" y="91" on="0"/>
        <pt x="858" y="-521" on="0"/>
        <pt x="1290" y="-521" on="1"/>
        <pt x="1723" y="-521" on="0"/>
        <pt x="2346" y="91" on="0"/>
        <pt x="2346" y="520" on="1"/>
        <pt x="2346" y="561" on="0"/>
        <pt x="2340" y="623" on="1"/>
        <pt x="2352" y="609" on="0"/>
        <pt x="2363" y="595" on="1"/>
        <pt x="2396" y="542" on="0"/>
        <pt x="2433" y="542" on="1"/>
        <pt x="2509" y="542" on="0"/>
        <pt x="2505" y="618" on="1"/>
        <pt x="2503" y="646" on="0"/>
        <pt x="2481" y="718" on="1"/>
        <pt x="2458" y="787" on="0"/>
        <pt x="2458" y="819" on="1"/>
        <pt x="2458" y="990" on="0"/>
        <pt x="2499" y="1049" on="1"/>
        <pt x="2413" y="1046" on="0"/>
        <pt x="2356" y="962" on="1"/>
        <pt x="2311" y="895" on="0"/>
        <pt x="2306" y="822" on="1"/>
        <pt x="2304" y="945" on="1"/>
        <pt x="2364" y="1092" on="0"/>
      </contour>
      <contour>
        <pt x="2151" y="576" on="1"/>
        <pt x="2151" y="930" on="0"/>
        <pt x="1911" y="1173" on="1"/>
        <pt x="1724" y="1362" on="0"/>
        <pt x="1482" y="1418" on="1"/>
        <pt x="1402" y="1437" on="0"/>
        <pt x="1290" y="1437" on="1"/>
        <pt x="1180" y="1437" on="0"/>
        <pt x="1100" y="1418" on="1"/>
        <pt x="857" y="1362" on="0"/>
        <pt x="670" y="1173" on="1"/>
        <pt x="431" y="931" on="0"/>
        <pt x="431" y="576" on="1"/>
        <pt x="431" y="218" on="0"/>
        <pt x="932" y="-285" on="0"/>
        <pt x="1290" y="-285" on="1"/>
        <pt x="1649" y="-285" on="0"/>
        <pt x="2151" y="218" on="0"/>
      </contour>
      <contour>
        <pt x="1706" y="792" on="1"/>
        <pt x="1706" y="765" on="0"/>
        <pt x="1675" y="698" on="1"/>
        <pt x="1642" y="626" on="0"/>
        <pt x="1620" y="621" on="1"/>
        <pt x="1579" y="616" on="0"/>
        <pt x="1497" y="605" on="1"/>
        <pt x="1478" y="601" on="0"/>
        <pt x="1452" y="570" on="1"/>
        <pt x="1451" y="528" on="0"/>
        <pt x="1461" y="437" on="1"/>
        <pt x="1470" y="342" on="0"/>
        <pt x="1470" y="338" on="1"/>
        <pt x="1470" y="291" on="0"/>
        <pt x="1468" y="200" on="1"/>
        <pt x="1411" y="200" on="1"/>
        <pt x="1403" y="225" on="0"/>
        <pt x="1354" y="428" on="1"/>
        <pt x="1349" y="448" on="0"/>
        <pt x="1284" y="582" on="1"/>
        <pt x="1226" y="704" on="0"/>
        <pt x="1226" y="746" on="1"/>
        <pt x="1226" y="813" on="0"/>
        <pt x="1271" y="844" on="1"/>
        <pt x="1275" y="841" on="0"/>
        <pt x="1343" y="781" on="1"/>
        <pt x="1389" y="741" on="0"/>
        <pt x="1404" y="741" on="1"/>
        <pt x="1443" y="741" on="0"/>
        <pt x="1458" y="768" on="1"/>
        <pt x="1466" y="793" on="0"/>
        <pt x="1475" y="818" on="1"/>
        <pt x="1491" y="826" on="0"/>
        <pt x="1517" y="844" on="1"/>
        <pt x="1565" y="772" on="0"/>
        <pt x="1588" y="772" on="1"/>
        <pt x="1611" y="772" on="0"/>
        <pt x="1659" y="843" on="1"/>
        <pt x="1706" y="817" on="0"/>
      </contour>
      <contour>
        <pt x="1185" y="291" on="1"/>
        <pt x="1185" y="280" on="0"/>
        <pt x="1172" y="227" on="0"/>
        <pt x="1172" y="211" on="1"/>
        <pt x="1169" y="211" on="0"/>
        <pt x="1153" y="198" on="0"/>
        <pt x="1138" y="198" on="1"/>
        <pt x="1087" y="198" on="0"/>
        <pt x="1051" y="342" on="1"/>
        <pt x="1035" y="419" on="0"/>
        <pt x="1018" y="496" on="1"/>
        <pt x="953" y="516" on="0"/>
        <pt x="887" y="536" on="1"/>
        <pt x="816" y="560" on="0"/>
        <pt x="816" y="639" on="1"/>
        <pt x="816" y="679" on="0"/>
        <pt x="858" y="768" on="1"/>
        <pt x="908" y="874" on="0"/>
        <pt x="959" y="874" on="1"/>
        <pt x="1005" y="874" on="0"/>
        <pt x="1042" y="835" on="1"/>
        <pt x="1077" y="799" on="0"/>
        <pt x="1088" y="747" on="1"/>
        <pt x="1098" y="649" on="0"/>
        <pt x="1126" y="460" on="1"/>
        <pt x="1130" y="437" on="0"/>
        <pt x="1158" y="366" on="1"/>
        <pt x="1185" y="302" on="0"/>
      </contour>
      <contour>
        <pt x="967" y="671" on="1"/>
        <pt x="967" y="709" on="0"/>
        <pt x="956" y="720" on="1"/>
        <pt x="948" y="720" on="0"/>
        <pt x="919" y="690" on="0"/>
        <pt x="919" y="682" on="1"/>
      </contour>
    </TTGlyph>
    <TTGlyph name="irghizufinal" xMin="142" yMin="226" xMax="842" yMax="1588">
      <contour>
        <pt x="142" y="226" on="1"/>
        <pt x="142" y="1588" on="1"/>
        <pt x="842" y="1588" on="1"/>
        <pt x="842" y="226" on="1"/>
      </contour>
      <contour>
        <pt x="284" y="368" on="1"/>
        <pt x="700" y="368" on="1"/>
        <pt x="700" y="1447" on="1"/>
        <pt x="284" y="1447" on="1"/>
      </contour>
    </TTGlyph>
    <TTGlyph name="jehfinalarabic" xMin="142" yMin="226" xMax="842" yMax="1588">
      <contour>
        <pt x="142" y="226" on="1"/>
        <pt x="142" y="1588" on="1"/>
        <pt x="842" y="1588" on="1"/>
        <pt x="842" y="226" on="1"/>
      </contour>
      <contour>
        <pt x="284" y="368" on="1"/>
        <pt x="700" y="368" on="1"/>
        <pt x="700" y="1447" on="1"/>
        <pt x="284" y="1447" on="1"/>
      </contour>
    </TTGlyph>
    <TTGlyph name="kafringfinal" xMin="142" yMin="226" xMax="842" yMax="1588">
      <contour>
        <pt x="142" y="226" on="1"/>
        <pt x="142" y="1588" on="1"/>
        <pt x="842" y="1588" on="1"/>
        <pt x="842" y="226" on="1"/>
      </contour>
      <contour>
        <pt x="284" y="368" on="1"/>
        <pt x="700" y="368" on="1"/>
        <pt x="700" y="1447" on="1"/>
        <pt x="284" y="1447" on="1"/>
      </contour>
    </TTGlyph>
    <TTGlyph name="kafringinitial" xMin="142" yMin="226" xMax="842" yMax="1588">
      <contour>
        <pt x="142" y="226" on="1"/>
        <pt x="142" y="1588" on="1"/>
        <pt x="842" y="1588" on="1"/>
        <pt x="842" y="226" on="1"/>
      </contour>
      <contour>
        <pt x="284" y="368" on="1"/>
        <pt x="700" y="368" on="1"/>
        <pt x="700" y="1447" on="1"/>
        <pt x="284" y="1447" on="1"/>
      </contour>
    </TTGlyph>
    <TTGlyph name="kafringmedial" xMin="142" yMin="226" xMax="842" yMax="1588">
      <contour>
        <pt x="142" y="226" on="1"/>
        <pt x="142" y="1588" on="1"/>
        <pt x="842" y="1588" on="1"/>
        <pt x="842" y="226" on="1"/>
      </contour>
      <contour>
        <pt x="284" y="368" on="1"/>
        <pt x="700" y="368" on="1"/>
        <pt x="700" y="1447" on="1"/>
        <pt x="284" y="1447" on="1"/>
      </contour>
    </TTGlyph>
    <TTGlyph name="kashidaautoarabic" xMin="142" yMin="226" xMax="842" yMax="1588">
      <contour>
        <pt x="142" y="226" on="1"/>
        <pt x="142" y="1588" on="1"/>
        <pt x="842" y="1588" on="1"/>
        <pt x="842" y="226" on="1"/>
      </contour>
      <contour>
        <pt x="284" y="368" on="1"/>
        <pt x="700" y="368" on="1"/>
        <pt x="700" y="1447" on="1"/>
        <pt x="284" y="1447" on="1"/>
      </contour>
    </TTGlyph>
    <TTGlyph name="kashidaautonosidebearingarabic" xMin="142" yMin="226" xMax="842" yMax="1588">
      <contour>
        <pt x="142" y="226" on="1"/>
        <pt x="142" y="1588" on="1"/>
        <pt x="842" y="1588" on="1"/>
        <pt x="842" y="226" on="1"/>
      </contour>
      <contour>
        <pt x="284" y="368" on="1"/>
        <pt x="700" y="368" on="1"/>
        <pt x="700" y="1447" on="1"/>
        <pt x="284" y="1447" on="1"/>
      </contour>
    </TTGlyph>
    <TTGlyph name="kehehfinalarabic" xMin="142" yMin="226" xMax="842" yMax="1588">
      <contour>
        <pt x="142" y="226" on="1"/>
        <pt x="142" y="1588" on="1"/>
        <pt x="842" y="1588" on="1"/>
        <pt x="842" y="226" on="1"/>
      </contour>
      <contour>
        <pt x="284" y="368" on="1"/>
        <pt x="700" y="368" on="1"/>
        <pt x="700" y="1447" on="1"/>
        <pt x="284" y="1447" on="1"/>
      </contour>
    </TTGlyph>
    <TTGlyph name="kehehinitialarabic" xMin="142" yMin="226" xMax="842" yMax="1588">
      <contour>
        <pt x="142" y="226" on="1"/>
        <pt x="142" y="1588" on="1"/>
        <pt x="842" y="1588" on="1"/>
        <pt x="842" y="226" on="1"/>
      </contour>
      <contour>
        <pt x="284" y="368" on="1"/>
        <pt x="700" y="368" on="1"/>
        <pt x="700" y="1447" on="1"/>
        <pt x="284" y="1447" on="1"/>
      </contour>
    </TTGlyph>
    <TTGlyph name="kehehmedialarabic" xMin="142" yMin="226" xMax="842" yMax="1588">
      <contour>
        <pt x="142" y="226" on="1"/>
        <pt x="142" y="1588" on="1"/>
        <pt x="842" y="1588" on="1"/>
        <pt x="842" y="226" on="1"/>
      </contour>
      <contour>
        <pt x="284" y="368" on="1"/>
        <pt x="700" y="368" on="1"/>
        <pt x="700" y="1447" on="1"/>
        <pt x="284" y="1447" on="1"/>
      </contour>
    </TTGlyph>
    <TTGlyph name="kirghizyifinal" xMin="142" yMin="226" xMax="842" yMax="1588">
      <contour>
        <pt x="142" y="226" on="1"/>
        <pt x="142" y="1588" on="1"/>
        <pt x="842" y="1588" on="1"/>
        <pt x="842" y="226" on="1"/>
      </contour>
      <contour>
        <pt x="284" y="368" on="1"/>
        <pt x="700" y="368" on="1"/>
        <pt x="700" y="1447" on="1"/>
        <pt x="284" y="1447" on="1"/>
      </contour>
    </TTGlyph>
    <TTGlyph name="lammeemjeeminitialarabic" xMin="142" yMin="226" xMax="842" yMax="1588">
      <contour>
        <pt x="142" y="226" on="1"/>
        <pt x="142" y="1588" on="1"/>
        <pt x="842" y="1588" on="1"/>
        <pt x="842" y="226" on="1"/>
      </contour>
      <contour>
        <pt x="284" y="368" on="1"/>
        <pt x="700" y="368" on="1"/>
        <pt x="700" y="1447" on="1"/>
        <pt x="284" y="1447" on="1"/>
      </contour>
    </TTGlyph>
    <TTGlyph name="lammeemkhahinitialarabic" xMin="142" yMin="226" xMax="842" yMax="1588">
      <contour>
        <pt x="142" y="226" on="1"/>
        <pt x="142" y="1588" on="1"/>
        <pt x="842" y="1588" on="1"/>
        <pt x="842" y="226" on="1"/>
      </contour>
      <contour>
        <pt x="284" y="368" on="1"/>
        <pt x="700" y="368" on="1"/>
        <pt x="700" y="1447" on="1"/>
        <pt x="284" y="1447" on="1"/>
      </contour>
    </TTGlyph>
    <TTGlyph name="lamthreedotsabovefinal" xMin="142" yMin="226" xMax="842" yMax="1588">
      <contour>
        <pt x="142" y="226" on="1"/>
        <pt x="142" y="1588" on="1"/>
        <pt x="842" y="1588" on="1"/>
        <pt x="842" y="226" on="1"/>
      </contour>
      <contour>
        <pt x="284" y="368" on="1"/>
        <pt x="700" y="368" on="1"/>
        <pt x="700" y="1447" on="1"/>
        <pt x="284" y="1447" on="1"/>
      </contour>
    </TTGlyph>
    <TTGlyph name="lamthreedotsaboveinitial" xMin="142" yMin="226" xMax="842" yMax="1588">
      <contour>
        <pt x="142" y="226" on="1"/>
        <pt x="142" y="1588" on="1"/>
        <pt x="842" y="1588" on="1"/>
        <pt x="842" y="226" on="1"/>
      </contour>
      <contour>
        <pt x="284" y="368" on="1"/>
        <pt x="700" y="368" on="1"/>
        <pt x="700" y="1447" on="1"/>
        <pt x="284" y="1447" on="1"/>
      </contour>
    </TTGlyph>
    <TTGlyph name="lamthreedotsabovemedial" xMin="142" yMin="226" xMax="842" yMax="1588">
      <contour>
        <pt x="142" y="226" on="1"/>
        <pt x="142" y="1588" on="1"/>
        <pt x="842" y="1588" on="1"/>
        <pt x="842" y="226" on="1"/>
      </contour>
      <contour>
        <pt x="284" y="368" on="1"/>
        <pt x="700" y="368" on="1"/>
        <pt x="700" y="1447" on="1"/>
        <pt x="284" y="1447" on="1"/>
      </contour>
    </TTGlyph>
    <TTGlyph name="less" xMin="142" yMin="226" xMax="842" yMax="1588">
      <contour>
        <pt x="142" y="226" on="1"/>
        <pt x="142" y="1588" on="1"/>
        <pt x="842" y="1588" on="1"/>
        <pt x="842" y="226" on="1"/>
      </contour>
      <contour>
        <pt x="284" y="368" on="1"/>
        <pt x="700" y="368" on="1"/>
        <pt x="700" y="1447" on="1"/>
        <pt x="284" y="1447" on="1"/>
      </contour>
    </TTGlyph>
    <TTGlyph name="meemmeemisolatedarabic" xMin="142" yMin="226" xMax="842" yMax="1588">
      <contour>
        <pt x="142" y="226" on="1"/>
        <pt x="142" y="1588" on="1"/>
        <pt x="842" y="1588" on="1"/>
        <pt x="842" y="226" on="1"/>
      </contour>
      <contour>
        <pt x="284" y="368" on="1"/>
        <pt x="700" y="368" on="1"/>
        <pt x="700" y="1447" on="1"/>
        <pt x="284" y="1447" on="1"/>
      </contour>
    </TTGlyph>
    <TTGlyph name="multiply" xMin="142" yMin="226" xMax="842" yMax="1588">
      <contour>
        <pt x="142" y="226" on="1"/>
        <pt x="142" y="1588" on="1"/>
        <pt x="842" y="1588" on="1"/>
        <pt x="842" y="226" on="1"/>
      </contour>
      <contour>
        <pt x="284" y="368" on="1"/>
        <pt x="700" y="368" on="1"/>
        <pt x="700" y="1447" on="1"/>
        <pt x="284" y="1447" on="1"/>
      </contour>
    </TTGlyph>
    <TTGlyph name="noonghunnafinalarabic" xMin="142" yMin="226" xMax="842" yMax="1588">
      <contour>
        <pt x="142" y="226" on="1"/>
        <pt x="142" y="1588" on="1"/>
        <pt x="842" y="1588" on="1"/>
        <pt x="842" y="226" on="1"/>
      </contour>
      <contour>
        <pt x="284" y="368" on="1"/>
        <pt x="700" y="368" on="1"/>
        <pt x="700" y="1447" on="1"/>
        <pt x="284" y="1447" on="1"/>
      </contour>
    </TTGlyph>
    <TTGlyph name="noonjeemisolatedarabic" xMin="142" yMin="226" xMax="842" yMax="1588">
      <contour>
        <pt x="142" y="226" on="1"/>
        <pt x="142" y="1588" on="1"/>
        <pt x="842" y="1588" on="1"/>
        <pt x="842" y="226" on="1"/>
      </contour>
      <contour>
        <pt x="284" y="368" on="1"/>
        <pt x="700" y="368" on="1"/>
        <pt x="700" y="1447" on="1"/>
        <pt x="284" y="1447" on="1"/>
      </contour>
    </TTGlyph>
    <TTGlyph name="noonmeemisolatedarabic" xMin="142" yMin="226" xMax="842" yMax="1588">
      <contour>
        <pt x="142" y="226" on="1"/>
        <pt x="142" y="1588" on="1"/>
        <pt x="842" y="1588" on="1"/>
        <pt x="842" y="226" on="1"/>
      </contour>
      <contour>
        <pt x="284" y="368" on="1"/>
        <pt x="700" y="368" on="1"/>
        <pt x="700" y="1447" on="1"/>
        <pt x="284" y="1447" on="1"/>
      </contour>
    </TTGlyph>
    <TTGlyph name="noonringfinal" xMin="142" yMin="226" xMax="842" yMax="1588">
      <contour>
        <pt x="142" y="226" on="1"/>
        <pt x="142" y="1588" on="1"/>
        <pt x="842" y="1588" on="1"/>
        <pt x="842" y="226" on="1"/>
      </contour>
      <contour>
        <pt x="284" y="368" on="1"/>
        <pt x="700" y="368" on="1"/>
        <pt x="700" y="1447" on="1"/>
        <pt x="284" y="1447" on="1"/>
      </contour>
    </TTGlyph>
    <TTGlyph name="noonringinitial" xMin="142" yMin="226" xMax="842" yMax="1588">
      <contour>
        <pt x="142" y="226" on="1"/>
        <pt x="142" y="1588" on="1"/>
        <pt x="842" y="1588" on="1"/>
        <pt x="842" y="226" on="1"/>
      </contour>
      <contour>
        <pt x="284" y="368" on="1"/>
        <pt x="700" y="368" on="1"/>
        <pt x="700" y="1447" on="1"/>
        <pt x="284" y="1447" on="1"/>
      </contour>
    </TTGlyph>
    <TTGlyph name="noonringmedial" xMin="142" yMin="226" xMax="842" yMax="1588">
      <contour>
        <pt x="142" y="226" on="1"/>
        <pt x="142" y="1588" on="1"/>
        <pt x="842" y="1588" on="1"/>
        <pt x="842" y="226" on="1"/>
      </contour>
      <contour>
        <pt x="284" y="368" on="1"/>
        <pt x="700" y="368" on="1"/>
        <pt x="700" y="1447" on="1"/>
        <pt x="284" y="1447" on="1"/>
      </contour>
    </TTGlyph>
    <TTGlyph name="numbersign" xMin="142" yMin="226" xMax="842" yMax="1588">
      <contour>
        <pt x="142" y="226" on="1"/>
        <pt x="142" y="1588" on="1"/>
        <pt x="842" y="1588" on="1"/>
        <pt x="842" y="226" on="1"/>
      </contour>
      <contour>
        <pt x="284" y="368" on="1"/>
        <pt x="700" y="368" on="1"/>
        <pt x="700" y="1447" on="1"/>
        <pt x="284" y="1447" on="1"/>
      </contour>
    </TTGlyph>
    <TTGlyph name="parenleft" xMin="142" yMin="226" xMax="842" yMax="1588">
      <contour>
        <pt x="142" y="226" on="1"/>
        <pt x="142" y="1588" on="1"/>
        <pt x="842" y="1588" on="1"/>
        <pt x="842" y="226" on="1"/>
      </contour>
      <contour>
        <pt x="284" y="368" on="1"/>
        <pt x="700" y="368" on="1"/>
        <pt x="700" y="1447" on="1"/>
        <pt x="284" y="1447" on="1"/>
      </contour>
    </TTGlyph>
    <TTGlyph name="parenright" xMin="142" yMin="226" xMax="842" yMax="1588">
      <contour>
        <pt x="142" y="226" on="1"/>
        <pt x="142" y="1588" on="1"/>
        <pt x="842" y="1588" on="1"/>
        <pt x="842" y="226" on="1"/>
      </contour>
      <contour>
        <pt x="284" y="368" on="1"/>
        <pt x="700" y="368" on="1"/>
        <pt x="700" y="1447" on="1"/>
        <pt x="284" y="1447" on="1"/>
      </contour>
    </TTGlyph>
    <TTGlyph name="pashtoefinal" xMin="142" yMin="226" xMax="842" yMax="1588">
      <contour>
        <pt x="142" y="226" on="1"/>
        <pt x="142" y="1588" on="1"/>
        <pt x="842" y="1588" on="1"/>
        <pt x="842" y="226" on="1"/>
      </contour>
      <contour>
        <pt x="284" y="368" on="1"/>
        <pt x="700" y="368" on="1"/>
        <pt x="700" y="1447" on="1"/>
        <pt x="284" y="1447" on="1"/>
      </contour>
    </TTGlyph>
    <TTGlyph name="pashtoeinitial" xMin="142" yMin="226" xMax="842" yMax="1588">
      <contour>
        <pt x="142" y="226" on="1"/>
        <pt x="142" y="1588" on="1"/>
        <pt x="842" y="1588" on="1"/>
        <pt x="842" y="226" on="1"/>
      </contour>
      <contour>
        <pt x="284" y="368" on="1"/>
        <pt x="700" y="368" on="1"/>
        <pt x="700" y="1447" on="1"/>
        <pt x="284" y="1447" on="1"/>
      </contour>
    </TTGlyph>
    <TTGlyph name="pashtoemedial" xMin="142" yMin="226" xMax="842" yMax="1588">
      <contour>
        <pt x="142" y="226" on="1"/>
        <pt x="142" y="1588" on="1"/>
        <pt x="842" y="1588" on="1"/>
        <pt x="842" y="226" on="1"/>
      </contour>
      <contour>
        <pt x="284" y="368" on="1"/>
        <pt x="700" y="368" on="1"/>
        <pt x="700" y="1447" on="1"/>
        <pt x="284" y="1447" on="1"/>
      </contour>
    </TTGlyph>
    <TTGlyph name="pehfinalarabic" xMin="142" yMin="226" xMax="842" yMax="1588">
      <contour>
        <pt x="142" y="226" on="1"/>
        <pt x="142" y="1588" on="1"/>
        <pt x="842" y="1588" on="1"/>
        <pt x="842" y="226" on="1"/>
      </contour>
      <contour>
        <pt x="284" y="368" on="1"/>
        <pt x="700" y="368" on="1"/>
        <pt x="700" y="1447" on="1"/>
        <pt x="284" y="1447" on="1"/>
      </contour>
    </TTGlyph>
    <TTGlyph name="pehinitialarabic" xMin="142" yMin="226" xMax="842" yMax="1588">
      <contour>
        <pt x="142" y="226" on="1"/>
        <pt x="142" y="1588" on="1"/>
        <pt x="842" y="1588" on="1"/>
        <pt x="842" y="226" on="1"/>
      </contour>
      <contour>
        <pt x="284" y="368" on="1"/>
        <pt x="700" y="368" on="1"/>
        <pt x="700" y="1447" on="1"/>
        <pt x="284" y="1447" on="1"/>
      </contour>
    </TTGlyph>
    <TTGlyph name="pehmedialarabic" xMin="142" yMin="226" xMax="842" yMax="1588">
      <contour>
        <pt x="142" y="226" on="1"/>
        <pt x="142" y="1588" on="1"/>
        <pt x="842" y="1588" on="1"/>
        <pt x="842" y="226" on="1"/>
      </contour>
      <contour>
        <pt x="284" y="368" on="1"/>
        <pt x="700" y="368" on="1"/>
        <pt x="700" y="1447" on="1"/>
        <pt x="284" y="1447" on="1"/>
      </contour>
    </TTGlyph>
    <TTGlyph name="percent" xMin="142" yMin="226" xMax="842" yMax="1588">
      <contour>
        <pt x="142" y="226" on="1"/>
        <pt x="142" y="1588" on="1"/>
        <pt x="842" y="1588" on="1"/>
        <pt x="842" y="226" on="1"/>
      </contour>
      <contour>
        <pt x="284" y="368" on="1"/>
        <pt x="700" y="368" on="1"/>
        <pt x="700" y="1447" on="1"/>
        <pt x="284" y="1447" on="1"/>
      </contour>
    </TTGlyph>
    <TTGlyph name="period" xMin="142" yMin="226" xMax="842" yMax="1588">
      <contour>
        <pt x="142" y="226" on="1"/>
        <pt x="142" y="1588" on="1"/>
        <pt x="842" y="1588" on="1"/>
        <pt x="842" y="226" on="1"/>
      </contour>
      <contour>
        <pt x="284" y="368" on="1"/>
        <pt x="700" y="368" on="1"/>
        <pt x="700" y="1447" on="1"/>
        <pt x="284" y="1447" on="1"/>
      </contour>
    </TTGlyph>
    <TTGlyph name="plus" xMin="142" yMin="226" xMax="842" yMax="1588">
      <contour>
        <pt x="142" y="226" on="1"/>
        <pt x="142" y="1588" on="1"/>
        <pt x="842" y="1588" on="1"/>
        <pt x="842" y="226" on="1"/>
      </contour>
      <contour>
        <pt x="284" y="368" on="1"/>
        <pt x="700" y="368" on="1"/>
        <pt x="700" y="1447" on="1"/>
        <pt x="284" y="1447" on="1"/>
      </contour>
    </TTGlyph>
    <TTGlyph name="quotedbl" xMin="142" yMin="226" xMax="842" yMax="1588">
      <contour>
        <pt x="142" y="226" on="1"/>
        <pt x="142" y="1588" on="1"/>
        <pt x="842" y="1588" on="1"/>
        <pt x="842" y="226" on="1"/>
      </contour>
      <contour>
        <pt x="284" y="368" on="1"/>
        <pt x="700" y="368" on="1"/>
        <pt x="700" y="1447" on="1"/>
        <pt x="284" y="1447" on="1"/>
      </contour>
    </TTGlyph>
    <TTGlyph name="quotesingle" xMin="142" yMin="226" xMax="842" yMax="1588">
      <contour>
        <pt x="142" y="226" on="1"/>
        <pt x="142" y="1588" on="1"/>
        <pt x="842" y="1588" on="1"/>
        <pt x="842" y="226" on="1"/>
      </contour>
      <contour>
        <pt x="284" y="368" on="1"/>
        <pt x="700" y="368" on="1"/>
        <pt x="700" y="1447" on="1"/>
        <pt x="284" y="1447" on="1"/>
      </contour>
    </TTGlyph>
    <TTGlyph name="rehdotbelowdotabovefinal" xMin="142" yMin="226" xMax="842" yMax="1588">
      <contour>
        <pt x="142" y="226" on="1"/>
        <pt x="142" y="1588" on="1"/>
        <pt x="842" y="1588" on="1"/>
        <pt x="842" y="226" on="1"/>
      </contour>
      <contour>
        <pt x="284" y="368" on="1"/>
        <pt x="700" y="368" on="1"/>
        <pt x="700" y="1447" on="1"/>
        <pt x="284" y="1447" on="1"/>
      </contour>
    </TTGlyph>
    <TTGlyph name="rehringfinal" xMin="142" yMin="226" xMax="842" yMax="1588">
      <contour>
        <pt x="142" y="226" on="1"/>
        <pt x="142" y="1588" on="1"/>
        <pt x="842" y="1588" on="1"/>
        <pt x="842" y="226" on="1"/>
      </contour>
      <contour>
        <pt x="284" y="368" on="1"/>
        <pt x="700" y="368" on="1"/>
        <pt x="700" y="1447" on="1"/>
        <pt x="284" y="1447" on="1"/>
      </contour>
    </TTGlyph>
    <TTGlyph name="rrehfinalarabic" xMin="142" yMin="226" xMax="842" yMax="1588">
      <contour>
        <pt x="142" y="226" on="1"/>
        <pt x="142" y="1588" on="1"/>
        <pt x="842" y="1588" on="1"/>
        <pt x="842" y="226" on="1"/>
      </contour>
      <contour>
        <pt x="284" y="368" on="1"/>
        <pt x="700" y="368" on="1"/>
        <pt x="700" y="1447" on="1"/>
        <pt x="284" y="1447" on="1"/>
      </contour>
    </TTGlyph>
    <TTGlyph name="seendotbelowdotabovefinal" xMin="142" yMin="226" xMax="842" yMax="1588">
      <contour>
        <pt x="142" y="226" on="1"/>
        <pt x="142" y="1588" on="1"/>
        <pt x="842" y="1588" on="1"/>
        <pt x="842" y="226" on="1"/>
      </contour>
      <contour>
        <pt x="284" y="368" on="1"/>
        <pt x="700" y="368" on="1"/>
        <pt x="700" y="1447" on="1"/>
        <pt x="284" y="1447" on="1"/>
      </contour>
    </TTGlyph>
    <TTGlyph name="seendotbelowdotaboveinitial" xMin="142" yMin="226" xMax="842" yMax="1588">
      <contour>
        <pt x="142" y="226" on="1"/>
        <pt x="142" y="1588" on="1"/>
        <pt x="842" y="1588" on="1"/>
        <pt x="842" y="226" on="1"/>
      </contour>
      <contour>
        <pt x="284" y="368" on="1"/>
        <pt x="700" y="368" on="1"/>
        <pt x="700" y="1447" on="1"/>
        <pt x="284" y="1447" on="1"/>
      </contour>
    </TTGlyph>
    <TTGlyph name="seendotbelowdotabovemedial" xMin="142" yMin="226" xMax="842" yMax="1588">
      <contour>
        <pt x="142" y="226" on="1"/>
        <pt x="142" y="1588" on="1"/>
        <pt x="842" y="1588" on="1"/>
        <pt x="842" y="226" on="1"/>
      </contour>
      <contour>
        <pt x="284" y="368" on="1"/>
        <pt x="700" y="368" on="1"/>
        <pt x="700" y="1447" on="1"/>
        <pt x="284" y="1447" on="1"/>
      </contour>
    </TTGlyph>
    <TTGlyph name="shaddadammaarabic" xMin="142" yMin="226" xMax="842" yMax="1588">
      <contour>
        <pt x="142" y="226" on="1"/>
        <pt x="142" y="1588" on="1"/>
        <pt x="842" y="1588" on="1"/>
        <pt x="842" y="226" on="1"/>
      </contour>
      <contour>
        <pt x="284" y="368" on="1"/>
        <pt x="700" y="368" on="1"/>
        <pt x="700" y="1447" on="1"/>
        <pt x="284" y="1447" on="1"/>
      </contour>
    </TTGlyph>
    <TTGlyph name="shaddadammatanarabic" xMin="142" yMin="226" xMax="842" yMax="1588">
      <contour>
        <pt x="142" y="226" on="1"/>
        <pt x="142" y="1588" on="1"/>
        <pt x="842" y="1588" on="1"/>
        <pt x="842" y="226" on="1"/>
      </contour>
      <contour>
        <pt x="284" y="368" on="1"/>
        <pt x="700" y="368" on="1"/>
        <pt x="700" y="1447" on="1"/>
        <pt x="284" y="1447" on="1"/>
      </contour>
    </TTGlyph>
    <TTGlyph name="shaddafathaarabic" xMin="142" yMin="226" xMax="842" yMax="1588">
      <contour>
        <pt x="142" y="226" on="1"/>
        <pt x="142" y="1588" on="1"/>
        <pt x="842" y="1588" on="1"/>
        <pt x="842" y="226" on="1"/>
      </contour>
      <contour>
        <pt x="284" y="368" on="1"/>
        <pt x="700" y="368" on="1"/>
        <pt x="700" y="1447" on="1"/>
        <pt x="284" y="1447" on="1"/>
      </contour>
    </TTGlyph>
    <TTGlyph name="shaddakasraarabic" xMin="142" yMin="226" xMax="842" yMax="1588">
      <contour>
        <pt x="142" y="226" on="1"/>
        <pt x="142" y="1588" on="1"/>
        <pt x="842" y="1588" on="1"/>
        <pt x="842" y="226" on="1"/>
      </contour>
      <contour>
        <pt x="284" y="368" on="1"/>
        <pt x="700" y="368" on="1"/>
        <pt x="700" y="1447" on="1"/>
        <pt x="284" y="1447" on="1"/>
      </contour>
    </TTGlyph>
    <TTGlyph name="shaddakasratanarabic" xMin="142" yMin="226" xMax="842" yMax="1588">
      <contour>
        <pt x="142" y="226" on="1"/>
        <pt x="142" y="1588" on="1"/>
        <pt x="842" y="1588" on="1"/>
        <pt x="842" y="226" on="1"/>
      </contour>
      <contour>
        <pt x="284" y="368" on="1"/>
        <pt x="700" y="368" on="1"/>
        <pt x="700" y="1447" on="1"/>
        <pt x="284" y="1447" on="1"/>
      </contour>
    </TTGlyph>
    <TTGlyph name="slash" xMin="142" yMin="226" xMax="842" yMax="1588">
      <contour>
        <pt x="142" y="226" on="1"/>
        <pt x="142" y="1588" on="1"/>
        <pt x="842" y="1588" on="1"/>
        <pt x="842" y="226" on="1"/>
      </contour>
      <contour>
        <pt x="284" y="368" on="1"/>
        <pt x="700" y="368" on="1"/>
        <pt x="700" y="1447" on="1"/>
        <pt x="284" y="1447" on="1"/>
      </contour>
    </TTGlyph>
    <TTGlyph name="space" xMin="142" yMin="226" xMax="842" yMax="1588">
      <contour>
        <pt x="142" y="226" on="1"/>
        <pt x="142" y="1588" on="1"/>
        <pt x="842" y="1588" on="1"/>
        <pt x="842" y="226" on="1"/>
      </contour>
      <contour>
        <pt x="284" y="368" on="1"/>
        <pt x="700" y="368" on="1"/>
        <pt x="700" y="1447" on="1"/>
        <pt x="284" y="1447" on="1"/>
      </contour>
    </TTGlyph>
    <TTGlyph name="tchehfinalarabic" xMin="142" yMin="226" xMax="842" yMax="1588">
      <contour>
        <pt x="142" y="226" on="1"/>
        <pt x="142" y="1588" on="1"/>
        <pt x="842" y="1588" on="1"/>
        <pt x="842" y="226" on="1"/>
      </contour>
      <contour>
        <pt x="284" y="368" on="1"/>
        <pt x="700" y="368" on="1"/>
        <pt x="700" y="1447" on="1"/>
        <pt x="284" y="1447" on="1"/>
      </contour>
    </TTGlyph>
    <TTGlyph name="tchehinitialarabic" xMin="142" yMin="226" xMax="842" yMax="1588">
      <contour>
        <pt x="142" y="226" on="1"/>
        <pt x="142" y="1588" on="1"/>
        <pt x="842" y="1588" on="1"/>
        <pt x="842" y="226" on="1"/>
      </contour>
      <contour>
        <pt x="284" y="368" on="1"/>
        <pt x="700" y="368" on="1"/>
        <pt x="700" y="1447" on="1"/>
        <pt x="284" y="1447" on="1"/>
      </contour>
    </TTGlyph>
    <TTGlyph name="tchehmedialarabic" xMin="142" yMin="226" xMax="842" yMax="1588">
      <contour>
        <pt x="142" y="226" on="1"/>
        <pt x="142" y="1588" on="1"/>
        <pt x="842" y="1588" on="1"/>
        <pt x="842" y="226" on="1"/>
      </contour>
      <contour>
        <pt x="284" y="368" on="1"/>
        <pt x="700" y="368" on="1"/>
        <pt x="700" y="1447" on="1"/>
        <pt x="284" y="1447" on="1"/>
      </contour>
    </TTGlyph>
    <TTGlyph name="tehhahisolatedarabic" xMin="142" yMin="226" xMax="842" yMax="1588">
      <contour>
        <pt x="142" y="226" on="1"/>
        <pt x="142" y="1588" on="1"/>
        <pt x="842" y="1588" on="1"/>
        <pt x="842" y="226" on="1"/>
      </contour>
      <contour>
        <pt x="284" y="368" on="1"/>
        <pt x="700" y="368" on="1"/>
        <pt x="700" y="1447" on="1"/>
        <pt x="284" y="1447" on="1"/>
      </contour>
    </TTGlyph>
    <TTGlyph name="tehjeemisolatedarabic" xMin="142" yMin="226" xMax="842" yMax="1588">
      <contour>
        <pt x="142" y="226" on="1"/>
        <pt x="142" y="1588" on="1"/>
        <pt x="842" y="1588" on="1"/>
        <pt x="842" y="226" on="1"/>
      </contour>
      <contour>
        <pt x="284" y="368" on="1"/>
        <pt x="700" y="368" on="1"/>
        <pt x="700" y="1447" on="1"/>
        <pt x="284" y="1447" on="1"/>
      </contour>
    </TTGlyph>
    <TTGlyph name="tehmeemisolatedarabic" xMin="142" yMin="226" xMax="842" yMax="1588">
      <contour>
        <pt x="142" y="226" on="1"/>
        <pt x="142" y="1588" on="1"/>
        <pt x="842" y="1588" on="1"/>
        <pt x="842" y="226" on="1"/>
      </contour>
      <contour>
        <pt x="284" y="368" on="1"/>
        <pt x="700" y="368" on="1"/>
        <pt x="700" y="1447" on="1"/>
        <pt x="284" y="1447" on="1"/>
      </contour>
    </TTGlyph>
    <TTGlyph name="tehnoonfinalarabic" xMin="142" yMin="226" xMax="842" yMax="1588">
      <contour>
        <pt x="142" y="226" on="1"/>
        <pt x="142" y="1588" on="1"/>
        <pt x="842" y="1588" on="1"/>
        <pt x="842" y="226" on="1"/>
      </contour>
      <contour>
        <pt x="284" y="368" on="1"/>
        <pt x="700" y="368" on="1"/>
        <pt x="700" y="1447" on="1"/>
        <pt x="284" y="1447" on="1"/>
      </contour>
    </TTGlyph>
    <TTGlyph name="tehringfinal" xMin="142" yMin="226" xMax="842" yMax="1588">
      <contour>
        <pt x="142" y="226" on="1"/>
        <pt x="142" y="1588" on="1"/>
        <pt x="842" y="1588" on="1"/>
        <pt x="842" y="226" on="1"/>
      </contour>
      <contour>
        <pt x="284" y="368" on="1"/>
        <pt x="700" y="368" on="1"/>
        <pt x="700" y="1447" on="1"/>
        <pt x="284" y="1447" on="1"/>
      </contour>
    </TTGlyph>
    <TTGlyph name="tehringinitial" xMin="142" yMin="226" xMax="842" yMax="1588">
      <contour>
        <pt x="142" y="226" on="1"/>
        <pt x="142" y="1588" on="1"/>
        <pt x="842" y="1588" on="1"/>
        <pt x="842" y="226" on="1"/>
      </contour>
      <contour>
        <pt x="284" y="368" on="1"/>
        <pt x="700" y="368" on="1"/>
        <pt x="700" y="1447" on="1"/>
        <pt x="284" y="1447" on="1"/>
      </contour>
    </TTGlyph>
    <TTGlyph name="tehringmedial" xMin="142" yMin="226" xMax="842" yMax="1588">
      <contour>
        <pt x="142" y="226" on="1"/>
        <pt x="142" y="1588" on="1"/>
        <pt x="842" y="1588" on="1"/>
        <pt x="842" y="226" on="1"/>
      </contour>
      <contour>
        <pt x="284" y="368" on="1"/>
        <pt x="700" y="368" on="1"/>
        <pt x="700" y="1447" on="1"/>
        <pt x="284" y="1447" on="1"/>
      </contour>
    </TTGlyph>
    <TTGlyph name="ttehfinalarabic" xMin="142" yMin="226" xMax="842" yMax="1588">
      <contour>
        <pt x="142" y="226" on="1"/>
        <pt x="142" y="1588" on="1"/>
        <pt x="842" y="1588" on="1"/>
        <pt x="842" y="226" on="1"/>
      </contour>
      <contour>
        <pt x="284" y="368" on="1"/>
        <pt x="700" y="368" on="1"/>
        <pt x="700" y="1447" on="1"/>
        <pt x="284" y="1447" on="1"/>
      </contour>
    </TTGlyph>
    <TTGlyph name="ttehinitialarabic" xMin="142" yMin="226" xMax="842" yMax="1588">
      <contour>
        <pt x="142" y="226" on="1"/>
        <pt x="142" y="1588" on="1"/>
        <pt x="842" y="1588" on="1"/>
        <pt x="842" y="226" on="1"/>
      </contour>
      <contour>
        <pt x="284" y="368" on="1"/>
        <pt x="700" y="368" on="1"/>
        <pt x="700" y="1447" on="1"/>
        <pt x="284" y="1447" on="1"/>
      </contour>
    </TTGlyph>
    <TTGlyph name="ttehmedialarabic" xMin="142" yMin="226" xMax="842" yMax="1588">
      <contour>
        <pt x="142" y="226" on="1"/>
        <pt x="142" y="1588" on="1"/>
        <pt x="842" y="1588" on="1"/>
        <pt x="842" y="226" on="1"/>
      </contour>
      <contour>
        <pt x="284" y="368" on="1"/>
        <pt x="700" y="368" on="1"/>
        <pt x="700" y="1447" on="1"/>
        <pt x="284" y="1447" on="1"/>
      </contour>
    </TTGlyph>
    <TTGlyph name="uni000D" xMin="142" yMin="226" xMax="842" yMax="1588">
      <contour>
        <pt x="142" y="226" on="1"/>
        <pt x="142" y="1588" on="1"/>
        <pt x="842" y="1588" on="1"/>
        <pt x="842" y="226" on="1"/>
      </contour>
      <contour>
        <pt x="284" y="368" on="1"/>
        <pt x="700" y="368" on="1"/>
        <pt x="700" y="1447" on="1"/>
        <pt x="284" y="1447" on="1"/>
      </contour>
    </TTGlyph>
    <TTGlyph name="uni00A0" xMin="142" yMin="226" xMax="842" yMax="1588">
      <contour>
        <pt x="142" y="226" on="1"/>
        <pt x="142" y="1588" on="1"/>
        <pt x="842" y="1588" on="1"/>
        <pt x="842" y="226" on="1"/>
      </contour>
      <contour>
        <pt x="284" y="368" on="1"/>
        <pt x="700" y="368" on="1"/>
        <pt x="700" y="1447" on="1"/>
        <pt x="284" y="1447" on="1"/>
      </contour>
    </TTGlyph>
    <TTGlyph name="uni00AD" xMin="142" yMin="226" xMax="842" yMax="1588">
      <contour>
        <pt x="142" y="226" on="1"/>
        <pt x="142" y="1588" on="1"/>
        <pt x="842" y="1588" on="1"/>
        <pt x="842" y="226" on="1"/>
      </contour>
      <contour>
        <pt x="284" y="368" on="1"/>
        <pt x="700" y="368" on="1"/>
        <pt x="700" y="1447" on="1"/>
        <pt x="284" y="1447" on="1"/>
      </contour>
    </TTGlyph>
    <TTGlyph name="uni0653" xMin="142" yMin="226" xMax="842" yMax="1588">
      <contour>
        <pt x="142" y="226" on="1"/>
        <pt x="142" y="1588" on="1"/>
        <pt x="842" y="1588" on="1"/>
        <pt x="842" y="226" on="1"/>
      </contour>
      <contour>
        <pt x="284" y="368" on="1"/>
        <pt x="700" y="368" on="1"/>
        <pt x="700" y="1447" on="1"/>
        <pt x="284" y="1447" on="1"/>
      </contour>
    </TTGlyph>
    <TTGlyph name="uni0654" xMin="142" yMin="226" xMax="842" yMax="1588">
      <contour>
        <pt x="142" y="226" on="1"/>
        <pt x="142" y="1588" on="1"/>
        <pt x="842" y="1588" on="1"/>
        <pt x="842" y="226" on="1"/>
      </contour>
      <contour>
        <pt x="284" y="368" on="1"/>
        <pt x="700" y="368" on="1"/>
        <pt x="700" y="1447" on="1"/>
        <pt x="284" y="1447" on="1"/>
      </contour>
    </TTGlyph>
    <TTGlyph name="uni0655" xMin="142" yMin="226" xMax="842" yMax="1588">
      <contour>
        <pt x="142" y="226" on="1"/>
        <pt x="142" y="1588" on="1"/>
        <pt x="842" y="1588" on="1"/>
        <pt x="842" y="226" on="1"/>
      </contour>
      <contour>
        <pt x="284" y="368" on="1"/>
        <pt x="700" y="368" on="1"/>
        <pt x="700" y="1447" on="1"/>
        <pt x="284" y="1447" on="1"/>
      </contour>
    </TTGlyph>
    <TTGlyph name="uni066B" xMin="142" yMin="226" xMax="842" yMax="1588">
      <contour>
        <pt x="142" y="226" on="1"/>
        <pt x="142" y="1588" on="1"/>
        <pt x="842" y="1588" on="1"/>
        <pt x="842" y="226" on="1"/>
      </contour>
      <contour>
        <pt x="284" y="368" on="1"/>
        <pt x="700" y="368" on="1"/>
        <pt x="700" y="1447" on="1"/>
        <pt x="284" y="1447" on="1"/>
      </contour>
    </TTGlyph>
    <TTGlyph name="uni066C" xMin="142" yMin="226" xMax="842" yMax="1588">
      <contour>
        <pt x="142" y="226" on="1"/>
        <pt x="142" y="1588" on="1"/>
        <pt x="842" y="1588" on="1"/>
        <pt x="842" y="226" on="1"/>
      </contour>
      <contour>
        <pt x="284" y="368" on="1"/>
        <pt x="700" y="368" on="1"/>
        <pt x="700" y="1447" on="1"/>
        <pt x="284" y="1447" on="1"/>
      </contour>
    </TTGlyph>
    <TTGlyph name="uni0671" xMin="142" yMin="226" xMax="842" yMax="1588">
      <contour>
        <pt x="142" y="226" on="1"/>
        <pt x="142" y="1588" on="1"/>
        <pt x="842" y="1588" on="1"/>
        <pt x="842" y="226" on="1"/>
      </contour>
      <contour>
        <pt x="284" y="368" on="1"/>
        <pt x="700" y="368" on="1"/>
        <pt x="700" y="1447" on="1"/>
        <pt x="284" y="1447" on="1"/>
      </contour>
    </TTGlyph>
    <TTGlyph name="uni067C" xMin="142" yMin="226" xMax="842" yMax="1588">
      <contour>
        <pt x="142" y="226" on="1"/>
        <pt x="142" y="1588" on="1"/>
        <pt x="842" y="1588" on="1"/>
        <pt x="842" y="226" on="1"/>
      </contour>
      <contour>
        <pt x="284" y="368" on="1"/>
        <pt x="700" y="368" on="1"/>
        <pt x="700" y="1447" on="1"/>
        <pt x="284" y="1447" on="1"/>
      </contour>
    </TTGlyph>
    <TTGlyph name="uni0681" xMin="142" yMin="226" xMax="842" yMax="1588">
      <contour>
        <pt x="142" y="226" on="1"/>
        <pt x="142" y="1588" on="1"/>
        <pt x="842" y="1588" on="1"/>
        <pt x="842" y="226" on="1"/>
      </contour>
      <contour>
        <pt x="284" y="368" on="1"/>
        <pt x="700" y="368" on="1"/>
        <pt x="700" y="1447" on="1"/>
        <pt x="284" y="1447" on="1"/>
      </contour>
    </TTGlyph>
    <TTGlyph name="uni0685" xMin="142" yMin="226" xMax="842" yMax="1588">
      <contour>
        <pt x="142" y="226" on="1"/>
        <pt x="142" y="1588" on="1"/>
        <pt x="842" y="1588" on="1"/>
        <pt x="842" y="226" on="1"/>
      </contour>
      <contour>
        <pt x="284" y="368" on="1"/>
        <pt x="700" y="368" on="1"/>
        <pt x="700" y="1447" on="1"/>
        <pt x="284" y="1447" on="1"/>
      </contour>
    </TTGlyph>
    <TTGlyph name="uni0689" xMin="142" yMin="226" xMax="842" yMax="1588">
      <contour>
        <pt x="142" y="226" on="1"/>
        <pt x="142" y="1588" on="1"/>
        <pt x="842" y="1588" on="1"/>
        <pt x="842" y="226" on="1"/>
      </contour>
      <contour>
        <pt x="284" y="368" on="1"/>
        <pt x="700" y="368" on="1"/>
        <pt x="700" y="1447" on="1"/>
        <pt x="284" y="1447" on="1"/>
      </contour>
    </TTGlyph>
    <TTGlyph name="uni0693" xMin="142" yMin="226" xMax="842" yMax="1588">
      <contour>
        <pt x="142" y="226" on="1"/>
        <pt x="142" y="1588" on="1"/>
        <pt x="842" y="1588" on="1"/>
        <pt x="842" y="226" on="1"/>
      </contour>
      <contour>
        <pt x="284" y="368" on="1"/>
        <pt x="700" y="368" on="1"/>
        <pt x="700" y="1447" on="1"/>
        <pt x="284" y="1447" on="1"/>
      </contour>
    </TTGlyph>
    <TTGlyph name="uni0696" xMin="142" yMin="226" xMax="842" yMax="1588">
      <contour>
        <pt x="142" y="226" on="1"/>
        <pt x="142" y="1588" on="1"/>
        <pt x="842" y="1588" on="1"/>
        <pt x="842" y="226" on="1"/>
      </contour>
      <contour>
        <pt x="284" y="368" on="1"/>
        <pt x="700" y="368" on="1"/>
        <pt x="700" y="1447" on="1"/>
        <pt x="284" y="1447" on="1"/>
      </contour>
    </TTGlyph>
    <TTGlyph name="uni069A" xMin="142" yMin="226" xMax="842" yMax="1588">
      <contour>
        <pt x="142" y="226" on="1"/>
        <pt x="142" y="1588" on="1"/>
        <pt x="842" y="1588" on="1"/>
        <pt x="842" y="226" on="1"/>
      </contour>
      <contour>
        <pt x="284" y="368" on="1"/>
        <pt x="700" y="368" on="1"/>
        <pt x="700" y="1447" on="1"/>
        <pt x="284" y="1447" on="1"/>
      </contour>
    </TTGlyph>
    <TTGlyph name="uni06A9" xMin="142" yMin="226" xMax="842" yMax="1588">
      <contour>
        <pt x="142" y="226" on="1"/>
        <pt x="142" y="1588" on="1"/>
        <pt x="842" y="1588" on="1"/>
        <pt x="842" y="226" on="1"/>
      </contour>
      <contour>
        <pt x="284" y="368" on="1"/>
        <pt x="700" y="368" on="1"/>
        <pt x="700" y="1447" on="1"/>
        <pt x="284" y="1447" on="1"/>
      </contour>
    </TTGlyph>
    <TTGlyph name="uni06AB" xMin="142" yMin="226" xMax="842" yMax="1588">
      <contour>
        <pt x="142" y="226" on="1"/>
        <pt x="142" y="1588" on="1"/>
        <pt x="842" y="1588" on="1"/>
        <pt x="842" y="226" on="1"/>
      </contour>
      <contour>
        <pt x="284" y="368" on="1"/>
        <pt x="700" y="368" on="1"/>
        <pt x="700" y="1447" on="1"/>
        <pt x="284" y="1447" on="1"/>
      </contour>
    </TTGlyph>
    <TTGlyph name="uni06B7" xMin="142" yMin="226" xMax="842" yMax="1588">
      <contour>
        <pt x="142" y="226" on="1"/>
        <pt x="142" y="1588" on="1"/>
        <pt x="842" y="1588" on="1"/>
        <pt x="842" y="226" on="1"/>
      </contour>
      <contour>
        <pt x="284" y="368" on="1"/>
        <pt x="700" y="368" on="1"/>
        <pt x="700" y="1447" on="1"/>
        <pt x="284" y="1447" on="1"/>
      </contour>
    </TTGlyph>
    <TTGlyph name="uni06BC" xMin="142" yMin="226" xMax="842" yMax="1588">
      <contour>
        <pt x="142" y="226" on="1"/>
        <pt x="142" y="1588" on="1"/>
        <pt x="842" y="1588" on="1"/>
        <pt x="842" y="226" on="1"/>
      </contour>
      <contour>
        <pt x="284" y="368" on="1"/>
        <pt x="700" y="368" on="1"/>
        <pt x="700" y="1447" on="1"/>
        <pt x="284" y="1447" on="1"/>
      </contour>
    </TTGlyph>
    <TTGlyph name="uni06BE" xMin="142" yMin="226" xMax="842" yMax="1588">
      <contour>
        <pt x="142" y="226" on="1"/>
        <pt x="142" y="1588" on="1"/>
        <pt x="842" y="1588" on="1"/>
        <pt x="842" y="226" on="1"/>
      </contour>
      <contour>
        <pt x="284" y="368" on="1"/>
        <pt x="700" y="368" on="1"/>
        <pt x="700" y="1447" on="1"/>
        <pt x="284" y="1447" on="1"/>
      </contour>
    </TTGlyph>
    <TTGlyph name="uni06C2" xMin="142" yMin="226" xMax="842" yMax="1588">
      <contour>
        <pt x="142" y="226" on="1"/>
        <pt x="142" y="1588" on="1"/>
        <pt x="842" y="1588" on="1"/>
        <pt x="842" y="226" on="1"/>
      </contour>
      <contour>
        <pt x="284" y="368" on="1"/>
        <pt x="700" y="368" on="1"/>
        <pt x="700" y="1447" on="1"/>
        <pt x="284" y="1447" on="1"/>
      </contour>
    </TTGlyph>
    <TTGlyph name="uni06C7" xMin="142" yMin="226" xMax="842" yMax="1588">
      <contour>
        <pt x="142" y="226" on="1"/>
        <pt x="142" y="1588" on="1"/>
        <pt x="842" y="1588" on="1"/>
        <pt x="842" y="226" on="1"/>
      </contour>
      <contour>
        <pt x="284" y="368" on="1"/>
        <pt x="700" y="368" on="1"/>
        <pt x="700" y="1447" on="1"/>
        <pt x="284" y="1447" on="1"/>
      </contour>
    </TTGlyph>
    <TTGlyph name="uni06C9" xMin="142" yMin="226" xMax="842" yMax="1588">
      <contour>
        <pt x="142" y="226" on="1"/>
        <pt x="142" y="1588" on="1"/>
        <pt x="842" y="1588" on="1"/>
        <pt x="842" y="226" on="1"/>
      </contour>
      <contour>
        <pt x="284" y="368" on="1"/>
        <pt x="700" y="368" on="1"/>
        <pt x="700" y="1447" on="1"/>
        <pt x="284" y="1447" on="1"/>
      </contour>
    </TTGlyph>
    <TTGlyph name="uni06CC" xMin="142" yMin="226" xMax="842" yMax="1588">
      <contour>
        <pt x="142" y="226" on="1"/>
        <pt x="142" y="1588" on="1"/>
        <pt x="842" y="1588" on="1"/>
        <pt x="842" y="226" on="1"/>
      </contour>
      <contour>
        <pt x="284" y="368" on="1"/>
        <pt x="700" y="368" on="1"/>
        <pt x="700" y="1447" on="1"/>
        <pt x="284" y="1447" on="1"/>
      </contour>
    </TTGlyph>
    <TTGlyph name="uni06CD" xMin="142" yMin="226" xMax="842" yMax="1588">
      <contour>
        <pt x="142" y="226" on="1"/>
        <pt x="142" y="1588" on="1"/>
        <pt x="842" y="1588" on="1"/>
        <pt x="842" y="226" on="1"/>
      </contour>
      <contour>
        <pt x="284" y="368" on="1"/>
        <pt x="700" y="368" on="1"/>
        <pt x="700" y="1447" on="1"/>
        <pt x="284" y="1447" on="1"/>
      </contour>
    </TTGlyph>
    <TTGlyph name="uni06D0" xMin="142" yMin="226" xMax="842" yMax="1588">
      <contour>
        <pt x="142" y="226" on="1"/>
        <pt x="142" y="1588" on="1"/>
        <pt x="842" y="1588" on="1"/>
        <pt x="842" y="226" on="1"/>
      </contour>
      <contour>
        <pt x="284" y="368" on="1"/>
        <pt x="700" y="368" on="1"/>
        <pt x="700" y="1447" on="1"/>
        <pt x="284" y="1447" on="1"/>
      </contour>
    </TTGlyph>
    <TTGlyph name="uni06D1" xMin="142" yMin="226" xMax="842" yMax="1588">
      <contour>
        <pt x="142" y="226" on="1"/>
        <pt x="142" y="1588" on="1"/>
        <pt x="842" y="1588" on="1"/>
        <pt x="842" y="226" on="1"/>
      </contour>
      <contour>
        <pt x="284" y="368" on="1"/>
        <pt x="700" y="368" on="1"/>
        <pt x="700" y="1447" on="1"/>
        <pt x="284" y="1447" on="1"/>
      </contour>
    </TTGlyph>
    <TTGlyph name="uni06D3" xMin="142" yMin="226" xMax="842" yMax="1588">
      <contour>
        <pt x="142" y="226" on="1"/>
        <pt x="142" y="1588" on="1"/>
        <pt x="842" y="1588" on="1"/>
        <pt x="842" y="226" on="1"/>
      </contour>
      <contour>
        <pt x="284" y="368" on="1"/>
        <pt x="700" y="368" on="1"/>
        <pt x="700" y="1447" on="1"/>
        <pt x="284" y="1447" on="1"/>
      </contour>
    </TTGlyph>
    <TTGlyph name="uni06D4" xMin="142" yMin="226" xMax="842" yMax="1588">
      <contour>
        <pt x="142" y="226" on="1"/>
        <pt x="142" y="1588" on="1"/>
        <pt x="842" y="1588" on="1"/>
        <pt x="842" y="226" on="1"/>
      </contour>
      <contour>
        <pt x="284" y="368" on="1"/>
        <pt x="700" y="368" on="1"/>
        <pt x="700" y="1447" on="1"/>
        <pt x="284" y="1447" on="1"/>
      </contour>
    </TTGlyph>
    <TTGlyph name="uni06F0" xMin="142" yMin="226" xMax="842" yMax="1588">
      <contour>
        <pt x="142" y="226" on="1"/>
        <pt x="142" y="1588" on="1"/>
        <pt x="842" y="1588" on="1"/>
        <pt x="842" y="226" on="1"/>
      </contour>
      <contour>
        <pt x="284" y="368" on="1"/>
        <pt x="700" y="368" on="1"/>
        <pt x="700" y="1447" on="1"/>
        <pt x="284" y="1447" on="1"/>
      </contour>
    </TTGlyph>
    <TTGlyph name="uni06F1" xMin="142" yMin="226" xMax="842" yMax="1588">
      <contour>
        <pt x="142" y="226" on="1"/>
        <pt x="142" y="1588" on="1"/>
        <pt x="842" y="1588" on="1"/>
        <pt x="842" y="226" on="1"/>
      </contour>
      <contour>
        <pt x="284" y="368" on="1"/>
        <pt x="700" y="368" on="1"/>
        <pt x="700" y="1447" on="1"/>
        <pt x="284" y="1447" on="1"/>
      </contour>
    </TTGlyph>
    <TTGlyph name="uni06F2" xMin="142" yMin="226" xMax="842" yMax="1588">
      <contour>
        <pt x="142" y="226" on="1"/>
        <pt x="142" y="1588" on="1"/>
        <pt x="842" y="1588" on="1"/>
        <pt x="842" y="226" on="1"/>
      </contour>
      <contour>
        <pt x="284" y="368" on="1"/>
        <pt x="700" y="368" on="1"/>
        <pt x="700" y="1447" on="1"/>
        <pt x="284" y="1447" on="1"/>
      </contour>
    </TTGlyph>
    <TTGlyph name="uni06F3" xMin="142" yMin="226" xMax="842" yMax="1588">
      <contour>
        <pt x="142" y="226" on="1"/>
        <pt x="142" y="1588" on="1"/>
        <pt x="842" y="1588" on="1"/>
        <pt x="842" y="226" on="1"/>
      </contour>
      <contour>
        <pt x="284" y="368" on="1"/>
        <pt x="700" y="368" on="1"/>
        <pt x="700" y="1447" on="1"/>
        <pt x="284" y="1447" on="1"/>
      </contour>
    </TTGlyph>
    <TTGlyph name="uni06F4" xMin="142" yMin="226" xMax="842" yMax="1588">
      <contour>
        <pt x="142" y="226" on="1"/>
        <pt x="142" y="1588" on="1"/>
        <pt x="842" y="1588" on="1"/>
        <pt x="842" y="226" on="1"/>
      </contour>
      <contour>
        <pt x="284" y="368" on="1"/>
        <pt x="700" y="368" on="1"/>
        <pt x="700" y="1447" on="1"/>
        <pt x="284" y="1447" on="1"/>
      </contour>
    </TTGlyph>
    <TTGlyph name="uni06F5" xMin="142" yMin="226" xMax="842" yMax="1588">
      <contour>
        <pt x="142" y="226" on="1"/>
        <pt x="142" y="1588" on="1"/>
        <pt x="842" y="1588" on="1"/>
        <pt x="842" y="226" on="1"/>
      </contour>
      <contour>
        <pt x="284" y="368" on="1"/>
        <pt x="700" y="368" on="1"/>
        <pt x="700" y="1447" on="1"/>
        <pt x="284" y="1447" on="1"/>
      </contour>
    </TTGlyph>
    <TTGlyph name="uni06F6" xMin="142" yMin="226" xMax="842" yMax="1588">
      <contour>
        <pt x="142" y="226" on="1"/>
        <pt x="142" y="1588" on="1"/>
        <pt x="842" y="1588" on="1"/>
        <pt x="842" y="226" on="1"/>
      </contour>
      <contour>
        <pt x="284" y="368" on="1"/>
        <pt x="700" y="368" on="1"/>
        <pt x="700" y="1447" on="1"/>
        <pt x="284" y="1447" on="1"/>
      </contour>
    </TTGlyph>
    <TTGlyph name="uni06F7" xMin="142" yMin="226" xMax="842" yMax="1588">
      <contour>
        <pt x="142" y="226" on="1"/>
        <pt x="142" y="1588" on="1"/>
        <pt x="842" y="1588" on="1"/>
        <pt x="842" y="226" on="1"/>
      </contour>
      <contour>
        <pt x="284" y="368" on="1"/>
        <pt x="700" y="368" on="1"/>
        <pt x="700" y="1447" on="1"/>
        <pt x="284" y="1447" on="1"/>
      </contour>
    </TTGlyph>
    <TTGlyph name="uni06F8" xMin="142" yMin="226" xMax="842" yMax="1588">
      <contour>
        <pt x="142" y="226" on="1"/>
        <pt x="142" y="1588" on="1"/>
        <pt x="842" y="1588" on="1"/>
        <pt x="842" y="226" on="1"/>
      </contour>
      <contour>
        <pt x="284" y="368" on="1"/>
        <pt x="700" y="368" on="1"/>
        <pt x="700" y="1447" on="1"/>
        <pt x="284" y="1447" on="1"/>
      </contour>
    </TTGlyph>
    <TTGlyph name="uni06F9" xMin="142" yMin="226" xMax="842" yMax="1588">
      <contour>
        <pt x="142" y="226" on="1"/>
        <pt x="142" y="1588" on="1"/>
        <pt x="842" y="1588" on="1"/>
        <pt x="842" y="226" on="1"/>
      </contour>
      <contour>
        <pt x="284" y="368" on="1"/>
        <pt x="700" y="368" on="1"/>
        <pt x="700" y="1447" on="1"/>
        <pt x="284" y="1447" on="1"/>
      </contour>
    </TTGlyph>
    <TTGlyph name="uni2010" xMin="18" yMin="-574" xMax="2562" yMax="1785">
      <contour>
        <pt x="2420" y="1042" on="1"/>
        <pt x="2380" y="1018" on="1"/>
        <pt x="2380" y="1029" on="0"/>
        <pt x="2367" y="1055" on="1"/>
        <pt x="2348" y="1080" on="0"/>
        <pt x="2204" y="1203" on="0"/>
        <pt x="2188" y="1226" on="1"/>
        <pt x="2110" y="1335" on="0"/>
        <pt x="2103" y="1449" on="1"/>
        <pt x="2018" y="1431" on="0"/>
        <pt x="2018" y="1248" on="1"/>
        <pt x="2018" y="1160" on="0"/>
        <pt x="2038" y="1110" on="1"/>
        <pt x="2013" y="1131" on="0"/>
        <pt x="1987" y="1153" on="1"/>
        <pt x="1978" y="1201" on="0"/>
        <pt x="1978" y="1248" on="1"/>
        <pt x="1978" y="1351" on="0"/>
        <pt x="2062" y="1502" on="0"/>
        <pt x="2134" y="1523" on="1"/>
        <pt x="2137" y="1372" on="0"/>
        <pt x="2225" y="1254" on="1"/>
        <pt x="2242" y="1230" on="0"/>
        <pt x="2326" y="1158" on="1"/>
        <pt x="2399" y="1094" on="0"/>
        <pt x="2413" y="1063" on="1"/>
        <pt x="2420" y="1033" on="0"/>
      </contour>
      <contour>
        <pt x="2197" y="576" on="1"/>
        <pt x="2197" y="202" on="0"/>
        <pt x="1665" y="-330" on="0"/>
        <pt x="1290" y="-330" on="1"/>
        <pt x="916" y="-330" on="0"/>
        <pt x="383" y="202" on="0"/>
        <pt x="383" y="576" on="1"/>
        <pt x="383" y="939" on="0"/>
        <pt x="639" y="1202" on="1"/>
        <pt x="854" y="1423" on="0"/>
        <pt x="1102" y="1461" on="1"/>
        <pt x="1155" y="1469" on="0"/>
        <pt x="1198" y="1505" on="1"/>
        <pt x="1248" y="1547" on="0"/>
        <pt x="1248" y="1602" on="1"/>
        <pt x="1248" y="1662" on="0"/>
        <pt x="1162" y="1748" on="0"/>
        <pt x="1102" y="1748" on="1"/>
        <pt x="1043" y="1748" on="0"/>
        <pt x="954" y="1662" on="0"/>
        <pt x="954" y="1602" on="1"/>
        <pt x="954" y="1534" on="0"/>
        <pt x="1010" y="1488" on="1"/>
        <pt x="898" y="1475" on="0"/>
        <pt x="761" y="1418" on="1"/>
        <pt x="668" y="1380" on="0"/>
        <pt x="600" y="1315" on="1"/>
        <pt x="555" y="1321" on="1"/>
        <pt x="618" y="1394" on="0"/>
        <pt x="755" y="1457" on="1"/>
        <pt x="822" y="1487" on="0"/>
        <pt x="947" y="1512" on="1"/>
        <pt x="917" y="1556" on="0"/>
        <pt x="917" y="1614" on="1"/>
        <pt x="917" y="1688" on="0"/>
        <pt x="976" y="1738" on="1"/>
        <pt x="1031" y="1785" on="0"/>
        <pt x="1102" y="1785" on="1"/>
        <pt x="1176" y="1785" on="0"/>
        <pt x="1232" y="1736" on="1"/>
        <pt x="1290" y="1684" on="0"/>
        <pt x="1290" y="1610" on="1"/>
        <pt x="1290" y="1531" on="0"/>
        <pt x="1230" y="1479" on="1"/>
        <pt x="1252" y="1481" on="0"/>
        <pt x="1290" y="1481" on="1"/>
        <pt x="1330" y="1481" on="0"/>
        <pt x="1351" y="1479" on="1"/>
        <pt x="1290" y="1531" on="0"/>
        <pt x="1290" y="1610" on="1"/>
        <pt x="1290" y="1684" on="0"/>
        <pt x="1348" y="1736" on="1"/>
        <pt x="1403" y="1785" on="0"/>
        <pt x="1478" y="1785" on="1"/>
        <pt x="1550" y="1785" on="0"/>
        <pt x="1605" y="1738" on="1"/>
        <pt x="1665" y="1689" on="0"/>
        <pt x="1665" y="1614" on="1"/>
        <pt x="1665" y="1556" on="0"/>
        <pt x="1635" y="1512" on="1"/>
        <pt x="1756" y="1488" on="0"/>
        <pt x="1824" y="1457" on="1"/>
        <pt x="1960" y="1396" on="0"/>
        <pt x="2026" y="1321" on="1"/>
        <pt x="1982" y="1315" on="1"/>
        <pt x="1908" y="1382" on="0"/>
        <pt x="1819" y="1418" on="1"/>
        <pt x="1679" y="1476" on="0"/>
        <pt x="1570" y="1488" on="1"/>
        <pt x="1624" y="1532" on="0"/>
        <pt x="1624" y="1602" on="1"/>
        <pt x="1624" y="1662" on="0"/>
        <pt x="1538" y="1748" on="0"/>
        <pt x="1478" y="1748" on="1"/>
        <pt x="1419" y="1748" on="0"/>
        <pt x="1333" y="1662" on="0"/>
        <pt x="1333" y="1602" on="1"/>
        <pt x="1333" y="1547" on="0"/>
        <pt x="1383" y="1505" on="1"/>
        <pt x="1425" y="1469" on="0"/>
        <pt x="1478" y="1461" on="1"/>
        <pt x="1728" y="1423" on="0"/>
        <pt x="1942" y="1202" on="1"/>
        <pt x="2197" y="940" on="0"/>
      </contour>
      <contour>
        <pt x="596" y="1153" on="1"/>
        <pt x="540" y="1105" on="0"/>
        <pt x="541" y="1110" on="1"/>
        <pt x="562" y="1161" on="0"/>
        <pt x="562" y="1249" on="1"/>
        <pt x="562" y="1431" on="0"/>
        <pt x="479" y="1449" on="1"/>
        <pt x="472" y="1333" on="0"/>
        <pt x="394" y="1226" on="1"/>
        <pt x="378" y="1203" on="0"/>
        <pt x="233" y="1081" on="0"/>
        <pt x="214" y="1055" on="1"/>
        <pt x="201" y="1029" on="0"/>
        <pt x="201" y="1018" on="1"/>
        <pt x="162" y="1042" on="1"/>
        <pt x="162" y="1053" on="0"/>
        <pt x="170" y="1063" on="1"/>
        <pt x="183" y="1094" on="0"/>
        <pt x="256" y="1158" on="1"/>
        <pt x="340" y="1230" on="0"/>
        <pt x="357" y="1254" on="1"/>
        <pt x="442" y="1368" on="0"/>
        <pt x="448" y="1523" on="1"/>
        <pt x="519" y="1502" on="0"/>
        <pt x="605" y="1350" on="0"/>
        <pt x="605" y="1247" on="1"/>
        <pt x="605" y="1200" on="0"/>
      </contour>
      <contour>
        <pt x="2562" y="1105" on="1"/>
        <pt x="2494" y="1004" on="0"/>
        <pt x="2501" y="819" on="1"/>
        <pt x="2503" y="784" on="0"/>
        <pt x="2548" y="637" on="0"/>
        <pt x="2549" y="605" on="1"/>
        <pt x="2551" y="569" on="0"/>
        <pt x="2488" y="496" on="0"/>
        <pt x="2455" y="496" on="1"/>
        <pt x="2407" y="496" on="0"/>
        <pt x="2385" y="520" on="1"/>
        <pt x="2385" y="67" on="0"/>
        <pt x="1745" y="-574" on="0"/>
        <pt x="1290" y="-574" on="1"/>
        <pt x="836" y="-574" on="0"/>
        <pt x="195" y="67" on="0"/>
        <pt x="195" y="520" on="1"/>
        <pt x="174" y="496" on="0"/>
        <pt x="127" y="496" on="1"/>
        <pt x="94" y="496" on="0"/>
        <pt x="29" y="569" on="0"/>
        <pt x="31" y="605" on="1"/>
        <pt x="33" y="637" on="0"/>
        <pt x="78" y="785" on="0"/>
        <pt x="79" y="819" on="1"/>
        <pt x="87" y="1004" on="0"/>
        <pt x="18" y="1105" on="1"/>
        <pt x="218" y="1092" on="0"/>
        <pt x="279" y="945" on="1"/>
        <pt x="274" y="822" on="1"/>
        <pt x="269" y="895" on="0"/>
        <pt x="225" y="962" on="1"/>
        <pt x="170" y="1046" on="0"/>
        <pt x="83" y="1049" on="1"/>
        <pt x="121" y="992" on="0"/>
        <pt x="121" y="819" on="1"/>
        <pt x="121" y="787" on="0"/>
        <pt x="101" y="718" on="1"/>
        <pt x="79" y="646" on="0"/>
        <pt x="77" y="618" on="1"/>
        <pt x="74" y="542" on="0"/>
        <pt x="147" y="542" on="1"/>
        <pt x="186" y="542" on="0"/>
        <pt x="220" y="594" on="1"/>
        <pt x="230" y="609" on="0"/>
        <pt x="242" y="623" on="1"/>
        <pt x="236" y="561" on="0"/>
        <pt x="236" y="520" on="1"/>
        <pt x="236" y="91" on="0"/>
        <pt x="858" y="-521" on="0"/>
        <pt x="1290" y="-521" on="1"/>
        <pt x="1723" y="-521" on="0"/>
        <pt x="2346" y="91" on="0"/>
        <pt x="2346" y="520" on="1"/>
        <pt x="2346" y="561" on="0"/>
        <pt x="2340" y="623" on="1"/>
        <pt x="2352" y="609" on="0"/>
        <pt x="2363" y="595" on="1"/>
        <pt x="2396" y="542" on="0"/>
        <pt x="2433" y="542" on="1"/>
        <pt x="2509" y="542" on="0"/>
        <pt x="2505" y="618" on="1"/>
        <pt x="2503" y="646" on="0"/>
        <pt x="2481" y="718" on="1"/>
        <pt x="2458" y="787" on="0"/>
        <pt x="2458" y="819" on="1"/>
        <pt x="2458" y="990" on="0"/>
        <pt x="2499" y="1049" on="1"/>
        <pt x="2413" y="1046" on="0"/>
        <pt x="2356" y="962" on="1"/>
        <pt x="2311" y="895" on="0"/>
        <pt x="2306" y="822" on="1"/>
        <pt x="2304" y="945" on="1"/>
        <pt x="2364" y="1092" on="0"/>
      </contour>
      <contour>
        <pt x="2151" y="576" on="1"/>
        <pt x="2151" y="930" on="0"/>
        <pt x="1911" y="1173" on="1"/>
        <pt x="1724" y="1362" on="0"/>
        <pt x="1482" y="1418" on="1"/>
        <pt x="1402" y="1437" on="0"/>
        <pt x="1290" y="1437" on="1"/>
        <pt x="1180" y="1437" on="0"/>
        <pt x="1100" y="1418" on="1"/>
        <pt x="857" y="1362" on="0"/>
        <pt x="670" y="1173" on="1"/>
        <pt x="431" y="931" on="0"/>
        <pt x="431" y="576" on="1"/>
        <pt x="431" y="218" on="0"/>
        <pt x="932" y="-285" on="0"/>
        <pt x="1290" y="-285" on="1"/>
        <pt x="1649" y="-285" on="0"/>
        <pt x="2151" y="218" on="0"/>
      </contour>
      <contour>
        <pt x="1706" y="792" on="1"/>
        <pt x="1706" y="765" on="0"/>
        <pt x="1675" y="698" on="1"/>
        <pt x="1642" y="626" on="0"/>
        <pt x="1620" y="621" on="1"/>
        <pt x="1579" y="616" on="0"/>
        <pt x="1497" y="605" on="1"/>
        <pt x="1478" y="601" on="0"/>
        <pt x="1452" y="570" on="1"/>
        <pt x="1451" y="528" on="0"/>
        <pt x="1461" y="437" on="1"/>
        <pt x="1470" y="342" on="0"/>
        <pt x="1470" y="338" on="1"/>
        <pt x="1470" y="291" on="0"/>
        <pt x="1468" y="200" on="1"/>
        <pt x="1411" y="200" on="1"/>
        <pt x="1403" y="225" on="0"/>
        <pt x="1354" y="428" on="1"/>
        <pt x="1349" y="448" on="0"/>
        <pt x="1284" y="582" on="1"/>
        <pt x="1226" y="704" on="0"/>
        <pt x="1226" y="746" on="1"/>
        <pt x="1226" y="813" on="0"/>
        <pt x="1271" y="844" on="1"/>
        <pt x="1275" y="841" on="0"/>
        <pt x="1343" y="781" on="1"/>
        <pt x="1389" y="741" on="0"/>
        <pt x="1404" y="741" on="1"/>
        <pt x="1443" y="741" on="0"/>
        <pt x="1458" y="768" on="1"/>
        <pt x="1466" y="793" on="0"/>
        <pt x="1475" y="818" on="1"/>
        <pt x="1491" y="826" on="0"/>
        <pt x="1517" y="844" on="1"/>
        <pt x="1565" y="772" on="0"/>
        <pt x="1588" y="772" on="1"/>
        <pt x="1611" y="772" on="0"/>
        <pt x="1659" y="843" on="1"/>
        <pt x="1706" y="817" on="0"/>
      </contour>
      <contour>
        <pt x="1185" y="291" on="1"/>
        <pt x="1185" y="280" on="0"/>
        <pt x="1172" y="227" on="0"/>
        <pt x="1172" y="211" on="1"/>
        <pt x="1169" y="211" on="0"/>
        <pt x="1153" y="198" on="0"/>
        <pt x="1138" y="198" on="1"/>
        <pt x="1087" y="198" on="0"/>
        <pt x="1051" y="342" on="1"/>
        <pt x="1035" y="419" on="0"/>
        <pt x="1018" y="496" on="1"/>
        <pt x="953" y="516" on="0"/>
        <pt x="887" y="536" on="1"/>
        <pt x="816" y="560" on="0"/>
        <pt x="816" y="639" on="1"/>
        <pt x="816" y="679" on="0"/>
        <pt x="858" y="768" on="1"/>
        <pt x="908" y="874" on="0"/>
        <pt x="959" y="874" on="1"/>
        <pt x="1005" y="874" on="0"/>
        <pt x="1042" y="835" on="1"/>
        <pt x="1077" y="799" on="0"/>
        <pt x="1088" y="747" on="1"/>
        <pt x="1098" y="649" on="0"/>
        <pt x="1126" y="460" on="1"/>
        <pt x="1130" y="437" on="0"/>
        <pt x="1158" y="366" on="1"/>
        <pt x="1185" y="302" on="0"/>
      </contour>
      <contour>
        <pt x="967" y="671" on="1"/>
        <pt x="967" y="709" on="0"/>
        <pt x="956" y="720" on="1"/>
        <pt x="948" y="720" on="0"/>
        <pt x="919" y="690" on="0"/>
        <pt x="919" y="682" on="1"/>
      </contour>
    </TTGlyph>
    <TTGlyph name="uni2011" xMin="18" yMin="-574" xMax="2562" yMax="1785">
      <contour>
        <pt x="2420" y="1042" on="1"/>
        <pt x="2380" y="1018" on="1"/>
        <pt x="2380" y="1029" on="0"/>
        <pt x="2367" y="1055" on="1"/>
        <pt x="2348" y="1080" on="0"/>
        <pt x="2204" y="1203" on="0"/>
        <pt x="2188" y="1226" on="1"/>
        <pt x="2110" y="1335" on="0"/>
        <pt x="2103" y="1449" on="1"/>
        <pt x="2018" y="1431" on="0"/>
        <pt x="2018" y="1248" on="1"/>
        <pt x="2018" y="1160" on="0"/>
        <pt x="2038" y="1110" on="1"/>
        <pt x="2013" y="1131" on="0"/>
        <pt x="1987" y="1153" on="1"/>
        <pt x="1978" y="1201" on="0"/>
        <pt x="1978" y="1248" on="1"/>
        <pt x="1978" y="1351" on="0"/>
        <pt x="2062" y="1502" on="0"/>
        <pt x="2134" y="1523" on="1"/>
        <pt x="2137" y="1372" on="0"/>
        <pt x="2225" y="1254" on="1"/>
        <pt x="2242" y="1230" on="0"/>
        <pt x="2326" y="1158" on="1"/>
        <pt x="2399" y="1094" on="0"/>
        <pt x="2413" y="1063" on="1"/>
        <pt x="2420" y="1033" on="0"/>
      </contour>
      <contour>
        <pt x="2197" y="576" on="1"/>
        <pt x="2197" y="202" on="0"/>
        <pt x="1665" y="-330" on="0"/>
        <pt x="1290" y="-330" on="1"/>
        <pt x="916" y="-330" on="0"/>
        <pt x="383" y="202" on="0"/>
        <pt x="383" y="576" on="1"/>
        <pt x="383" y="939" on="0"/>
        <pt x="639" y="1202" on="1"/>
        <pt x="854" y="1423" on="0"/>
        <pt x="1102" y="1461" on="1"/>
        <pt x="1155" y="1469" on="0"/>
        <pt x="1198" y="1505" on="1"/>
        <pt x="1248" y="1547" on="0"/>
        <pt x="1248" y="1602" on="1"/>
        <pt x="1248" y="1662" on="0"/>
        <pt x="1162" y="1748" on="0"/>
        <pt x="1102" y="1748" on="1"/>
        <pt x="1043" y="1748" on="0"/>
        <pt x="954" y="1662" on="0"/>
        <pt x="954" y="1602" on="1"/>
        <pt x="954" y="1534" on="0"/>
        <pt x="1010" y="1488" on="1"/>
        <pt x="898" y="1475" on="0"/>
        <pt x="761" y="1418" on="1"/>
        <pt x="668" y="1380" on="0"/>
        <pt x="600" y="1315" on="1"/>
        <pt x="555" y="1321" on="1"/>
        <pt x="618" y="1394" on="0"/>
        <pt x="755" y="1457" on="1"/>
        <pt x="822" y="1487" on="0"/>
        <pt x="947" y="1512" on="1"/>
        <pt x="917" y="1556" on="0"/>
        <pt x="917" y="1614" on="1"/>
        <pt x="917" y="1688" on="0"/>
        <pt x="976" y="1738" on="1"/>
        <pt x="1031" y="1785" on="0"/>
        <pt x="1102" y="1785" on="1"/>
        <pt x="1176" y="1785" on="0"/>
        <pt x="1232" y="1736" on="1"/>
        <pt x="1290" y="1684" on="0"/>
        <pt x="1290" y="1610" on="1"/>
        <pt x="1290" y="1531" on="0"/>
        <pt x="1230" y="1479" on="1"/>
        <pt x="1252" y="1481" on="0"/>
        <pt x="1290" y="1481" on="1"/>
        <pt x="1330" y="1481" on="0"/>
        <pt x="1351" y="1479" on="1"/>
        <pt x="1290" y="1531" on="0"/>
        <pt x="1290" y="1610" on="1"/>
        <pt x="1290" y="1684" on="0"/>
        <pt x="1348" y="1736" on="1"/>
        <pt x="1403" y="1785" on="0"/>
        <pt x="1478" y="1785" on="1"/>
        <pt x="1550" y="1785" on="0"/>
        <pt x="1605" y="1738" on="1"/>
        <pt x="1665" y="1689" on="0"/>
        <pt x="1665" y="1614" on="1"/>
        <pt x="1665" y="1556" on="0"/>
        <pt x="1635" y="1512" on="1"/>
        <pt x="1756" y="1488" on="0"/>
        <pt x="1824" y="1457" on="1"/>
        <pt x="1960" y="1396" on="0"/>
        <pt x="2026" y="1321" on="1"/>
        <pt x="1982" y="1315" on="1"/>
        <pt x="1908" y="1382" on="0"/>
        <pt x="1819" y="1418" on="1"/>
        <pt x="1679" y="1476" on="0"/>
        <pt x="1570" y="1488" on="1"/>
        <pt x="1624" y="1532" on="0"/>
        <pt x="1624" y="1602" on="1"/>
        <pt x="1624" y="1662" on="0"/>
        <pt x="1538" y="1748" on="0"/>
        <pt x="1478" y="1748" on="1"/>
        <pt x="1419" y="1748" on="0"/>
        <pt x="1333" y="1662" on="0"/>
        <pt x="1333" y="1602" on="1"/>
        <pt x="1333" y="1547" on="0"/>
        <pt x="1383" y="1505" on="1"/>
        <pt x="1425" y="1469" on="0"/>
        <pt x="1478" y="1461" on="1"/>
        <pt x="1728" y="1423" on="0"/>
        <pt x="1942" y="1202" on="1"/>
        <pt x="2197" y="940" on="0"/>
      </contour>
      <contour>
        <pt x="596" y="1153" on="1"/>
        <pt x="540" y="1105" on="0"/>
        <pt x="541" y="1110" on="1"/>
        <pt x="562" y="1161" on="0"/>
        <pt x="562" y="1249" on="1"/>
        <pt x="562" y="1431" on="0"/>
        <pt x="479" y="1449" on="1"/>
        <pt x="472" y="1333" on="0"/>
        <pt x="394" y="1226" on="1"/>
        <pt x="378" y="1203" on="0"/>
        <pt x="233" y="1081" on="0"/>
        <pt x="214" y="1055" on="1"/>
        <pt x="201" y="1029" on="0"/>
        <pt x="201" y="1018" on="1"/>
        <pt x="162" y="1042" on="1"/>
        <pt x="162" y="1053" on="0"/>
        <pt x="170" y="1063" on="1"/>
        <pt x="183" y="1094" on="0"/>
        <pt x="256" y="1158" on="1"/>
        <pt x="340" y="1230" on="0"/>
        <pt x="357" y="1254" on="1"/>
        <pt x="442" y="1368" on="0"/>
        <pt x="448" y="1523" on="1"/>
        <pt x="519" y="1502" on="0"/>
        <pt x="605" y="1350" on="0"/>
        <pt x="605" y="1247" on="1"/>
        <pt x="605" y="1200" on="0"/>
      </contour>
      <contour>
        <pt x="2562" y="1105" on="1"/>
        <pt x="2494" y="1004" on="0"/>
        <pt x="2501" y="819" on="1"/>
        <pt x="2503" y="784" on="0"/>
        <pt x="2548" y="637" on="0"/>
        <pt x="2549" y="605" on="1"/>
        <pt x="2551" y="569" on="0"/>
        <pt x="2488" y="496" on="0"/>
        <pt x="2455" y="496" on="1"/>
        <pt x="2407" y="496" on="0"/>
        <pt x="2385" y="520" on="1"/>
        <pt x="2385" y="67" on="0"/>
        <pt x="1745" y="-574" on="0"/>
        <pt x="1290" y="-574" on="1"/>
        <pt x="836" y="-574" on="0"/>
        <pt x="195" y="67" on="0"/>
        <pt x="195" y="520" on="1"/>
        <pt x="174" y="496" on="0"/>
        <pt x="127" y="496" on="1"/>
        <pt x="94" y="496" on="0"/>
        <pt x="29" y="569" on="0"/>
        <pt x="31" y="605" on="1"/>
        <pt x="33" y="637" on="0"/>
        <pt x="78" y="785" on="0"/>
        <pt x="79" y="819" on="1"/>
        <pt x="87" y="1004" on="0"/>
        <pt x="18" y="1105" on="1"/>
        <pt x="218" y="1092" on="0"/>
        <pt x="279" y="945" on="1"/>
        <pt x="274" y="822" on="1"/>
        <pt x="269" y="895" on="0"/>
        <pt x="225" y="962" on="1"/>
        <pt x="170" y="1046" on="0"/>
        <pt x="83" y="1049" on="1"/>
        <pt x="121" y="992" on="0"/>
        <pt x="121" y="819" on="1"/>
        <pt x="121" y="787" on="0"/>
        <pt x="101" y="718" on="1"/>
        <pt x="79" y="646" on="0"/>
        <pt x="77" y="618" on="1"/>
        <pt x="74" y="542" on="0"/>
        <pt x="147" y="542" on="1"/>
        <pt x="186" y="542" on="0"/>
        <pt x="220" y="594" on="1"/>
        <pt x="230" y="609" on="0"/>
        <pt x="242" y="623" on="1"/>
        <pt x="236" y="561" on="0"/>
        <pt x="236" y="520" on="1"/>
        <pt x="236" y="91" on="0"/>
        <pt x="858" y="-521" on="0"/>
        <pt x="1290" y="-521" on="1"/>
        <pt x="1723" y="-521" on="0"/>
        <pt x="2346" y="91" on="0"/>
        <pt x="2346" y="520" on="1"/>
        <pt x="2346" y="561" on="0"/>
        <pt x="2340" y="623" on="1"/>
        <pt x="2352" y="609" on="0"/>
        <pt x="2363" y="595" on="1"/>
        <pt x="2396" y="542" on="0"/>
        <pt x="2433" y="542" on="1"/>
        <pt x="2509" y="542" on="0"/>
        <pt x="2505" y="618" on="1"/>
        <pt x="2503" y="646" on="0"/>
        <pt x="2481" y="718" on="1"/>
        <pt x="2458" y="787" on="0"/>
        <pt x="2458" y="819" on="1"/>
        <pt x="2458" y="990" on="0"/>
        <pt x="2499" y="1049" on="1"/>
        <pt x="2413" y="1046" on="0"/>
        <pt x="2356" y="962" on="1"/>
        <pt x="2311" y="895" on="0"/>
        <pt x="2306" y="822" on="1"/>
        <pt x="2304" y="945" on="1"/>
        <pt x="2364" y="1092" on="0"/>
      </contour>
      <contour>
        <pt x="2151" y="576" on="1"/>
        <pt x="2151" y="930" on="0"/>
        <pt x="1911" y="1173" on="1"/>
        <pt x="1724" y="1362" on="0"/>
        <pt x="1482" y="1418" on="1"/>
        <pt x="1402" y="1437" on="0"/>
        <pt x="1290" y="1437" on="1"/>
        <pt x="1180" y="1437" on="0"/>
        <pt x="1100" y="1418" on="1"/>
        <pt x="857" y="1362" on="0"/>
        <pt x="670" y="1173" on="1"/>
        <pt x="431" y="931" on="0"/>
        <pt x="431" y="576" on="1"/>
        <pt x="431" y="218" on="0"/>
        <pt x="932" y="-285" on="0"/>
        <pt x="1290" y="-285" on="1"/>
        <pt x="1649" y="-285" on="0"/>
        <pt x="2151" y="218" on="0"/>
      </contour>
      <contour>
        <pt x="1706" y="792" on="1"/>
        <pt x="1706" y="765" on="0"/>
        <pt x="1675" y="698" on="1"/>
        <pt x="1642" y="626" on="0"/>
        <pt x="1620" y="621" on="1"/>
        <pt x="1579" y="616" on="0"/>
        <pt x="1497" y="605" on="1"/>
        <pt x="1478" y="601" on="0"/>
        <pt x="1452" y="570" on="1"/>
        <pt x="1451" y="528" on="0"/>
        <pt x="1461" y="437" on="1"/>
        <pt x="1470" y="342" on="0"/>
        <pt x="1470" y="338" on="1"/>
        <pt x="1470" y="291" on="0"/>
        <pt x="1468" y="200" on="1"/>
        <pt x="1411" y="200" on="1"/>
        <pt x="1403" y="225" on="0"/>
        <pt x="1354" y="428" on="1"/>
        <pt x="1349" y="448" on="0"/>
        <pt x="1284" y="582" on="1"/>
        <pt x="1226" y="704" on="0"/>
        <pt x="1226" y="746" on="1"/>
        <pt x="1226" y="813" on="0"/>
        <pt x="1271" y="844" on="1"/>
        <pt x="1275" y="841" on="0"/>
        <pt x="1343" y="781" on="1"/>
        <pt x="1389" y="741" on="0"/>
        <pt x="1404" y="741" on="1"/>
        <pt x="1443" y="741" on="0"/>
        <pt x="1458" y="768" on="1"/>
        <pt x="1466" y="793" on="0"/>
        <pt x="1475" y="818" on="1"/>
        <pt x="1491" y="826" on="0"/>
        <pt x="1517" y="844" on="1"/>
        <pt x="1565" y="772" on="0"/>
        <pt x="1588" y="772" on="1"/>
        <pt x="1611" y="772" on="0"/>
        <pt x="1659" y="843" on="1"/>
        <pt x="1706" y="817" on="0"/>
      </contour>
      <contour>
        <pt x="1185" y="291" on="1"/>
        <pt x="1185" y="280" on="0"/>
        <pt x="1172" y="227" on="0"/>
        <pt x="1172" y="211" on="1"/>
        <pt x="1169" y="211" on="0"/>
        <pt x="1153" y="198" on="0"/>
        <pt x="1138" y="198" on="1"/>
        <pt x="1087" y="198" on="0"/>
        <pt x="1051" y="342" on="1"/>
        <pt x="1035" y="419" on="0"/>
        <pt x="1018" y="496" on="1"/>
        <pt x="953" y="516" on="0"/>
        <pt x="887" y="536" on="1"/>
        <pt x="816" y="560" on="0"/>
        <pt x="816" y="639" on="1"/>
        <pt x="816" y="679" on="0"/>
        <pt x="858" y="768" on="1"/>
        <pt x="908" y="874" on="0"/>
        <pt x="959" y="874" on="1"/>
        <pt x="1005" y="874" on="0"/>
        <pt x="1042" y="835" on="1"/>
        <pt x="1077" y="799" on="0"/>
        <pt x="1088" y="747" on="1"/>
        <pt x="1098" y="649" on="0"/>
        <pt x="1126" y="460" on="1"/>
        <pt x="1130" y="437" on="0"/>
        <pt x="1158" y="366" on="1"/>
        <pt x="1185" y="302" on="0"/>
      </contour>
      <contour>
        <pt x="967" y="671" on="1"/>
        <pt x="967" y="709" on="0"/>
        <pt x="956" y="720" on="1"/>
        <pt x="948" y="720" on="0"/>
        <pt x="919" y="690" on="0"/>
        <pt x="919" y="682" on="1"/>
      </contour>
    </TTGlyph>
    <TTGlyph name="uniE000" xMin="0" yMin="0" xMax="1810" yMax="1810">
      <contour>
        <pt x="0" y="1810" on="1"/>
        <pt x="1810" y="1810" on="1"/>
        <pt x="1810" y="0" on="1"/>
        <pt x="0" y="0" on="1"/>
      </contour>
    </TTGlyph>
    <TTGlyph name="uniFB51" xMin="429" yMin="-576" xMax="3235" yMax="1872">
      <contour>
        <pt x="3235" y="1431" on="1"/>
        <pt x="3235" y="1359" on="0"/>
        <pt x="3128" y="1294" on="1"/>
        <pt x="3037" y="1237" on="0"/>
        <pt x="2984" y="1237" on="1"/>
        <pt x="2973" y="1237" on="0"/>
        <pt x="2920" y="1257" on="0"/>
        <pt x="2907" y="1257" on="1"/>
        <pt x="2895" y="1257" on="0"/>
        <pt x="2867" y="1234" on="1"/>
        <pt x="2825" y="1199" on="0"/>
        <pt x="2819" y="1196" on="1"/>
        <pt x="2795" y="1220" on="1"/>
        <pt x="2799" y="1252" on="0"/>
        <pt x="2920" y="1380" on="0"/>
        <pt x="2948" y="1380" on="1"/>
        <pt x="2961" y="1380" on="0"/>
        <pt x="2971" y="1370" on="0"/>
        <pt x="2984" y="1370" on="1"/>
        <pt x="3003" y="1370" on="0"/>
        <pt x="3126" y="1513" on="0"/>
        <pt x="3168" y="1513" on="1"/>
        <pt x="3197" y="1513" on="0"/>
        <pt x="3218" y="1474" on="1"/>
        <pt x="3235" y="1445" on="0"/>
      </contour>
      <contour>
        <pt x="2641" y="1846" on="1"/>
        <pt x="2641" y="1794" on="0"/>
        <pt x="2577" y="1762" on="1"/>
        <pt x="2438" y="1699" on="0"/>
        <pt x="2156" y="1565" on="1"/>
        <pt x="2109" y="1565" on="1"/>
        <pt x="2109" y="1609" on="1"/>
        <pt x="2108" y="1624" on="0"/>
        <pt x="2140" y="1654" on="1"/>
        <pt x="2169" y="1681" on="0"/>
        <pt x="2194" y="1693" on="1"/>
        <pt x="2542" y="1872" on="0"/>
        <pt x="2575" y="1871" on="1"/>
        <pt x="2629" y="1871" on="1"/>
        <pt x="2641" y="1869" on="0"/>
      </contour>
      <contour>
        <pt x="2620" y="1447" on="1"/>
        <pt x="2620" y="1369" on="0"/>
        <pt x="2543" y="1321" on="1"/>
        <pt x="2487" y="1285" on="0"/>
        <pt x="2411" y="1274" on="1"/>
        <pt x="2399" y="1272" on="0"/>
        <pt x="2368" y="1259" on="1"/>
        <pt x="2340" y="1247" on="0"/>
        <pt x="2324" y="1247" on="1"/>
        <pt x="2262" y="1247" on="0"/>
        <pt x="2262" y="1319" on="1"/>
        <pt x="2262" y="1343" on="0"/>
        <pt x="2284" y="1394" on="1"/>
        <pt x="2306" y="1441" on="0"/>
        <pt x="2317" y="1452" on="1"/>
        <pt x="2347" y="1443" on="0"/>
        <pt x="2348" y="1415" on="1"/>
        <pt x="2352" y="1379" on="0"/>
        <pt x="2360" y="1370" on="1"/>
        <pt x="2391" y="1411" on="0"/>
        <pt x="2473" y="1482" on="1"/>
        <pt x="2479" y="1457" on="0"/>
        <pt x="2495" y="1410" on="1"/>
        <pt x="2520" y="1410" on="1"/>
        <pt x="2531" y="1446" on="0"/>
        <pt x="2573" y="1523" on="1"/>
        <pt x="2580" y="1523" on="0"/>
        <pt x="2598" y="1518" on="1"/>
        <pt x="2620" y="1482" on="0"/>
      </contour>
      <contour>
        <pt x="3071" y="193" on="1"/>
        <pt x="3050" y="74" on="0"/>
        <pt x="3028" y="19" on="1"/>
        <pt x="3011" y="15" on="0"/>
        <pt x="2969" y="20" on="1"/>
        <pt x="2866" y="909" on="1"/>
        <pt x="2866" y="922" on="0"/>
        <pt x="2883" y="968" on="1"/>
        <pt x="2907" y="1030" on="0"/>
        <pt x="2910" y="1040" on="1"/>
        <pt x="2918" y="1046" on="0"/>
        <pt x="2956" y="1062" on="1"/>
      </contour>
      <contour>
        <pt x="2160" y="965" on="1"/>
        <pt x="2160" y="926" on="0"/>
        <pt x="2137" y="894" on="1"/>
        <pt x="2113" y="858" on="0"/>
        <pt x="2078" y="858" on="1"/>
        <pt x="2031" y="858" on="0"/>
        <pt x="1986" y="901" on="1"/>
        <pt x="1988" y="934" on="0"/>
        <pt x="2012" y="985" on="1"/>
        <pt x="2038" y="1042" on="0"/>
        <pt x="2058" y="1042" on="1"/>
        <pt x="2076" y="1042" on="0"/>
        <pt x="2115" y="1017" on="1"/>
        <pt x="2160" y="990" on="0"/>
      </contour>
      <contour>
        <pt x="2661" y="188" on="1"/>
        <pt x="2661" y="-63" on="0"/>
        <pt x="2472" y="-63" on="1"/>
        <pt x="2349" y="-63" on="0"/>
        <pt x="2244" y="142" on="1"/>
        <pt x="2231" y="137" on="0"/>
        <pt x="2190" y="97" on="1"/>
        <pt x="2147" y="57" on="0"/>
        <pt x="2116" y="42" on="1"/>
        <pt x="2020" y="-2" on="0"/>
        <pt x="1863" y="-2" on="1"/>
        <pt x="1668" y="-2" on="0"/>
        <pt x="1668" y="106" on="1"/>
        <pt x="1668" y="152" on="0"/>
        <pt x="1702" y="202" on="1"/>
        <pt x="1733" y="202" on="1"/>
        <pt x="1749" y="202" on="0"/>
        <pt x="1756" y="191" on="1"/>
        <pt x="1762" y="183" on="0"/>
        <pt x="1768" y="174" on="1"/>
        <pt x="1840" y="152" on="0"/>
        <pt x="1883" y="152" on="1"/>
        <pt x="2211" y="152" on="0"/>
        <pt x="2211" y="325" on="1"/>
        <pt x="2211" y="336" on="0"/>
        <pt x="2160" y="579" on="0"/>
        <pt x="2160" y="596" on="1"/>
        <pt x="2160" y="673" on="0"/>
        <pt x="2216" y="735" on="1"/>
        <pt x="2255" y="661" on="0"/>
        <pt x="2268" y="598" on="1"/>
        <pt x="2290" y="495" on="0"/>
        <pt x="2326" y="291" on="1"/>
        <pt x="2339" y="220" on="0"/>
        <pt x="2451" y="100" on="0"/>
        <pt x="2508" y="100" on="1"/>
        <pt x="2559" y="100" on="0"/>
        <pt x="2559" y="161" on="1"/>
        <pt x="2559" y="234" on="0"/>
        <pt x="2514" y="545" on="1"/>
        <pt x="2496" y="614" on="0"/>
        <pt x="2473" y="801" on="1"/>
        <pt x="2472" y="822" on="0"/>
        <pt x="2426" y="954" on="0"/>
        <pt x="2426" y="965" on="1"/>
        <pt x="2426" y="1058" on="0"/>
        <pt x="2512" y="1176" on="1"/>
        <pt x="2532" y="1155" on="0"/>
        <pt x="2539" y="1108" on="1"/>
        <pt x="2545" y="1068" on="0"/>
        <pt x="2551" y="1029" on="1"/>
        <pt x="2555" y="1023" on="0"/>
        <pt x="2604" y="984" on="1"/>
        <pt x="2641" y="954" on="0"/>
        <pt x="2641" y="930" on="1"/>
        <pt x="2641" y="917" on="0"/>
        <pt x="2590" y="778" on="0"/>
        <pt x="2590" y="766" on="1"/>
      </contour>
      <contour>
        <pt x="1034" y="1611" on="1"/>
        <pt x="1034" y="1543" on="0"/>
        <pt x="950" y="1501" on="1"/>
        <pt x="878" y="1470" on="0"/>
        <pt x="806" y="1439" on="1"/>
        <pt x="698" y="1384" on="0"/>
        <pt x="477" y="1258" on="1"/>
        <pt x="440" y="1258" on="1"/>
        <pt x="440" y="1262" on="0"/>
        <pt x="429" y="1284" on="0"/>
        <pt x="429" y="1298" on="1"/>
        <pt x="429" y="1372" on="0"/>
        <pt x="678" y="1484" on="1"/>
        <pt x="793" y="1545" on="0"/>
        <pt x="1019" y="1646" on="1"/>
        <pt x="1034" y="1632" on="0"/>
      </contour>
      <contour>
        <pt x="2354" y="-344" on="1"/>
        <pt x="2354" y="-394" on="0"/>
        <pt x="2298" y="-421" on="1"/>
        <pt x="2248" y="-438" on="0"/>
        <pt x="2198" y="-456" on="1"/>
        <pt x="2150" y="-476" on="0"/>
        <pt x="2044" y="-507" on="1"/>
        <pt x="1987" y="-530" on="0"/>
        <pt x="1869" y="-575" on="1"/>
        <pt x="1860" y="-576" on="0"/>
        <pt x="1832" y="-547" on="0"/>
        <pt x="1832" y="-529" on="1"/>
        <pt x="1832" y="-473" on="0"/>
        <pt x="1967" y="-421" on="1"/>
        <pt x="2040" y="-400" on="0"/>
        <pt x="2112" y="-378" on="1"/>
        <pt x="2190" y="-346" on="0"/>
        <pt x="2340" y="-299" on="1"/>
        <pt x="2354" y="-312" on="0"/>
      </contour>
      <contour>
        <pt x="870" y="623" on="1"/>
        <pt x="870" y="590" on="0"/>
        <pt x="823" y="520" on="0"/>
        <pt x="798" y="520" on="1"/>
        <pt x="786" y="520" on="0"/>
        <pt x="686" y="582" on="1"/>
        <pt x="686" y="617" on="0"/>
        <pt x="709" y="667" on="1"/>
        <pt x="735" y="725" on="0"/>
        <pt x="767" y="725" on="1"/>
        <pt x="799" y="725" on="0"/>
        <pt x="870" y="652" on="0"/>
      </contour>
      <contour>
        <pt x="1546" y="459" on="1"/>
        <pt x="1546" y="361" on="0"/>
        <pt x="1510" y="288" on="1"/>
        <pt x="1490" y="245" on="0"/>
        <pt x="1423" y="227" on="1"/>
        <pt x="1343" y="206" on="0"/>
        <pt x="1312" y="174" on="1"/>
        <pt x="1310" y="133" on="0"/>
        <pt x="1292" y="53" on="1"/>
        <pt x="1278" y="-10" on="0"/>
        <pt x="1277" y="-14" on="1"/>
        <pt x="1264" y="-61" on="0"/>
        <pt x="1243" y="-82" on="1"/>
        <pt x="1196" y="-132" on="0"/>
        <pt x="918" y="-227" on="0"/>
        <pt x="824" y="-227" on="1"/>
        <pt x="665" y="-227" on="0"/>
        <pt x="565" y="-160" on="1"/>
        <pt x="449" y="-83" on="0"/>
        <pt x="449" y="65" on="1"/>
        <pt x="449" y="76" on="0"/>
        <pt x="510" y="182" on="1"/>
        <pt x="576" y="298" on="0"/>
        <pt x="609" y="315" on="1"/>
        <pt x="634" y="290" on="0"/>
        <pt x="634" y="279" on="1"/>
        <pt x="634" y="269" on="0"/>
        <pt x="552" y="108" on="0"/>
        <pt x="552" y="95" on="1"/>
        <pt x="552" y="45" on="0"/>
        <pt x="617" y="-10" on="1"/>
        <pt x="673" y="-58" on="0"/>
        <pt x="701" y="-61" on="1"/>
        <pt x="832" y="-73" on="0"/>
        <pt x="813" y="-73" on="1"/>
        <pt x="911" y="-73" on="1"/>
        <pt x="943" y="-73" on="0"/>
        <pt x="1066" y="-21" on="1"/>
        <pt x="1179" y="26" on="0"/>
        <pt x="1209" y="46" on="1"/>
        <pt x="1218" y="66" on="0"/>
        <pt x="1218" y="89" on="1"/>
        <pt x="1218" y="140" on="0"/>
        <pt x="1115" y="336" on="0"/>
        <pt x="1115" y="361" on="1"/>
        <pt x="1115" y="392" on="0"/>
        <pt x="1161" y="459" on="1"/>
        <pt x="1200" y="426" on="0"/>
        <pt x="1240" y="393" on="1"/>
        <pt x="1279" y="366" on="0"/>
        <pt x="1341" y="366" on="1"/>
        <pt x="1432" y="366" on="0"/>
        <pt x="1443" y="401" on="1"/>
        <pt x="1401" y="476" on="0"/>
        <pt x="1399" y="483" on="1"/>
        <pt x="1392" y="501" on="0"/>
        <pt x="1392" y="546" on="1"/>
        <pt x="1392" y="573" on="0"/>
        <pt x="1414" y="642" on="1"/>
        <pt x="1460" y="642" on="1"/>
        <pt x="1546" y="541" on="0"/>
      </contour>
      <contour>
        <pt x="1668" y="-360" on="1"/>
        <pt x="1668" y="-442" on="0"/>
        <pt x="1576" y="-442" on="1"/>
        <pt x="1535" y="-442" on="0"/>
        <pt x="1489" y="-412" on="1"/>
        <pt x="1482" y="-416" on="0"/>
        <pt x="1438" y="-455" on="1"/>
        <pt x="1407" y="-483" on="0"/>
        <pt x="1392" y="-483" on="1"/>
        <pt x="1360" y="-483" on="0"/>
        <pt x="1269" y="-403" on="0"/>
        <pt x="1269" y="-380" on="1"/>
        <pt x="1269" y="-353" on="0"/>
        <pt x="1307" y="-313" on="1"/>
        <pt x="1342" y="-278" on="0"/>
        <pt x="1351" y="-278" on="1"/>
        <pt x="1387" y="-278" on="0"/>
        <pt x="1469" y="-339" on="1"/>
        <pt x="1480" y="-332" on="0"/>
        <pt x="1517" y="-291" on="1"/>
        <pt x="1546" y="-258" on="0"/>
        <pt x="1560" y="-258" on="1"/>
        <pt x="1595" y="-258" on="0"/>
        <pt x="1632" y="-298" on="1"/>
        <pt x="1668" y="-335" on="0"/>
      </contour>
      <contour>
        <pt x="3145" y="1418" on="1"/>
        <pt x="3115" y="1406" on="0"/>
        <pt x="3092" y="1379" on="1"/>
        <pt x="3130" y="1379" on="1"/>
        <pt x="3154" y="1400" on="0"/>
      </contour>
    </TTGlyph>
    <TTGlyph name="uniFB52" xMin="483" yMin="-430" xMax="4107" yMax="1618">
      <contour>
        <pt x="3841" y="1525" on="1"/>
        <pt x="3841" y="1476" on="0"/>
        <pt x="3807" y="1457" on="1"/>
        <pt x="3616" y="1358" on="0"/>
        <pt x="3241" y="1157" on="1"/>
        <pt x="3227" y="1171" on="0"/>
        <pt x="3227" y="1198" on="1"/>
        <pt x="3227" y="1248" on="0"/>
        <pt x="3241" y="1258" on="1"/>
        <pt x="3372" y="1351" on="0"/>
        <pt x="3784" y="1556" on="1"/>
        <pt x="3828" y="1556" on="1"/>
        <pt x="3841" y="1543" on="0"/>
      </contour>
      <contour>
        <pt x="3042" y="1484" on="1"/>
        <pt x="3042" y="1430" on="0"/>
        <pt x="2810" y="1298" on="1"/>
        <pt x="2674" y="1226" on="0"/>
        <pt x="2538" y="1153" on="1"/>
        <pt x="2419" y="1081" on="0"/>
        <pt x="2166" y="942" on="1"/>
        <pt x="2152" y="957" on="0"/>
        <pt x="2152" y="972" on="1"/>
        <pt x="2152" y="1016" on="0"/>
        <pt x="2166" y="1032" on="1"/>
        <pt x="2190" y="1060" on="0"/>
        <pt x="2254" y="1095" on="1"/>
        <pt x="2364" y="1156" on="0"/>
        <pt x="2369" y="1158" on="1"/>
        <pt x="2441" y="1203" on="0"/>
        <pt x="2656" y="1322" on="1"/>
        <pt x="2747" y="1375" on="0"/>
        <pt x="2838" y="1429" on="1"/>
        <pt x="2952" y="1493" on="0"/>
        <pt x="3028" y="1515" on="1"/>
        <pt x="3042" y="1501" on="0"/>
      </contour>
      <contour>
        <pt x="3789" y="-179" on="1"/>
        <pt x="3789" y="-216" on="0"/>
        <pt x="3756" y="-243" on="1"/>
        <pt x="3727" y="-266" on="0"/>
        <pt x="3698" y="-266" on="1"/>
        <pt x="3671" y="-266" on="0"/>
        <pt x="3584" y="-206" on="0"/>
        <pt x="3584" y="-184" on="1"/>
        <pt x="3584" y="-167" on="0"/>
        <pt x="3668" y="-81" on="0"/>
        <pt x="3687" y="-81" on="1"/>
        <pt x="3714" y="-81" on="0"/>
        <pt x="3754" y="-126" on="1"/>
        <pt x="3789" y="-165" on="0"/>
      </contour>
      <contour>
        <pt x="1731" y="1259" on="1"/>
        <pt x="1731" y="1232" on="0"/>
        <pt x="1697" y="1198" on="1"/>
        <pt x="1677" y="1203" on="0"/>
        <pt x="1622" y="1232" on="1"/>
        <pt x="1571" y="1259" on="0"/>
        <pt x="1558" y="1259" on="1"/>
        <pt x="1541" y="1259" on="0"/>
        <pt x="1536" y="1257" on="1"/>
        <pt x="1517" y="1198" on="0"/>
        <pt x="1385" y="1119" on="1"/>
        <pt x="1258" y="1044" on="0"/>
        <pt x="1194" y="1044" on="1"/>
        <pt x="1164" y="1044" on="0"/>
        <pt x="1138" y="1057" on="1"/>
        <pt x="1138" y="1087" on="0"/>
        <pt x="1161" y="1101" on="1"/>
        <pt x="1233" y="1135" on="0"/>
        <pt x="1319" y="1189" on="1"/>
        <pt x="1445" y="1267" on="0"/>
        <pt x="1445" y="1305" on="1"/>
        <pt x="1445" y="1316" on="0"/>
        <pt x="1373" y="1397" on="0"/>
        <pt x="1373" y="1413" on="1"/>
        <pt x="1373" y="1472" on="0"/>
        <pt x="1419" y="1541" on="1"/>
        <pt x="1471" y="1618" on="0"/>
        <pt x="1532" y="1618" on="1"/>
        <pt x="1601" y="1618" on="0"/>
        <pt x="1601" y="1409" on="1"/>
        <pt x="1627" y="1368" on="0"/>
        <pt x="1690" y="1332" on="1"/>
        <pt x="1731" y="1307" on="0"/>
      </contour>
      <contour>
        <pt x="4107" y="210" on="1"/>
        <pt x="4107" y="172" on="0"/>
        <pt x="4064" y="140" on="1"/>
        <pt x="4027" y="112" on="0"/>
        <pt x="4000" y="112" on="1"/>
        <pt x="3987" y="112" on="0"/>
        <pt x="3818" y="143" on="0"/>
        <pt x="3805" y="143" on="1"/>
        <pt x="3771" y="143" on="0"/>
        <pt x="3684" y="112" on="1"/>
        <pt x="3572" y="72" on="0"/>
        <pt x="3540" y="64" on="1"/>
        <pt x="3240" y="-10" on="0"/>
        <pt x="3163" y="-10" on="1"/>
        <pt x="3100" y="-10" on="1"/>
        <pt x="3046" y="-10" on="0"/>
        <pt x="2871" y="71" on="0"/>
        <pt x="2873" y="71" on="1"/>
        <pt x="2866" y="71" on="0"/>
        <pt x="2821" y="47" on="1"/>
        <pt x="2771" y="19" on="0"/>
        <pt x="2752" y="13" on="1"/>
        <pt x="2499" y="-61" on="0"/>
        <pt x="2111" y="-61" on="1"/>
        <pt x="1911" y="-61" on="0"/>
        <pt x="1805" y="-31" on="1"/>
        <pt x="1650" y="13" on="0"/>
        <pt x="1611" y="134" on="1"/>
        <pt x="1585" y="134" on="1"/>
        <pt x="1559" y="102" on="0"/>
        <pt x="1480" y="71" on="1"/>
        <pt x="1394" y="39" on="0"/>
        <pt x="1382" y="28" on="1"/>
        <pt x="1364" y="-20" on="0"/>
        <pt x="1318" y="-110" on="1"/>
        <pt x="1160" y="-331" on="0"/>
        <pt x="1088" y="-379" on="1"/>
        <pt x="1013" y="-430" on="0"/>
        <pt x="830" y="-430" on="1"/>
        <pt x="582" y="-430" on="0"/>
        <pt x="503" y="-376" on="1"/>
        <pt x="503" y="-340" on="1"/>
        <pt x="527" y="-317" on="0"/>
        <pt x="549" y="-317" on="1"/>
        <pt x="562" y="-317" on="0"/>
        <pt x="664" y="-338" on="0"/>
        <pt x="677" y="-338" on="1"/>
        <pt x="1051" y="-338" on="0"/>
        <pt x="1241" y="-13" on="1"/>
        <pt x="1241" y="2" on="0"/>
        <pt x="1233" y="7" on="1"/>
        <pt x="1189" y="20" on="0"/>
        <pt x="1080" y="23" on="1"/>
        <pt x="1056" y="42" on="0"/>
        <pt x="1038" y="64" on="1"/>
        <pt x="1015" y="116" on="0"/>
        <pt x="1015" y="159" on="1"/>
        <pt x="1015" y="208" on="0"/>
        <pt x="1055" y="296" on="1"/>
        <pt x="1101" y="399" on="0"/>
        <pt x="1153" y="399" on="1"/>
        <pt x="1209" y="399" on="0"/>
        <pt x="1259" y="325" on="1"/>
        <pt x="1348" y="196" on="0"/>
        <pt x="1350" y="194" on="1"/>
        <pt x="1458" y="204" on="0"/>
        <pt x="1487" y="214" on="1"/>
        <pt x="1565" y="240" on="0"/>
        <pt x="1588" y="318" on="1"/>
        <pt x="1506" y="886" on="1"/>
        <pt x="1529" y="954" on="0"/>
        <pt x="1531" y="958" on="1"/>
        <pt x="1555" y="1009" on="0"/>
        <pt x="1586" y="1013" on="1"/>
        <pt x="1615" y="940" on="0"/>
        <pt x="1632" y="805" on="1"/>
        <pt x="1641" y="698" on="0"/>
        <pt x="1652" y="591" on="1"/>
        <pt x="1666" y="464" on="0"/>
        <pt x="1673" y="416" on="1"/>
        <pt x="1691" y="301" on="0"/>
        <pt x="1713" y="232" on="1"/>
        <pt x="1732" y="175" on="0"/>
        <pt x="1821" y="141" on="1"/>
        <pt x="1955" y="92" on="0"/>
        <pt x="2111" y="92" on="1"/>
        <pt x="2276" y="92" on="0"/>
        <pt x="2476" y="115" on="1"/>
        <pt x="2709" y="141" on="0"/>
        <pt x="2776" y="179" on="1"/>
        <pt x="2756" y="197" on="0"/>
        <pt x="2689" y="227" on="1"/>
        <pt x="2633" y="251" on="0"/>
        <pt x="2633" y="261" on="1"/>
        <pt x="2633" y="321" on="0"/>
        <pt x="2723" y="369" on="1"/>
        <pt x="2799" y="410" on="0"/>
        <pt x="2853" y="410" on="1"/>
        <pt x="2932" y="410" on="0"/>
        <pt x="2996" y="385" on="1"/>
        <pt x="3083" y="351" on="0"/>
        <pt x="3083" y="287" on="1"/>
        <pt x="3083" y="280" on="0"/>
        <pt x="3022" y="190" on="1"/>
        <pt x="3059" y="152" on="0"/>
        <pt x="3113" y="144" on="1"/>
        <pt x="3122" y="143" on="0"/>
        <pt x="3196" y="143" on="1"/>
        <pt x="3453" y="143" on="0"/>
        <pt x="3524" y="201" on="1"/>
        <pt x="3526" y="216" on="0"/>
        <pt x="3516" y="222" on="1"/>
        <pt x="3429" y="276" on="0"/>
        <pt x="3400" y="276" on="1"/>
        <pt x="3375" y="276" on="0"/>
        <pt x="3241" y="246" on="0"/>
        <pt x="3214" y="246" on="1"/>
        <pt x="3204" y="246" on="0"/>
        <pt x="3196" y="247" on="1"/>
        <pt x="3196" y="280" on="1"/>
        <pt x="3196" y="316" on="0"/>
        <pt x="3281" y="381" on="1"/>
        <pt x="3358" y="440" on="0"/>
        <pt x="3380" y="440" on="1"/>
        <pt x="3417" y="440" on="0"/>
        <pt x="3570" y="381" on="1"/>
        <pt x="3752" y="310" on="0"/>
        <pt x="3755" y="310" on="1"/>
        <pt x="3811" y="301" on="0"/>
        <pt x="3919" y="279" on="1"/>
        <pt x="3969" y="274" on="0"/>
        <pt x="4019" y="269" on="1"/>
        <pt x="4107" y="253" on="0"/>
      </contour>
      <contour>
        <pt x="748" y="1321" on="1"/>
        <pt x="748" y="1250" on="0"/>
        <pt x="694" y="1180" on="1"/>
        <pt x="637" y="1106" on="0"/>
        <pt x="570" y="1106" on="1"/>
        <pt x="483" y="1106" on="0"/>
        <pt x="483" y="1177" on="1"/>
        <pt x="483" y="1219" on="0"/>
        <pt x="531" y="1318" on="1"/>
        <pt x="585" y="1434" on="0"/>
        <pt x="636" y="1434" on="1"/>
        <pt x="670" y="1434" on="0"/>
        <pt x="748" y="1348" on="0"/>
      </contour>
      <contour>
        <pt x="718" y="205" on="1"/>
        <pt x="718" y="64" on="0"/>
        <pt x="664" y="1" on="1"/>
        <pt x="657" y="0" on="0"/>
        <pt x="630" y="31" on="0"/>
        <pt x="629" y="45" on="1"/>
        <pt x="524" y="851" on="0"/>
        <pt x="524" y="901" on="1"/>
        <pt x="524" y="946" on="0"/>
        <pt x="567" y="1033" on="1"/>
        <pt x="576" y="1033" on="0"/>
        <pt x="610" y="1011" on="0"/>
        <pt x="612" y="999" on="1"/>
      </contour>
      <contour>
        <pt x="1536" y="1461" on="1"/>
        <pt x="1514" y="1484" on="0"/>
        <pt x="1488" y="1484" on="1"/>
        <pt x="1476" y="1448" on="1"/>
        <pt x="1500" y="1424" on="0"/>
        <pt x="1523" y="1424" on="1"/>
        <pt x="1536" y="1436" on="0"/>
      </contour>
      <contour>
        <pt x="657" y="1254" on="1"/>
        <pt x="645" y="1266" on="0"/>
        <pt x="615" y="1296" on="0"/>
        <pt x="612" y="1300" on="1"/>
        <pt x="566" y="1277" on="0"/>
        <pt x="566" y="1240" on="1"/>
        <pt x="566" y="1240" on="0"/>
        <pt x="602" y="1229" on="0"/>
        <pt x="633" y="1229" on="1"/>
      </contour>
      <contour>
        <pt x="1167" y="185" on="1"/>
        <pt x="1167" y="200" on="0"/>
        <pt x="1132" y="235" on="1"/>
        <pt x="1118" y="197" on="1"/>
      </contour>
    </TTGlyph>
    <TTGlyph name="uniFB53" xMin="450" yMin="-413" xMax="4504" yMax="1665">
      <contour>
        <pt x="4504" y="1430" on="1"/>
        <pt x="4504" y="1392" on="0"/>
        <pt x="4469" y="1339" on="1"/>
        <pt x="4398" y="1235" on="0"/>
        <pt x="4274" y="1235" on="1"/>
        <pt x="4262" y="1235" on="0"/>
        <pt x="4213" y="1245" on="0"/>
        <pt x="4202" y="1245" on="1"/>
        <pt x="4190" y="1245" on="0"/>
        <pt x="4172" y="1229" on="1"/>
        <pt x="4150" y="1208" on="0"/>
        <pt x="4142" y="1205" on="1"/>
        <pt x="4106" y="1205" on="1"/>
        <pt x="4109" y="1224" on="0"/>
        <pt x="4172" y="1325" on="0"/>
        <pt x="4188" y="1342" on="1"/>
        <pt x="4212" y="1351" on="0"/>
        <pt x="4250" y="1370" on="1"/>
        <pt x="4259" y="1375" on="0"/>
        <pt x="4317" y="1451" on="1"/>
        <pt x="4357" y="1501" on="0"/>
        <pt x="4417" y="1501" on="1"/>
        <pt x="4504" y="1501" on="0"/>
      </contour>
      <contour>
        <pt x="4095" y="1465" on="1"/>
        <pt x="4095" y="1407" on="0"/>
        <pt x="4068" y="1389" on="1"/>
        <pt x="4016" y="1355" on="0"/>
        <pt x="3928" y="1315" on="1"/>
        <pt x="3842" y="1275" on="0"/>
        <pt x="3822" y="1275" on="1"/>
        <pt x="3770" y="1275" on="1"/>
        <pt x="3757" y="1289" on="1"/>
        <pt x="3757" y="1325" on="1"/>
        <pt x="3803" y="1354" on="0"/>
        <pt x="3890" y="1415" on="1"/>
        <pt x="3876" y="1450" on="0"/>
        <pt x="3844" y="1450" on="1"/>
        <pt x="3828" y="1450" on="0"/>
        <pt x="3751" y="1398" on="1"/>
        <pt x="3736" y="1413" on="0"/>
        <pt x="3736" y="1430" on="1"/>
        <pt x="3736" y="1485" on="0"/>
        <pt x="3829" y="1529" on="1"/>
        <pt x="3903" y="1562" on="0"/>
        <pt x="3946" y="1562" on="1"/>
        <pt x="3992" y="1562" on="0"/>
        <pt x="4090" y="1499" on="1"/>
        <pt x="4095" y="1486" on="0"/>
      </contour>
      <contour>
        <pt x="4473" y="297" on="1"/>
        <pt x="4470" y="288" on="0"/>
        <pt x="4461" y="204" on="1"/>
        <pt x="4454" y="145" on="0"/>
        <pt x="4417" y="108" on="1"/>
        <pt x="4404" y="120" on="0"/>
        <pt x="4384" y="143" on="1"/>
        <pt x="4367" y="288" on="0"/>
        <pt x="4315" y="667" on="1"/>
        <pt x="4268" y="1006" on="0"/>
        <pt x="4268" y="1014" on="1"/>
        <pt x="4268" y="1131" on="0"/>
        <pt x="4328" y="1141" on="1"/>
      </contour>
      <contour>
        <pt x="3449" y="1279" on="1"/>
        <pt x="3444" y="1271" on="0"/>
        <pt x="3434" y="1255" on="0"/>
        <pt x="3419" y="1255" on="1"/>
        <pt x="3409" y="1255" on="0"/>
        <pt x="3324" y="1316" on="0"/>
        <pt x="3307" y="1316" on="1"/>
        <pt x="3283" y="1316" on="0"/>
        <pt x="3277" y="1309" on="1"/>
        <pt x="3251" y="1230" on="0"/>
        <pt x="3089" y="1126" on="1"/>
        <pt x="2955" y="1039" on="0"/>
        <pt x="2900" y="1041" on="1"/>
        <pt x="2836" y="1041" on="1"/>
        <pt x="2836" y="1044" on="0"/>
        <pt x="2825" y="1056" on="0"/>
        <pt x="2825" y="1071" on="1"/>
        <pt x="2825" y="1089" on="0"/>
        <pt x="2904" y="1132" on="1"/>
        <pt x="2953" y="1158" on="0"/>
        <pt x="3001" y="1185" on="1"/>
        <pt x="3062" y="1229" on="0"/>
        <pt x="3194" y="1333" on="1"/>
        <pt x="3194" y="1371" on="1"/>
        <pt x="3102" y="1413" on="0"/>
        <pt x="3102" y="1455" on="1"/>
        <pt x="3102" y="1495" on="0"/>
        <pt x="3148" y="1572" on="1"/>
        <pt x="3203" y="1665" on="0"/>
        <pt x="3266" y="1665" on="1"/>
        <pt x="3326" y="1665" on="0"/>
        <pt x="3343" y="1589" on="1"/>
        <pt x="3351" y="1556" on="0"/>
        <pt x="3343" y="1477" on="1"/>
        <pt x="3349" y="1469" on="0"/>
        <pt x="3406" y="1418" on="1"/>
        <pt x="3449" y="1379" on="0"/>
        <pt x="3449" y="1364" on="1"/>
      </contour>
      <contour>
        <pt x="3552" y="886" on="1"/>
        <pt x="3552" y="850" on="0"/>
        <pt x="3509" y="820" on="1"/>
        <pt x="3474" y="795" on="0"/>
        <pt x="3455" y="795" on="1"/>
        <pt x="3443" y="795" on="0"/>
        <pt x="3394" y="825" on="0"/>
        <pt x="3383" y="825" on="1"/>
        <pt x="3376" y="825" on="0"/>
        <pt x="3311" y="763" on="0"/>
        <pt x="3275" y="763" on="1"/>
        <pt x="3239" y="763" on="0"/>
        <pt x="3184" y="812" on="0"/>
        <pt x="3184" y="845" on="1"/>
        <pt x="3184" y="881" on="0"/>
        <pt x="3227" y="913" on="1"/>
        <pt x="3261" y="938" on="0"/>
        <pt x="3275" y="938" on="1"/>
        <pt x="3286" y="938" on="0"/>
        <pt x="3339" y="907" on="0"/>
        <pt x="3352" y="907" on="1"/>
        <pt x="3365" y="907" on="0"/>
        <pt x="3447" y="979" on="0"/>
        <pt x="3460" y="979" on="1"/>
        <pt x="3479" y="979" on="0"/>
        <pt x="3552" y="906" on="0"/>
      </contour>
      <contour>
        <pt x="2731" y="1295" on="1"/>
        <pt x="2731" y="1251" on="0"/>
        <pt x="2718" y="1217" on="1"/>
        <pt x="2712" y="1200" on="0"/>
        <pt x="2599" y="1136" on="1"/>
        <pt x="2482" y="1071" on="0"/>
        <pt x="2450" y="1071" on="1"/>
        <pt x="2378" y="1071" on="1"/>
        <pt x="2364" y="1084" on="1"/>
        <pt x="2364" y="1121" on="1"/>
        <pt x="2410" y="1150" on="0"/>
        <pt x="2497" y="1210" on="1"/>
        <pt x="2487" y="1235" on="0"/>
        <pt x="2441" y="1235" on="1"/>
        <pt x="2443" y="1235" on="0"/>
        <pt x="2314" y="1185" on="1"/>
        <pt x="2314" y="1218" on="1"/>
        <pt x="2314" y="1261" on="0"/>
        <pt x="2399" y="1318" on="1"/>
        <pt x="2473" y="1368" on="0"/>
        <pt x="2497" y="1368" on="1"/>
        <pt x="2511" y="1368" on="0"/>
        <pt x="2597" y="1339" on="1"/>
        <pt x="2703" y="1303" on="0"/>
      </contour>
      <contour>
        <pt x="4074" y="227" on="1"/>
        <pt x="4082" y="117" on="0"/>
        <pt x="4012" y="52" on="1"/>
        <pt x="3950" y="-4" on="0"/>
        <pt x="3859" y="-4" on="1"/>
        <pt x="3678" y="-4" on="0"/>
        <pt x="3617" y="9" on="1"/>
        <pt x="3597" y="13" on="0"/>
        <pt x="3515" y="47" on="1"/>
        <pt x="3439" y="78" on="0"/>
        <pt x="3424" y="78" on="1"/>
        <pt x="3411" y="78" on="0"/>
        <pt x="3363" y="51" on="0"/>
        <pt x="3353" y="49" on="1"/>
        <pt x="3166" y="26" on="0"/>
        <pt x="3137" y="26" on="1"/>
        <pt x="3139" y="26" on="0"/>
        <pt x="3051" y="24" on="1"/>
        <pt x="2958" y="21" on="0"/>
        <pt x="2886" y="21" on="1"/>
        <pt x="2783" y="20" on="0"/>
        <pt x="2719" y="23" on="1"/>
        <pt x="2695" y="-2" on="0"/>
        <pt x="2671" y="-73" on="1"/>
        <pt x="2641" y="-156" on="0"/>
        <pt x="2636" y="-165" on="1"/>
        <pt x="2614" y="-190" on="0"/>
        <pt x="2582" y="-236" on="1"/>
        <pt x="2550" y="-297" on="0"/>
        <pt x="2455" y="-357" on="1"/>
        <pt x="2365" y="-413" on="0"/>
        <pt x="2313" y="-413" on="1"/>
        <pt x="2129" y="-413" on="1"/>
        <pt x="2029" y="-413" on="0"/>
        <pt x="1904" y="-360" on="1"/>
        <pt x="1904" y="-324" on="1"/>
        <pt x="1927" y="-301" on="0"/>
        <pt x="1944" y="-301" on="1"/>
        <pt x="1956" y="-301" on="0"/>
        <pt x="2081" y="-321" on="0"/>
        <pt x="2093" y="-321" on="1"/>
        <pt x="2349" y="-321" on="0"/>
        <pt x="2542" y="-67" on="1"/>
        <pt x="2623" y="39" on="0"/>
        <pt x="2621" y="61" on="1"/>
        <pt x="2553" y="109" on="0"/>
        <pt x="2537" y="138" on="1"/>
        <pt x="2528" y="154" on="0"/>
        <pt x="2528" y="201" on="1"/>
        <pt x="2528" y="213" on="0"/>
        <pt x="2538" y="270" on="0"/>
        <pt x="2539" y="279" on="1"/>
        <pt x="2552" y="292" on="0"/>
        <pt x="2569" y="292" on="1"/>
        <pt x="2582" y="292" on="0"/>
        <pt x="2626" y="261" on="1"/>
        <pt x="2680" y="222" on="0"/>
        <pt x="2700" y="213" on="1"/>
        <pt x="2733" y="197" on="0"/>
        <pt x="2855" y="182" on="1"/>
        <pt x="2954" y="170" on="0"/>
        <pt x="2979" y="170" on="1"/>
        <pt x="3139" y="170" on="0"/>
        <pt x="3208" y="183" on="1"/>
        <pt x="3240" y="187" on="0"/>
        <pt x="3272" y="190" on="1"/>
        <pt x="3305" y="197" on="0"/>
        <pt x="3323" y="227" on="1"/>
        <pt x="3311" y="307" on="0"/>
        <pt x="3340" y="382" on="1"/>
        <pt x="3361" y="408" on="0"/>
        <pt x="3395" y="455" on="1"/>
        <pt x="3425" y="498" on="0"/>
        <pt x="3456" y="542" on="1"/>
        <pt x="3505" y="600" on="0"/>
        <pt x="3557" y="600" on="1"/>
        <pt x="3617" y="600" on="0"/>
        <pt x="3649" y="532" on="1"/>
        <pt x="3674" y="478" on="0"/>
        <pt x="3674" y="410" on="1"/>
        <pt x="3674" y="342" on="0"/>
        <pt x="3624" y="197" on="1"/>
        <pt x="3638" y="182" on="0"/>
        <pt x="3651" y="172" on="1"/>
        <pt x="3701" y="160" on="0"/>
        <pt x="3722" y="160" on="1"/>
        <pt x="3822" y="160" on="1"/>
        <pt x="3932" y="160" on="0"/>
        <pt x="3972" y="186" on="1"/>
        <pt x="3953" y="417" on="0"/>
        <pt x="3886" y="870" on="1"/>
        <pt x="3883" y="884" on="0"/>
        <pt x="3859" y="922" on="1"/>
        <pt x="3838" y="954" on="0"/>
        <pt x="3838" y="999" on="1"/>
        <pt x="3838" y="1055" on="0"/>
        <pt x="3913" y="1203" on="1"/>
        <pt x="3949" y="1203" on="1"/>
        <pt x="3950" y="1202" on="0"/>
        <pt x="3951" y="1198" on="0"/>
        <pt x="3951" y="1143" on="1"/>
        <pt x="3951" y="1081" on="0"/>
        <pt x="4043" y="1017" on="1"/>
        <pt x="4023" y="954" on="0"/>
        <pt x="3992" y="836" on="1"/>
      </contour>
      <contour>
        <pt x="2078" y="1450" on="1"/>
        <pt x="2078" y="1409" on="0"/>
        <pt x="2055" y="1392" on="1"/>
        <pt x="2016" y="1362" on="0"/>
        <pt x="1789" y="1242" on="1"/>
        <pt x="1747" y="1212" on="0"/>
        <pt x="1664" y="1163" on="1"/>
        <pt x="1630" y="1163" on="1"/>
        <pt x="1617" y="1176" on="0"/>
        <pt x="1617" y="1194" on="1"/>
        <pt x="1617" y="1250" on="0"/>
        <pt x="1660" y="1281" on="1"/>
        <pt x="1729" y="1330" on="0"/>
        <pt x="1848" y="1395" on="1"/>
        <pt x="2027" y="1493" on="0"/>
        <pt x="2042" y="1501" on="1"/>
        <pt x="2078" y="1483" on="0"/>
      </contour>
      <contour>
        <pt x="2180" y="231" on="1"/>
        <pt x="2180" y="215" on="0"/>
        <pt x="2167" y="188" on="1"/>
        <pt x="2152" y="159" on="0"/>
        <pt x="2136" y="152" on="1"/>
        <pt x="2089" y="134" on="0"/>
        <pt x="2013" y="119" on="1"/>
        <pt x="1894" y="96" on="0"/>
        <pt x="1889" y="94" on="1"/>
        <pt x="1842" y="71" on="0"/>
        <pt x="1743" y="27" on="1"/>
        <pt x="1741" y="57" on="0"/>
        <pt x="1736" y="121" on="1"/>
        <pt x="1668" y="187" on="0"/>
        <pt x="1668" y="226" on="1"/>
        <pt x="1668" y="301" on="0"/>
        <pt x="1780" y="396" on="1"/>
        <pt x="1884" y="487" on="0"/>
        <pt x="1944" y="487" on="1"/>
        <pt x="1980" y="487" on="0"/>
        <pt x="2015" y="453" on="1"/>
        <pt x="2047" y="423" on="0"/>
        <pt x="2047" y="400" on="1"/>
        <pt x="2047" y="374" on="0"/>
        <pt x="1971" y="272" on="1"/>
        <pt x="1952" y="282" on="0"/>
        <pt x="1911" y="321" on="1"/>
        <pt x="1876" y="354" on="0"/>
        <pt x="1862" y="354" on="1"/>
        <pt x="1857" y="354" on="0"/>
        <pt x="1801" y="326" on="1"/>
        <pt x="1801" y="297" on="1"/>
        <pt x="1801" y="240" on="0"/>
        <pt x="1939" y="231" on="1"/>
        <pt x="1957" y="231" on="0"/>
        <pt x="2072" y="262" on="0"/>
        <pt x="2084" y="261" on="1"/>
        <pt x="2167" y="261" on="1"/>
        <pt x="2180" y="248" on="0"/>
      </contour>
      <contour>
        <pt x="1525" y="143" on="1"/>
        <pt x="1525" y="113" on="0"/>
        <pt x="1456" y="79" on="1"/>
        <pt x="1340" y="1020" on="1"/>
        <pt x="1340" y="1077" on="0"/>
        <pt x="1375" y="1141" on="1"/>
        <pt x="1382" y="1146" on="0"/>
        <pt x="1420" y="1162" on="1"/>
        <pt x="1525" y="431" on="1"/>
      </contour>
      <contour>
        <pt x="1043" y="1419" on="1"/>
        <pt x="1043" y="1367" on="0"/>
        <pt x="996" y="1341" on="1"/>
        <pt x="952" y="1322" on="0"/>
        <pt x="908" y="1303" on="1"/>
        <pt x="773" y="1228" on="0"/>
        <pt x="505" y="1081" on="1"/>
        <pt x="480" y="1106" on="0"/>
        <pt x="480" y="1117" on="1"/>
        <pt x="480" y="1174" on="0"/>
        <pt x="516" y="1199" on="1"/>
        <pt x="611" y="1268" on="0"/>
        <pt x="783" y="1366" on="1"/>
        <pt x="948" y="1460" on="0"/>
        <pt x="968" y="1460" on="1"/>
        <pt x="1030" y="1460" on="1"/>
        <pt x="1043" y="1446" on="0"/>
      </contour>
      <contour>
        <pt x="860" y="713" on="1"/>
        <pt x="860" y="682" on="0"/>
        <pt x="801" y="610" on="0"/>
        <pt x="783" y="610" on="1"/>
        <pt x="770" y="610" on="0"/>
        <pt x="686" y="663" on="1"/>
        <pt x="699" y="784" on="0"/>
        <pt x="772" y="784" on="1"/>
        <pt x="806" y="784" on="0"/>
        <pt x="860" y="739" on="0"/>
      </contour>
      <contour>
        <pt x="1238" y="196" on="1"/>
        <pt x="1238" y="107" on="0"/>
        <pt x="1227" y="74" on="1"/>
        <pt x="1209" y="16" on="0"/>
        <pt x="1141" y="-51" on="1"/>
        <pt x="1077" y="-113" on="0"/>
        <pt x="989" y="-144" on="1"/>
        <pt x="836" y="-199" on="0"/>
        <pt x="731" y="-199" on="1"/>
        <pt x="618" y="-199" on="0"/>
        <pt x="450" y="-48" on="0"/>
        <pt x="450" y="57" on="1"/>
        <pt x="450" y="91" on="0"/>
        <pt x="477" y="156" on="1"/>
        <pt x="497" y="209" on="0"/>
        <pt x="516" y="261" on="1"/>
        <pt x="545" y="328" on="0"/>
        <pt x="576" y="344" on="1"/>
        <pt x="614" y="344" on="0"/>
        <pt x="614" y="308" on="1"/>
        <pt x="614" y="295" on="0"/>
        <pt x="542" y="142" on="0"/>
        <pt x="542" y="129" on="1"/>
        <pt x="542" y="45" on="0"/>
        <pt x="642" y="-6" on="1"/>
        <pt x="716" y="-45" on="0"/>
        <pt x="778" y="-45" on="1"/>
        <pt x="838" y="-45" on="0"/>
        <pt x="980" y="6" on="1"/>
        <pt x="1156" y="69" on="0"/>
        <pt x="1156" y="139" on="1"/>
        <pt x="1156" y="151" on="0"/>
        <pt x="1054" y="425" on="0"/>
        <pt x="1054" y="436" on="1"/>
        <pt x="1054" y="492" on="0"/>
        <pt x="1087" y="558" on="1"/>
        <pt x="1123" y="558" on="1"/>
        <pt x="1238" y="393" on="0"/>
      </contour>
      <contour>
        <pt x="3583" y="354" on="1"/>
        <pt x="3583" y="375" on="0"/>
        <pt x="3544" y="436" on="0"/>
        <pt x="3526" y="436" on="1"/>
        <pt x="3504" y="436" on="0"/>
        <pt x="3460" y="383" on="1"/>
        <pt x="3419" y="333" on="0"/>
        <pt x="3419" y="324" on="1"/>
        <pt x="3419" y="306" on="0"/>
        <pt x="3459" y="262" on="0"/>
        <pt x="3475" y="262" on="1"/>
        <pt x="3498" y="262" on="0"/>
        <pt x="3583" y="333" on="0"/>
      </contour>
      <contour>
        <pt x="4389" y="1406" on="1"/>
        <pt x="4359" y="1393" on="0"/>
        <pt x="4336" y="1366" on="1"/>
        <pt x="4374" y="1366" on="1"/>
        <pt x="4398" y="1388" on="0"/>
      </contour>
      <contour>
        <pt x="3275" y="1533" on="1"/>
        <pt x="3252" y="1556" on="0"/>
        <pt x="3226" y="1556" on="1"/>
        <pt x="3214" y="1520" on="1"/>
        <pt x="3238" y="1496" on="0"/>
        <pt x="3261" y="1496" on="1"/>
        <pt x="3275" y="1508" on="0"/>
      </contour>
    </TTGlyph>
</ttFont>
